{
DisplayStrings = (

glyphs = (
{
color = 4;
glyphname = knA;
lastChange = "2016-01-01 06:02:12 +0000";
layers = (
{
layerId = "59118767-2CA9-48AA-9373-694D24C960D8";
name = Regular;
paths = (
{
closed = 1;
nodes = (
"38 -107 OFFCURVE",
"42 -105 OFFCURVE",
"81 -79 CURVE SMOOTH",
"109 -60 OFFCURVE",
"147 -33 OFFCURVE",
"187 -4 CURVE",
"212 -9 OFFCURVE",
"238 -12 OFFCURVE",
"265 -12 CURVE SMOOTH",
"463 -12 OFFCURVE",
"708 124 OFFCURVE",
"708 338 CURVE SMOOTH",
"708 452 OFFCURVE",
"623 522 OFFCURVE",
"522 522 CURVE SMOOTH",
"373 522 OFFCURVE",
"273 372 OFFCURVE",
"273 270 CURVE SMOOTH",
"273 224 OFFCURVE",
"294 184 OFFCURVE",
"342 173 CURVE",
"308 150 OFFCURVE",
"265 116 OFFCURVE",
"227 98 CURVE",
"155 118 OFFCURVE",
"103 161 OFFCURVE",
"103 232 CURVE SMOOTH",
"103 313 OFFCURVE",
"154 320 OFFCURVE",
"178 323 CURVE SMOOTH",
"220 328 OFFCURVE",
"268 414 OFFCURVE",
"268 444 CURVE SMOOTH",
"268 453 OFFCURVE",
"264 459 OFFCURVE",
"247 459 CURVE SMOOTH",
"167 459 OFFCURVE",
"27 325 OFFCURVE",
"27 183 CURVE SMOOTH",
"27 102 OFFCURVE",
"66 48 OFFCURVE",
"125 18 CURVE",
"85 -8 OFFCURVE",
"62 -22 OFFCURVE",
"12 -54 CURVE SMOOTH",
"9 -56 OFFCURVE",
"8 -60 OFFCURVE",
"8 -65 CURVE SMOOTH",
"8 -77 OFFCURVE",
"15 -94 OFFCURVE",
"21 -100 CURVE SMOOTH",
"26 -105 OFFCURVE",
"30 -107 OFFCURVE",
"34 -107 CURVE SMOOTH"
);
},
{
closed = 1;
nodes = (
"323 85 OFFCURVE",
"311 85 OFFCURVE",
"299 86 CURVE",
"383 142 OFFCURVE",
"450 191 OFFCURVE",
"495 236 CURVE SMOOTH",
"500 241 OFFCURVE",
"503 247 OFFCURVE",
"503 252 CURVE SMOOTH",
"503 261 OFFCURVE",
"493 269 OFFCURVE",
"482 269 CURVE SMOOTH",
"467 269 OFFCURVE",
"457 249 OFFCURVE",
"422 249 CURVE SMOOTH",
"374 249 OFFCURVE",
"352 279 OFFCURVE",
"352 314 CURVE SMOOTH",
"352 364 OFFCURVE",
"397 425 OFFCURVE",
"475 425 CURVE SMOOTH",
"553 425 OFFCURVE",
"611 365 OFFCURVE",
"611 286 CURVE SMOOTH",
"611 151 OFFCURVE",
"471 85 OFFCURVE",
"335 85 CURVE SMOOTH"
);
}
);
width = 732;
}
);
leftKerningGroup = knA;
rightKerningGroup = knA;
unicode = 0C85;
},
{
color = 4;
glyphname = knAA;
lastChange = "2016-01-01 06:02:12 +0000";
layers = (
{
layerId = "59118767-2CA9-48AA-9373-694D24C960D8";
name = Regular;
paths = (
{
closed = 1;
nodes = (
"-33 -106 OFFCURVE",
"-14 -92 OFFCURVE",
"32 -60 CURVE SMOOTH",
"65 -37 OFFCURVE",
"103 -9 OFFCURVE",
"140 18 CURVE",
"182 -3 OFFCURVE",
"234 -13 OFFCURVE",
"287 -13 CURVE SMOOTH",
"489 -13 OFFCURVE",
"602 126 OFFCURVE",
"602 206 CURVE SMOOTH",
"602 243 OFFCURVE",
"578 268 OFFCURVE",
"549 290 CURVE",
"615 343 OFFCURVE",
"647 404 OFFCURVE",
"647 447 CURVE SMOOTH",
"647 492 OFFCURVE",
"613 524 OFFCURVE",
"553 524 CURVE SMOOTH",
"454 524 OFFCURVE",
"368 439 OFFCURVE",
"368 355 CURVE SMOOTH",
"368 311 OFFCURVE",
"391 284 OFFCURVE",
"418 263 CURVE",
"339 211 OFFCURVE",
"258 161 OFFCURVE",
"191 119 CURVE",
"148 143 OFFCURVE",
"117 181 OFFCURVE",
"117 238 CURVE SMOOTH",
"117 311 OFFCURVE",
"166 320 OFFCURVE",
"192 324 CURVE SMOOTH",
"237 331 OFFCURVE",
"280 416 OFFCURVE",
"280 445 CURVE SMOOTH",
"280 453 OFFCURVE",
"276 459 OFFCURVE",
"259 459 CURVE SMOOTH",
"182 459 OFFCURVE",
"39 330 OFFCURVE",
"39 181 CURVE SMOOTH",
"39 126 OFFCURVE",
"58 84 OFFCURVE",
"89 54 CURVE",
"20 10 OFFCURVE",
"-21 -16 OFFCURVE",
"-70 -47 CURVE SMOOTH",
"-73 -49 OFFCURVE",
"-75 -53 OFFCURVE",
"-75 -57 CURVE SMOOTH",
"-75 -66 OFFCURVE",
"-60 -95 OFFCURVE",
"-56 -100 CURVE SMOOTH",
"-52 -105 OFFCURVE",
"-49 -106 OFFCURVE",
"-44 -106 CURVE SMOOTH"
);
},
{
closed = 1;
nodes = (
"313 84 OFFCURVE",
"283 87 OFFCURVE",
"254 94 CURVE",
"324 141 OFFCURVE",
"395 187 OFFCURVE",
"465 233 CURVE",
"492 217 OFFCURVE",
"514 200 OFFCURVE",
"514 172 CURVE SMOOTH",
"514 118 OFFCURVE",
"434 84 OFFCURVE",
"341 84 CURVE SMOOTH"
);
},
{
closed = 1;
nodes = (
"478 339 OFFCURVE",
"449 362 OFFCURVE",
"449 397 CURVE SMOOTH",
"449 431 OFFCURVE",
"476 455 OFFCURVE",
"506 455 CURVE SMOOTH",
"537 455 OFFCURVE",
"555 431 OFFCURVE",
"555 400 CURVE SMOOTH",
"555 373 OFFCURVE",
"542 342 OFFCURVE",
"510 317 CURVE"
);
}
);
width = 672;
}
);
leftKerningGroup = knAA;
rightKerningGroup = knAA;
unicode = 0C86;
},
{
color = 4;
glyphname = knI;
lastChange = "2016-01-01 06:02:12 +0000";
layers = (
{
background = {
paths = (
{
closed = 1;
nodes = (
"562 333 OFFCURVE",
"562 390 CURVE SMOOTH",
"562 452 OFFCURVE",
"531 501 OFFCURVE",
"463 501 CURVE SMOOTH",
"414 501 OFFCURVE",
"351 472 OFFCURVE",
"305 414 CURVE",
"278 450 OFFCURVE",
"239 466 OFFCURVE",
"201 466 CURVE SMOOTH",
"105 466 OFFCURVE",
"22 365 OFFCURVE",
"22 326 CURVE SMOOTH",
"22 308 OFFCURVE",
"40 297 OFFCURVE",
"54 297 CURVE SMOOTH",
"68 297 OFFCURVE",
"70 303 OFFCURVE",
"80 316 CURVE SMOOTH",
"103 347 OFFCURVE",
"121 368 OFFCURVE",
"163 368 CURVE SMOOTH",
"182 368 OFFCURVE",
"199 363 OFFCURVE",
"211 351 CURVE SMOOTH",
"239 323 OFFCURVE",
"225 283 OFFCURVE",
"259 283 CURVE SMOOTH",
"268 283 OFFCURVE",
"278 287 OFFCURVE",
"289 300 CURVE SMOOTH",
"317 334 OFFCURVE",
"351 398 OFFCURVE",
"410 398 CURVE SMOOTH",
"444 398 OFFCURVE",
"471 377 OFFCURVE",
"471 337 CURVE SMOOTH",
"471 309 OFFCURVE",
"457 269 OFFCURVE",
"434 232 CURVE",
"394 244 OFFCURVE",
"350 251 OFFCURVE",
"307 251 CURVE SMOOTH",
"148 251 OFFCURVE",
"42 161 OFFCURVE",
"42 79 CURVE SMOOTH",
"42 20 OFFCURVE",
"96 -11 OFFCURVE",
"169 -11 CURVE SMOOTH",
"256 -11 OFFCURVE",
"372 32 OFFCURVE",
"444 106 CURVE",
"467 79 OFFCURVE",
"486 44 OFFCURVE",
"497 -2 CURVE",
"498 -7 OFFCURVE",
"500 -13 OFFCURVE",
"511 -13 CURVE SMOOTH",
"526 -13 OFFCURVE",
"550 -1 OFFCURVE",
"566 13 CURVE SMOOTH",
"586 31 OFFCURVE",
"595 52 OFFCURVE",
"595 78 CURVE SMOOTH",
"595 133 OFFCURVE",
"553 178 OFFCURVE",
"493 209 CURVE",
"535 265 OFFCURVE"
);
},
{
closed = 1;
nodes = (
"137 157 OFFCURVE",
"194 188 OFFCURVE",
"264 188 CURVE SMOOTH",
"304 188 OFFCURVE",
"354 178 OFFCURVE",
"399 147 CURVE",
"347 106 OFFCURVE",
"264 78 OFFCURVE",
"207 78 CURVE SMOOTH",
"165 78 OFFCURVE",
"137 93 OFFCURVE",
"137 119 CURVE SMOOTH"
);
}
);
};
layerId = "59118767-2CA9-48AA-9373-694D24C960D8";
name = Regular;
paths = (
{
closed = 1;
nodes = (
"526 -13 OFFCURVE",
"550 -1 OFFCURVE",
"566 13 CURVE SMOOTH",
"586 31 OFFCURVE",
"595 52 OFFCURVE",
"595 78 CURVE SMOOTH",
"595 133 OFFCURVE",
"553 178 OFFCURVE",
"493 209 CURVE",
"535 265 OFFCURVE",
"562 333 OFFCURVE",
"562 390 CURVE SMOOTH",
"562 452 OFFCURVE",
"531 501 OFFCURVE",
"463 501 CURVE SMOOTH",
"414 501 OFFCURVE",
"351 472 OFFCURVE",
"305 414 CURVE",
"278 450 OFFCURVE",
"239 466 OFFCURVE",
"201 466 CURVE SMOOTH",
"105 466 OFFCURVE",
"22 365 OFFCURVE",
"22 326 CURVE SMOOTH",
"22 308 OFFCURVE",
"40 297 OFFCURVE",
"54 297 CURVE SMOOTH",
"68 297 OFFCURVE",
"70 303 OFFCURVE",
"80 316 CURVE SMOOTH",
"103 347 OFFCURVE",
"121 368 OFFCURVE",
"163 368 CURVE SMOOTH",
"182 368 OFFCURVE",
"199 363 OFFCURVE",
"211 351 CURVE SMOOTH",
"239 323 OFFCURVE",
"225 283 OFFCURVE",
"259 283 CURVE SMOOTH",
"268 283 OFFCURVE",
"278 287 OFFCURVE",
"289 300 CURVE SMOOTH",
"317 334 OFFCURVE",
"351 398 OFFCURVE",
"410 398 CURVE SMOOTH",
"444 398 OFFCURVE",
"471 377 OFFCURVE",
"471 337 CURVE SMOOTH",
"471 309 OFFCURVE",
"457 269 OFFCURVE",
"434 232 CURVE",
"394 244 OFFCURVE",
"350 251 OFFCURVE",
"307 251 CURVE SMOOTH",
"148 251 OFFCURVE",
"42 161 OFFCURVE",
"42 79 CURVE SMOOTH",
"42 20 OFFCURVE",
"96 -11 OFFCURVE",
"169 -11 CURVE SMOOTH",
"256 -11 OFFCURVE",
"372 32 OFFCURVE",
"444 106 CURVE",
"467 79 OFFCURVE",
"486 44 OFFCURVE",
"497 -2 CURVE",
"498 -7 OFFCURVE",
"500 -13 OFFCURVE",
"511 -13 CURVE SMOOTH"
);
},
{
closed = 1;
nodes = (
"165 78 OFFCURVE",
"137 93 OFFCURVE",
"137 119 CURVE SMOOTH",
"137 157 OFFCURVE",
"194 188 OFFCURVE",
"264 188 CURVE SMOOTH",
"304 188 OFFCURVE",
"354 178 OFFCURVE",
"399 147 CURVE",
"347 106 OFFCURVE",
"264 78 OFFCURVE",
"207 78 CURVE SMOOTH"
);
}
);
width = 635;
}
);
leftKerningGroup = knI;
rightKerningGroup = knI;
unicode = 0C87;
},
{
color = 4;
glyphname = knII;
lastChange = "2016-01-01 06:02:12 +0000";
layers = (
{
guideLines = (
{
position = "{2421, -110}";
},
{
angle = 226.033;
position = "{1792, 233}";
},
{
position = "{2997, 519}";
},
{
angle = 90;
position = "{847, 163}";
}
);
layerId = "59118767-2CA9-48AA-9373-694D24C960D8";
name = Regular;
paths = (
{
closed = 1;
nodes = (
"792 -63 OFFCURVE",
"821 -30 OFFCURVE",
"821 5 CURVE SMOOTH",
"821 22 OFFCURVE",
"815 16 OFFCURVE",
"789 25 CURVE SMOOTH",
"748 39 OFFCURVE",
"703 75 OFFCURVE",
"672 139 CURVE SMOOTH",
"658 169 OFFCURVE",
"648 201 OFFCURVE",
"643 232 CURVE",
"695 253 OFFCURVE",
"738 276 OFFCURVE",
"770 301 CURVE SMOOTH",
"820 340 OFFCURVE",
"845 384 OFFCURVE",
"845 432 CURVE SMOOTH",
"845 494 OFFCURVE",
"800 518 OFFCURVE",
"756 518 CURVE SMOOTH",
"704 518 OFFCURVE",
"659 484 OFFCURVE",
"625 433 CURVE SMOOTH",
"593 386 OFFCURVE",
"571 324 OFFCURVE",
"564 261 CURVE",
"551 257 OFFCURVE",
"537 253 OFFCURVE",
"521 251 CURVE",
"524 267 OFFCURVE",
"526 284 OFFCURVE",
"526 300 CURVE SMOOTH",
"526 416 OFFCURVE",
"442 462 OFFCURVE",
"347 462 CURVE SMOOTH",
"277 462 OFFCURVE",
"197 437 OFFCURVE",
"143 408 CURVE",
"188 478 OFFCURVE",
"262 539 OFFCURVE",
"338 539 CURVE SMOOTH",
"358 539 OFFCURVE",
"379 535 OFFCURVE",
"390 526 CURVE SMOOTH",
"407 512 OFFCURVE",
"411 506 OFFCURVE",
"418 506 CURVE SMOOTH",
"452 506 OFFCURVE",
"494 549 OFFCURVE",
"494 585 CURVE SMOOTH",
"494 611 OFFCURVE",
"475 635 OFFCURVE",
"420 635 CURVE SMOOTH",
"355 635 OFFCURVE",
"236 593 OFFCURVE",
"131 472 CURVE SMOOTH",
"100 436 OFFCURVE",
"77 389 OFFCURVE",
"77 348 CURVE SMOOTH",
"77 331 OFFCURVE",
"84 310 OFFCURVE",
"97 310 CURVE SMOOTH",
"109 310 OFFCURVE",
"136 325 OFFCURVE",
"176 338 CURVE",
"145 312 OFFCURVE",
"121 280 OFFCURVE",
"104 244 CURVE",
"97 245 OFFCURVE",
"79 249 OFFCURVE",
"72 249 CURVE SMOOTH",
"56 249 OFFCURVE",
"45 242 OFFCURVE",
"31 222 CURVE SMOOTH",
"21 207 OFFCURVE",
"9 186 OFFCURVE",
"9 173 CURVE SMOOTH",
"9 166 OFFCURVE",
"13 161 OFFCURVE",
"23 161 CURVE SMOOTH",
"36 161 OFFCURVE",
"63 162 OFFCURVE",
"80 163 CURVE",
"79 152 OFFCURVE",
"78 142 OFFCURVE",
"78 131 CURVE SMOOTH",
"78 52 OFFCURVE",
"118 -13 OFFCURVE",
"224 -13 CURVE SMOOTH",
"351 -13 OFFCURVE",
"458 81 OFFCURVE",
"503 191 CURVE",
"524 195 OFFCURVE",
"543 200 OFFCURVE",
"562 205 CURVE",
"563 167 OFFCURVE",
"570 127 OFFCURVE",
"585 88 CURVE SMOOTH",
"631 -34 OFFCURVE",
"717 -63 OFFCURVE",
"753 -63 CURVE SMOOTH"
);
},
{
closed = 1;
nodes = (
"205 90 OFFCURVE",
"173 121 OFFCURVE",
"167 167 CURVE",
"240 170 LINE SMOOTH",
"326 174 OFFCURVE",
"390 178 OFFCURVE",
"428 182 CURVE",
"399 116 OFFCURVE",
"320 90 OFFCURVE",
"265 90 CURVE SMOOTH"
);
},
{
closed = 1;
nodes = (
"230 233 OFFCURVE",
"200 234 OFFCURVE",
"176 236 CURVE",
"190 278 OFFCURVE",
"222 320 OFFCURVE",
"267 356 CURVE",
"274 357 OFFCURVE",
"282 357 OFFCURVE",
"289 357 CURVE SMOOTH",
"371 357 OFFCURVE",
"439 327 OFFCURVE",
"440 241 CURVE",
"370 235 OFFCURVE",
"312 233 OFFCURVE",
"265 233 CURVE SMOOTH"
);
},
{
closed = 1;
nodes = (
"638 292 LINE SMOOTH",
"638 355 OFFCURVE",
"656 428 OFFCURVE",
"708 428 CURVE SMOOTH",
"735 428 OFFCURVE",
"757 408 OFFCURVE",
"757 383 CURVE SMOOTH",
"757 333 OFFCURVE",
"690 310 OFFCURVE",
"638 286 CURVE"
);
}
);
width = 875;
}
);
leftKerningGroup = knII;
rightKerningGroup = knII;
unicode = 0C88;
},
{
color = 4;
glyphname = knU;
lastChange = "2016-01-01 06:02:10 +0000";
layers = (
{
layerId = "59118767-2CA9-48AA-9373-694D24C960D8";
name = Regular;
paths = (
{
closed = 1;
nodes = (
"929 -14 OFFCURVE",
"1046 180 OFFCURVE",
"1046 365 CURVE SMOOTH",
"1046 429 OFFCURVE",
"1032 492 OFFCURVE",
"994 492 CURVE SMOOTH",
"978 492 OFFCURVE",
"959 482 OFFCURVE",
"934 456 CURVE SMOOTH",
"915 436 OFFCURVE",
"906 421 OFFCURVE",
"906 406 CURVE SMOOTH",
"906 377 OFFCURVE",
"939 337 OFFCURVE",
"939 267 CURVE SMOOTH",
"939 195 OFFCURVE",
"905 83 OFFCURVE",
"800 83 CURVE SMOOTH",
"738 83 OFFCURVE",
"717 122 OFFCURVE",
"717 172 CURVE SMOOTH",
"717 261 OFFCURVE",
"781 348 OFFCURVE",
"781 436 CURVE SMOOTH",
"781 485 OFFCURVE",
"760 523 OFFCURVE",
"692 523 CURVE SMOOTH",
"568 523 OFFCURVE",
"507 372 OFFCURVE",
"448 250 CURVE SMOOTH",
"393 137 OFFCURVE",
"330 80 OFFCURVE",
"245 80 CURVE SMOOTH",
"178 80 OFFCURVE",
"126 131 OFFCURVE",
"126 207 CURVE SMOOTH",
"126 257 OFFCURVE",
"147 312 OFFCURVE",
"182 346 CURVE SMOOTH",
"202 366 OFFCURVE",
"227 381 OFFCURVE",
"255 381 CURVE SMOOTH",
"290 381 OFFCURVE",
"309 356 OFFCURVE",
"309 331 CURVE SMOOTH",
"309 303 OFFCURVE",
"285 268 OFFCURVE",
"235 251 CURVE SMOOTH",
"221 246 OFFCURVE",
"207 235 OFFCURVE",
"207 221 CURVE SMOOTH",
"207 216 OFFCURVE",
"209 210 OFFCURVE",
"214 204 CURVE SMOOTH",
"221 195 OFFCURVE",
"233 190 OFFCURVE",
"248 190 CURVE SMOOTH",
"309 190 OFFCURVE",
"416 263 OFFCURVE",
"416 354 CURVE SMOOTH",
"416 416 OFFCURVE",
"372 460 OFFCURVE",
"301 460 CURVE SMOOTH",
"151 460 OFFCURVE",
"29 304 OFFCURVE",
"29 154 CURVE SMOOTH",
"29 56 OFFCURVE",
"98 -13 OFFCURVE",
"190 -13 CURVE SMOOTH",
"347 -13 OFFCURVE",
"442 86 OFFCURVE",
"509 213 CURVE SMOOTH",
"569 321 OFFCURVE",
"593 427 OFFCURVE",
"649 427 CURVE SMOOTH",
"670 427 OFFCURVE",
"678 413 OFFCURVE",
"678 388 CURVE SMOOTH",
"678 320 OFFCURVE",
"620 218 OFFCURVE",
"620 121 CURVE SMOOTH",
"620 52 OFFCURVE",
"650 -14 OFFCURVE",
"753 -14 CURVE SMOOTH"
);
}
);
width = 1079;
}
);
leftKerningGroup = knLA;
leftMetricsKey = knLA;
rightKerningGroup = knLA;
rightMetricsKey = knLA;
unicode = 0C89;
},
{
color = 4;
glyphname = knUU;
lastChange = "2016-01-01 06:02:12 +0000";
layers = (
{
layerId = "59118767-2CA9-48AA-9373-694D24C960D8";
name = Regular;
paths = (
{
closed = 1;
nodes = (
"716 -54 OFFCURVE",
"793 54 OFFCURVE",
"867 161 CURVE SMOOTH",
"946 275 OFFCURVE",
"998 363 OFFCURVE",
"1087 363 CURVE SMOOTH",
"1176 363 OFFCURVE",
"1232 285 OFFCURVE",
"1232 209 CURVE SMOOTH",
"1232 178 OFFCURVE",
"1223 149 OFFCURVE",
"1204 125 CURVE",
"1205 132 OFFCURVE",
"1205 139 OFFCURVE",
"1205 146 CURVE SMOOTH",
"1205 205 OFFCURVE",
"1171 263 OFFCURVE",
"1106 263 CURVE SMOOTH",
"1013 263 OFFCURVE",
"948 167 OFFCURVE",
"948 87 CURVE SMOOTH",
"948 31 OFFCURVE",
"980 -18 OFFCURVE",
"1055 -18 CURVE SMOOTH",
"1187 -18 OFFCURVE",
"1300 109 OFFCURVE",
"1300 257 CURVE SMOOTH",
"1300 370 OFFCURVE",
"1247 463 OFFCURVE",
"1131 463 CURVE SMOOTH",
"1002 463 OFFCURVE",
"905 349 OFFCURVE",
"812 210 CURVE SMOOTH",
"751 120 OFFCURVE",
"720 55 OFFCURVE",
"663 55 CURVE SMOOTH",
"639 55 OFFCURVE",
"627 66 OFFCURVE",
"627 92 CURVE SMOOTH",
"627 136 OFFCURVE",
"660 189 OFFCURVE",
"695 246 CURVE SMOOTH",
"735 309 OFFCURVE",
"776 376 OFFCURVE",
"776 437 CURVE SMOOTH",
"776 488 OFFCURVE",
"748 523 OFFCURVE",
"693 523 CURVE SMOOTH",
"573 523 OFFCURVE",
"504 367 OFFCURVE",
"450 252 CURVE SMOOTH",
"391 141 OFFCURVE",
"331 80 OFFCURVE",
"245 80 CURVE SMOOTH",
"178 80 OFFCURVE",
"126 131 OFFCURVE",
"126 207 CURVE SMOOTH",
"126 288 OFFCURVE",
"185 381 OFFCURVE",
"255 381 CURVE SMOOTH",
"290 381 OFFCURVE",
"309 356 OFFCURVE",
"309 331 CURVE SMOOTH",
"309 303 OFFCURVE",
"285 268 OFFCURVE",
"235 251 CURVE SMOOTH",
"221 246 OFFCURVE",
"207 235 OFFCURVE",
"207 221 CURVE SMOOTH",
"207 216 OFFCURVE",
"209 210 OFFCURVE",
"214 204 CURVE SMOOTH",
"221 195 OFFCURVE",
"233 190 OFFCURVE",
"248 190 CURVE SMOOTH",
"309 190 OFFCURVE",
"416 263 OFFCURVE",
"416 354 CURVE SMOOTH",
"416 416 OFFCURVE",
"372 460 OFFCURVE",
"301 460 CURVE SMOOTH",
"151 460 OFFCURVE",
"29 304 OFFCURVE",
"29 154 CURVE SMOOTH",
"29 56 OFFCURVE",
"98 -13 OFFCURVE",
"190 -13 CURVE SMOOTH",
"356 -13 OFFCURVE",
"453 98 OFFCURVE",
"520 236 CURVE SMOOTH",
"568 333 OFFCURVE",
"598 427 OFFCURVE",
"649 427 CURVE SMOOTH",
"668 427 OFFCURVE",
"676 414 OFFCURVE",
"676 391 CURVE SMOOTH",
"676 341 OFFCURVE",
"637 278 OFFCURVE",
"598 215 CURVE SMOOTH",
"558 151 OFFCURVE",
"517 85 OFFCURVE",
"517 31 CURVE SMOOTH",
"517 -18 OFFCURVE",
"551 -54 OFFCURVE",
"611 -54 CURVE SMOOTH"
);
},
{
closed = 1;
nodes = (
"1045 72 OFFCURVE",
"1020 105 OFFCURVE",
"1020 131 CURVE SMOOTH",
"1020 152 OFFCURVE",
"1036 170 OFFCURVE",
"1067 170 CURVE SMOOTH",
"1113 170 OFFCURVE",
"1151 135 OFFCURVE",
"1151 78 CURVE",
"1138 74 OFFCURVE",
"1122 72 OFFCURVE",
"1105 72 CURVE SMOOTH"
);
}
);
width = 1330;
}
);
leftKerningGroup = knLA;
leftMetricsKey = knLA;
rightKerningGroup = knUU;
unicode = 0C8A;
},
{
color = 4;
glyphname = knvR;
lastChange = "2016-01-01 06:02:11 +0000";
layers = (
{
layerId = "59118767-2CA9-48AA-9373-694D24C960D8";
name = Regular;
paths = (
{
closed = 1;
nodes = (
"215 -136 OFFCURVE",
"295 -75 OFFCURVE",
"350 13 CURVE",
"369 -4 OFFCURVE",
"396 -13 OFFCURVE",
"441 -13 CURVE SMOOTH",
"489 -13 OFFCURVE",
"545 12 OFFCURVE",
"592 55 CURVE",
"625 2 OFFCURVE",
"688 -12 OFFCURVE",
"733 -12 CURVE SMOOTH",
"865 -12 OFFCURVE",
"992 103 OFFCURVE",
"992 267 CURVE SMOOTH",
"992 377 OFFCURVE",
"939 464 OFFCURVE",
"882 464 CURVE SMOOTH",
"846 464 OFFCURVE",
"807 412 OFFCURVE",
"807 379 CURVE SMOOTH",
"807 365 OFFCURVE",
"814 359 OFFCURVE",
"820 355 CURVE SMOOTH",
"858 330 OFFCURVE",
"908 292 OFFCURVE",
"908 211 CURVE SMOOTH",
"908 117 OFFCURVE",
"842 85 OFFCURVE",
"776 85 CURVE SMOOTH",
"733 85 OFFCURVE",
"685 100 OFFCURVE",
"665 147 CURVE",
"690 193 OFFCURVE",
"706 245 OFFCURVE",
"706 301 CURVE SMOOTH",
"706 404 OFFCURVE",
"626 456 OFFCURVE",
"548 450 CURVE",
"592 500 OFFCURVE",
"652 539 OFFCURVE",
"712 539 CURVE SMOOTH",
"732 539 OFFCURVE",
"752 534 OFFCURVE",
"764 526 CURVE SMOOTH",
"778 516 OFFCURVE",
"783 506 OFFCURVE",
"792 506 CURVE SMOOTH",
"826 506 OFFCURVE",
"868 549 OFFCURVE",
"868 585 CURVE SMOOTH",
"868 611 OFFCURVE",
"849 635 OFFCURVE",
"794 635 CURVE SMOOTH",
"729 635 OFFCURVE",
"610 593 OFFCURVE",
"505 472 CURVE SMOOTH",
"484 449 OFFCURVE",
"457 405 OFFCURVE",
"457 374 CURVE SMOOTH",
"457 359 OFFCURVE",
"463 347 OFFCURVE",
"475 348 CURVE SMOOTH",
"483 349 OFFCURVE",
"492 350 OFFCURVE",
"501 350 CURVE SMOOTH",
"556 350 OFFCURVE",
"618 328 OFFCURVE",
"618 235 CURVE SMOOTH",
"618 141 OFFCURVE",
"537 82 OFFCURVE",
"480 82 CURVE SMOOTH",
"440 82 OFFCURVE",
"413 91 OFFCURVE",
"394 106 CURVE",
"412 155 OFFCURVE",
"422 208 OFFCURVE",
"422 261 CURVE SMOOTH",
"422 373 OFFCURVE",
"370 463 OFFCURVE",
"259 463 CURVE SMOOTH",
"148 463 OFFCURVE",
"43 373 OFFCURVE",
"43 250 CURVE SMOOTH",
"43 177 OFFCURVE",
"80 151 OFFCURVE",
"124 151 CURVE SMOOTH",
"193 151 OFFCURVE",
"280 214 OFFCURVE",
"280 316 CURVE SMOOTH",
"280 329 OFFCURVE",
"279 342 OFFCURVE",
"275 356 CURVE",
"330 328 OFFCURVE",
"355 271 OFFCURVE",
"355 208 CURVE SMOOTH",
"355 158 OFFCURVE",
"339 104 OFFCURVE",
"311 60 CURVE",
"307 100 OFFCURVE",
"266 134 OFFCURVE",
"226 134 CURVE SMOOTH",
"127 134 OFFCURVE",
"27 57 OFFCURVE",
"27 -55 CURVE SMOOTH",
"27 -102 OFFCURVE",
"60 -136 OFFCURVE",
"131 -136 CURVE SMOOTH"
);
},
{
closed = 1;
nodes = (
"122 -37 OFFCURVE",
"107 -18 OFFCURVE",
"107 4 CURVE SMOOTH",
"107 29 OFFCURVE",
"129 58 OFFCURVE",
"167 58 CURVE SMOOTH",
"202 58 OFFCURVE",
"242 30 OFFCURVE",
"248 -7 CURVE",
"221 -26 OFFCURVE",
"190 -37 OFFCURVE",
"156 -37 CURVE SMOOTH"
);
},
{
closed = 1;
nodes = (
"141 225 OFFCURVE",
"110 252 OFFCURVE",
"110 300 CURVE SMOOTH",
"111 348 OFFCURVE",
"138 373 OFFCURVE",
"165 373 CURVE SMOOTH",
"193 373 OFFCURVE",
"221 346 OFFCURVE",
"221 295 CURVE SMOOTH",
"221 247 OFFCURVE",
"197 225 OFFCURVE",
"170 225 CURVE SMOOTH"
);
}
);
width = 1022;
}
);
leftKerningGroup = knKHA;
leftMetricsKey = knKHA;
rightKerningGroup = knJHA;
rightMetricsKey = knJHA;
unicode = 0C8B;
},
{
color = 4;
glyphname = knvRR;
lastChange = "2016-01-01 06:02:11 +0000";
layers = (
{
layerId = "59118767-2CA9-48AA-9373-694D24C960D8";
name = Regular;
paths = (
{
closed = 1;
nodes = (
"215 -136 OFFCURVE",
"295 -75 OFFCURVE",
"350 13 CURVE",
"369 -4 OFFCURVE",
"396 -13 OFFCURVE",
"441 -13 CURVE SMOOTH",
"485 -13 OFFCURVE",
"534 7 OFFCURVE",
"578 43 CURVE",
"599 5 OFFCURVE",
"640 -14 OFFCURVE",
"686 -14 CURVE SMOOTH",
"794 -14 OFFCURVE",
"846 87 OFFCURVE",
"907 197 CURVE SMOOTH",
"960 292 OFFCURVE",
"1006 363 OFFCURVE",
"1085 363 CURVE SMOOTH",
"1149 363 OFFCURVE",
"1229 317 OFFCURVE",
"1229 200 CURVE SMOOTH",
"1229 167 OFFCURVE",
"1218 127 OFFCURVE",
"1187 100 CURVE",
"1192 115 OFFCURVE",
"1194 131 OFFCURVE",
"1194 146 CURVE SMOOTH",
"1194 206 OFFCURVE",
"1160 263 OFFCURVE",
"1094 263 CURVE SMOOTH",
"1001 263 OFFCURVE",
"936 167 OFFCURVE",
"936 87 CURVE SMOOTH",
"936 31 OFFCURVE",
"968 -18 OFFCURVE",
"1043 -18 CURVE SMOOTH",
"1053 -18 LINE SMOOTH",
"1151 -18 OFFCURVE",
"1298 83 OFFCURVE",
"1298 257 CURVE SMOOTH",
"1298 370 OFFCURVE",
"1245 463 OFFCURVE",
"1129 463 CURVE SMOOTH",
"1008 463 OFFCURVE",
"919 361 OFFCURVE",
"853 237 CURVE SMOOTH",
"802 141 OFFCURVE",
"781 89 OFFCURVE",
"711 89 CURVE SMOOTH",
"687 89 OFFCURVE",
"662 102 OFFCURVE",
"647 120 CURVE",
"688 184 OFFCURVE",
"706 231 OFFCURVE",
"706 301 CURVE SMOOTH",
"706 404 OFFCURVE",
"626 456 OFFCURVE",
"548 450 CURVE",
"592 500 OFFCURVE",
"652 539 OFFCURVE",
"712 539 CURVE SMOOTH",
"732 539 OFFCURVE",
"752 534 OFFCURVE",
"764 526 CURVE SMOOTH",
"778 516 OFFCURVE",
"783 506 OFFCURVE",
"792 506 CURVE SMOOTH",
"826 506 OFFCURVE",
"868 549 OFFCURVE",
"868 585 CURVE SMOOTH",
"868 611 OFFCURVE",
"849 635 OFFCURVE",
"794 635 CURVE SMOOTH",
"729 635 OFFCURVE",
"610 593 OFFCURVE",
"505 472 CURVE SMOOTH",
"484 449 OFFCURVE",
"457 405 OFFCURVE",
"457 374 CURVE SMOOTH",
"457 359 OFFCURVE",
"463 347 OFFCURVE",
"475 348 CURVE SMOOTH",
"483 349 OFFCURVE",
"492 350 OFFCURVE",
"501 350 CURVE SMOOTH",
"556 350 OFFCURVE",
"618 328 OFFCURVE",
"618 235 CURVE SMOOTH",
"618 141 OFFCURVE",
"537 82 OFFCURVE",
"480 82 CURVE SMOOTH",
"440 82 OFFCURVE",
"413 91 OFFCURVE",
"394 106 CURVE",
"412 155 OFFCURVE",
"422 208 OFFCURVE",
"422 261 CURVE SMOOTH",
"422 373 OFFCURVE",
"370 463 OFFCURVE",
"259 463 CURVE SMOOTH",
"148 463 OFFCURVE",
"43 373 OFFCURVE",
"43 250 CURVE SMOOTH",
"43 177 OFFCURVE",
"80 151 OFFCURVE",
"124 151 CURVE SMOOTH",
"193 151 OFFCURVE",
"280 214 OFFCURVE",
"280 316 CURVE SMOOTH",
"280 329 OFFCURVE",
"279 342 OFFCURVE",
"275 356 CURVE",
"330 328 OFFCURVE",
"355 271 OFFCURVE",
"355 208 CURVE SMOOTH",
"355 158 OFFCURVE",
"339 104 OFFCURVE",
"311 60 CURVE",
"307 100 OFFCURVE",
"266 134 OFFCURVE",
"226 134 CURVE SMOOTH",
"127 134 OFFCURVE",
"27 57 OFFCURVE",
"27 -55 CURVE SMOOTH",
"27 -102 OFFCURVE",
"60 -136 OFFCURVE",
"131 -136 CURVE SMOOTH"
);
},
{
closed = 1;
nodes = (
"122 -37 OFFCURVE",
"107 -18 OFFCURVE",
"107 4 CURVE SMOOTH",
"107 29 OFFCURVE",
"129 58 OFFCURVE",
"167 58 CURVE SMOOTH",
"202 58 OFFCURVE",
"242 30 OFFCURVE",
"248 -7 CURVE",
"221 -26 OFFCURVE",
"190 -37 OFFCURVE",
"156 -37 CURVE SMOOTH"
);
},
{
closed = 1;
nodes = (
"141 225 OFFCURVE",
"110 252 OFFCURVE",
"110 300 CURVE SMOOTH",
"111 348 OFFCURVE",
"138 373 OFFCURVE",
"165 373 CURVE SMOOTH",
"193 373 OFFCURVE",
"221 346 OFFCURVE",
"221 295 CURVE SMOOTH",
"221 247 OFFCURVE",
"197 225 OFFCURVE",
"170 225 CURVE SMOOTH"
);
},
{
closed = 1;
nodes = (
"1033 72 OFFCURVE",
"1008 105 OFFCURVE",
"1008 131 CURVE SMOOTH",
"1008 152 OFFCURVE",
"1024 170 OFFCURVE",
"1055 170 CURVE SMOOTH",
"1094 170 OFFCURVE",
"1139 140 OFFCURVE",
"1139 82 CURVE SMOOTH",
"1139 76 LINE",
"1128 73 OFFCURVE",
"1116 72 OFFCURVE",
"1093 72 CURVE SMOOTH"
);
}
);
width = 1328;
}
);
leftKerningGroup = knKHA;
leftMetricsKey = knKHA;
rightKerningGroup = knUU;
rightMetricsKey = knUU;
unicode = 0CE0;
},
{
color = 4;
glyphname = knvL;
lastChange = "2016-01-01 06:02:10 +0000";
layers = (
{
background = {
paths = (
{
closed = 1;
nodes = (
"554 333 OFFCURVE",
"554 390 CURVE SMOOTH",
"554 452 OFFCURVE",
"523 501 OFFCURVE",
"455 501 CURVE SMOOTH",
"406 501 OFFCURVE",
"343 472 OFFCURVE",
"297 414 CURVE",
"270 450 OFFCURVE",
"231 466 OFFCURVE",
"193 466 CURVE SMOOTH",
"97 466 OFFCURVE",
"14 365 OFFCURVE",
"14 326 CURVE SMOOTH",
"14 308 OFFCURVE",
"32 297 OFFCURVE",
"46 297 CURVE SMOOTH",
"60 297 OFFCURVE",
"62 303 OFFCURVE",
"72 316 CURVE SMOOTH",
"95 347 OFFCURVE",
"113 368 OFFCURVE",
"155 368 CURVE SMOOTH",
"174 368 OFFCURVE",
"191 363 OFFCURVE",
"203 351 CURVE SMOOTH",
"231 323 OFFCURVE",
"217 283 OFFCURVE",
"251 283 CURVE SMOOTH",
"260 283 OFFCURVE",
"270 287 OFFCURVE",
"281 300 CURVE SMOOTH",
"309 334 OFFCURVE",
"343 398 OFFCURVE",
"402 398 CURVE SMOOTH",
"436 398 OFFCURVE",
"463 377 OFFCURVE",
"463 337 CURVE SMOOTH",
"463 309 OFFCURVE",
"449 269 OFFCURVE",
"426 232 CURVE",
"386 244 OFFCURVE",
"342 251 OFFCURVE",
"299 251 CURVE SMOOTH",
"140 251 OFFCURVE",
"34 161 OFFCURVE",
"34 79 CURVE SMOOTH",
"34 20 OFFCURVE",
"88 -11 OFFCURVE",
"161 -11 CURVE SMOOTH",
"248 -11 OFFCURVE",
"364 32 OFFCURVE",
"436 106 CURVE",
"459 79 OFFCURVE",
"478 44 OFFCURVE",
"489 -2 CURVE",
"490 -7 OFFCURVE",
"492 -13 OFFCURVE",
"503 -13 CURVE SMOOTH",
"518 -13 OFFCURVE",
"542 -1 OFFCURVE",
"558 13 CURVE SMOOTH",
"578 31 OFFCURVE",
"587 52 OFFCURVE",
"587 78 CURVE SMOOTH",
"587 133 OFFCURVE",
"545 178 OFFCURVE",
"485 209 CURVE",
"527 265 OFFCURVE"
);
},
{
closed = 1;
nodes = (
"129 157 OFFCURVE",
"186 188 OFFCURVE",
"256 188 CURVE SMOOTH",
"296 188 OFFCURVE",
"346 178 OFFCURVE",
"391 147 CURVE",
"339 106 OFFCURVE",
"256 78 OFFCURVE",
"199 78 CURVE SMOOTH",
"157 78 OFFCURVE",
"129 93 OFFCURVE",
"129 119 CURVE SMOOTH"
);
}
);
};
layerId = "59118767-2CA9-48AA-9373-694D24C960D8";
name = Regular;
paths = (
{
closed = 1;
nodes = (
"533 -53 OFFCURVE",
"771 109 OFFCURVE",
"771 366 CURVE SMOOTH",
"771 498 OFFCURVE",
"720 613 OFFCURVE",
"643 613 CURVE SMOOTH",
"606 613 OFFCURVE",
"570 551 OFFCURVE",
"570 529 CURVE SMOOTH",
"570 516 OFFCURVE",
"576 511 OFFCURVE",
"587 506 CURVE SMOOTH",
"644 479 OFFCURVE",
"681 408 OFFCURVE",
"681 308 CURVE SMOOTH",
"681 145 OFFCURVE",
"523 37 OFFCURVE",
"318 37 CURVE SMOOTH",
"244 37 OFFCURVE",
"206 51 OFFCURVE",
"206 85 CURVE SMOOTH",
"206 119 OFFCURVE",
"245 141 OFFCURVE",
"309 159 CURVE SMOOTH",
"431 194 OFFCURVE",
"556 256 OFFCURVE",
"556 392 CURVE SMOOTH",
"556 451 OFFCURVE",
"523 501 OFFCURVE",
"456 501 CURVE SMOOTH",
"407 501 OFFCURVE",
"344 472 OFFCURVE",
"298 414 CURVE",
"270 450 OFFCURVE",
"232 466 OFFCURVE",
"194 466 CURVE SMOOTH",
"98 466 OFFCURVE",
"15 365 OFFCURVE",
"15 326 CURVE SMOOTH",
"15 308 OFFCURVE",
"33 297 OFFCURVE",
"47 297 CURVE SMOOTH",
"55 297 OFFCURVE",
"61 300 OFFCURVE",
"64 304 CURVE SMOOTH",
"76 320 OFFCURVE",
"85 333 OFFCURVE",
"94 343 CURVE SMOOTH",
"111 360 OFFCURVE",
"134 369 OFFCURVE",
"155 369 CURVE SMOOTH",
"182 369 OFFCURVE",
"207 356 OFFCURVE",
"217 330 CURVE SMOOTH",
"226 307 OFFCURVE",
"229 282 OFFCURVE",
"251 282 CURVE SMOOTH",
"260 282 OFFCURVE",
"271 287 OFFCURVE",
"282 300 CURVE SMOOTH",
"310 334 OFFCURVE",
"344 398 OFFCURVE",
"403 398 CURVE SMOOTH",
"437 398 OFFCURVE",
"464 376 OFFCURVE",
"464 339 CURVE SMOOTH",
"464 279 OFFCURVE",
"396 256 OFFCURVE",
"320 231 CURVE SMOOTH",
"215 197 OFFCURVE",
"104 163 OFFCURVE",
"104 61 CURVE SMOOTH",
"104 -17 OFFCURVE",
"169 -53 OFFCURVE",
"288 -53 CURVE SMOOTH"
);
}
);
width = 786;
}
);
leftKerningGroup = knI;
rightKerningGroup = knvL;
unicode = 0C8C;
},
{
color = 4;
glyphname = knE;
lastChange = "2016-01-01 06:02:11 +0000";
layers = (
{
layerId = "59118767-2CA9-48AA-9373-694D24C960D8";
name = Regular;
paths = (
{
closed = 1;
nodes = (
"194 -50 OFFCURVE",
"272 1 OFFCURVE",
"324 51 CURVE",
"343 8 OFFCURVE",
"382 -13 OFFCURVE",
"419 -13 CURVE SMOOTH",
"548 -13 OFFCURVE",
"639 110 OFFCURVE",
"639 249 CURVE SMOOTH",
"639 443 OFFCURVE",
"513 525 OFFCURVE",
"348 525 CURVE SMOOTH",
"281 525 OFFCURVE",
"204 507 OFFCURVE",
"131 467 CURVE SMOOTH",
"97 446 OFFCURVE",
"88 438 OFFCURVE",
"88 415 CURVE SMOOTH",
"88 392 OFFCURVE",
"104 370 OFFCURVE",
"125 370 CURVE SMOOTH",
"146 370 OFFCURVE",
"192 422 OFFCURVE",
"301 422 CURVE SMOOTH",
"415 422 OFFCURVE",
"563 370 OFFCURVE",
"563 197 CURVE SMOOTH",
"563 130 OFFCURVE",
"535 83 OFFCURVE",
"481 83 CURVE SMOOTH",
"444 83 OFFCURVE",
"403 104 OFFCURVE",
"387 153 CURVE SMOOTH",
"384 163 OFFCURVE",
"379 173 OFFCURVE",
"368 173 CURVE SMOOTH",
"355 173 OFFCURVE",
"346 162 OFFCURVE",
"338 152 CURVE SMOOTH",
"316 124 OFFCURVE",
"291 91 OFFCURVE",
"256 68 CURVE",
"261 88 OFFCURVE",
"263 106 OFFCURVE",
"263 123 CURVE SMOOTH",
"263 197 OFFCURVE",
"224 231 OFFCURVE",
"168 231 CURVE SMOOTH",
"75 231 OFFCURVE",
"10 135 OFFCURVE",
"10 55 CURVE SMOOTH",
"10 -1 OFFCURVE",
"42 -50 OFFCURVE",
"117 -50 CURVE SMOOTH"
);
},
{
closed = 1;
nodes = (
"107 40 OFFCURVE",
"82 73 OFFCURVE",
"82 99 CURVE SMOOTH",
"82 120 OFFCURVE",
"98 138 OFFCURVE",
"129 138 CURVE SMOOTH",
"175 138 OFFCURVE",
"213 103 OFFCURVE",
"213 47 CURVE",
"199 42 OFFCURVE",
"184 40 OFFCURVE",
"167 40 CURVE SMOOTH"
);
}
);
width = 676;
}
);
leftKerningGroup = knVA;
rightKerningGroup = knDA;
rightMetricsKey = knDA;
unicode = 0C8E;
},
{
color = 4;
glyphname = knEE;
lastChange = "2016-01-01 06:02:12 +0000";
layers = (
{
background = {
paths = (
{
closed = 1;
nodes = (
"304 426 CURVE SMOOTH",
"269 425 OFFCURVE",
"237 426 OFFCURVE",
"220 439 CURVE SMOOTH",
"210 446 OFFCURVE",
"204 457 OFFCURVE",
"204 474 CURVE SMOOTH",
"204 493 OFFCURVE",
"220 520 OFFCURVE",
"245 538 CURVE SMOOTH",
"272 557 OFFCURVE",
"305 567 OFFCURVE",
"346 567 CURVE SMOOTH",
"383 567 OFFCURVE",
"412 582 OFFCURVE",
"435 615 CURVE",
"444 629 OFFCURVE",
"449 640 OFFCURVE",
"449 650 CURVE SMOOTH",
"449 666 OFFCURVE",
"435 675 OFFCURVE",
"405 675 CURVE SMOOTH",
"261 675 OFFCURVE",
"112 523 OFFCURVE",
"112 418 CURVE SMOOTH",
"112 382 OFFCURVE",
"125 360 OFFCURVE",
"146 346 CURVE SMOOTH",
"173 329 OFFCURVE",
"193 328 OFFCURVE",
"266 327 CURVE SMOOTH",
"391 325 OFFCURVE",
"547 273 OFFCURVE",
"547 151 CURVE SMOOTH",
"547 115 OFFCURVE",
"515 83 OFFCURVE",
"471 83 CURVE SMOOTH",
"434 83 OFFCURVE",
"395 103 OFFCURVE",
"377 153 CURVE SMOOTH",
"373 163 OFFCURVE",
"369 173 OFFCURVE",
"358 173 CURVE SMOOTH",
"345 173 OFFCURVE",
"336 162 OFFCURVE",
"328 152 CURVE SMOOTH",
"306 124 OFFCURVE",
"281 91 OFFCURVE",
"246 68 CURVE",
"251 88 OFFCURVE",
"253 106 OFFCURVE",
"253 123 CURVE SMOOTH",
"253 197 OFFCURVE",
"214 231 OFFCURVE",
"158 231 CURVE SMOOTH",
"65 231 OFFCURVE",
"0 135 OFFCURVE",
"0 55 CURVE SMOOTH",
"0 -1 OFFCURVE",
"32 -50 OFFCURVE",
"107 -50 CURVE SMOOTH",
"184 -50 OFFCURVE",
"262 1 OFFCURVE",
"314 51 CURVE",
"333 8 OFFCURVE",
"372 -13 OFFCURVE",
"409 -13 CURVE SMOOTH",
"544 -13 OFFCURVE",
"628 107 OFFCURVE",
"628 217 CURVE SMOOTH",
"628 350 OFFCURVE",
"510 424 OFFCURVE"
);
},
{
closed = 1;
nodes = (
"72 120 OFFCURVE",
"88 138 OFFCURVE",
"119 138 CURVE SMOOTH",
"165 138 OFFCURVE",
"203 103 OFFCURVE",
"203 47 CURVE",
"189 42 OFFCURVE",
"174 40 OFFCURVE",
"157 40 CURVE SMOOTH",
"97 40 OFFCURVE",
"72 73 OFFCURVE",
"72 99 CURVE SMOOTH"
);
}
);
};
layerId = "59118767-2CA9-48AA-9373-694D24C960D8";
name = Regular;
paths = (
{
closed = 1;
nodes = (
"184 -50 OFFCURVE",
"262 1 OFFCURVE",
"314 51 CURVE",
"333 8 OFFCURVE",
"372 -13 OFFCURVE",
"409 -13 CURVE SMOOTH",
"544 -13 OFFCURVE",
"628 107 OFFCURVE",
"628 217 CURVE SMOOTH",
"628 299 OFFCURVE",
"583 353 OFFCURVE",
"515 386 CURVE SMOOTH",
"457 414 OFFCURVE",
"380 426 OFFCURVE",
"301 426 CURVE SMOOTH",
"263 426 OFFCURVE",
"239 425 OFFCURVE",
"220 439 CURVE SMOOTH",
"210 446 OFFCURVE",
"204 457 OFFCURVE",
"204 474 CURVE SMOOTH",
"204 493 OFFCURVE",
"220 520 OFFCURVE",
"245 538 CURVE SMOOTH",
"272 557 OFFCURVE",
"305 567 OFFCURVE",
"346 567 CURVE SMOOTH",
"383 567 OFFCURVE",
"412 582 OFFCURVE",
"435 615 CURVE SMOOTH",
"444 629 OFFCURVE",
"449 640 OFFCURVE",
"449 650 CURVE SMOOTH",
"449 666 OFFCURVE",
"435 675 OFFCURVE",
"405 675 CURVE SMOOTH",
"261 675 OFFCURVE",
"112 523 OFFCURVE",
"112 418 CURVE SMOOTH",
"112 382 OFFCURVE",
"125 360 OFFCURVE",
"146 346 CURVE SMOOTH",
"173 329 OFFCURVE",
"193 328 OFFCURVE",
"266 327 CURVE SMOOTH",
"391 325 OFFCURVE",
"547 273 OFFCURVE",
"547 151 CURVE SMOOTH",
"547 115 OFFCURVE",
"515 83 OFFCURVE",
"471 83 CURVE SMOOTH",
"434 83 OFFCURVE",
"395 103 OFFCURVE",
"377 153 CURVE SMOOTH",
"373 163 OFFCURVE",
"369 173 OFFCURVE",
"358 173 CURVE SMOOTH",
"345 173 OFFCURVE",
"336 162 OFFCURVE",
"328 152 CURVE SMOOTH",
"306 124 OFFCURVE",
"281 91 OFFCURVE",
"246 68 CURVE",
"251 88 OFFCURVE",
"253 106 OFFCURVE",
"253 123 CURVE SMOOTH",
"253 197 OFFCURVE",
"214 231 OFFCURVE",
"158 231 CURVE SMOOTH",
"65 231 OFFCURVE",
"0 135 OFFCURVE",
"0 55 CURVE SMOOTH",
"0 -1 OFFCURVE",
"32 -50 OFFCURVE",
"107 -50 CURVE SMOOTH"
);
},
{
closed = 1;
nodes = (
"97 40 OFFCURVE",
"72 73 OFFCURVE",
"72 99 CURVE SMOOTH",
"72 120 OFFCURVE",
"88 138 OFFCURVE",
"119 138 CURVE SMOOTH",
"165 138 OFFCURVE",
"203 103 OFFCURVE",
"203 47 CURVE",
"189 42 OFFCURVE",
"174 40 OFFCURVE",
"157 40 CURVE SMOOTH"
);
}
);
width = 665;
}
);
leftKerningGroup = knEE;
leftMetricsKey = knPA;
rightKerningGroup = knDA;
rightMetricsKey = knDA;
unicode = 0C8F;
},
{
color = 4;
glyphname = knAI;
lastChange = "2016-01-01 06:02:12 +0000";
layers = (
{
guideLines = (
{
position = "{664, 417}";
}
);
layerId = "59118767-2CA9-48AA-9373-694D24C960D8";
name = Regular;
paths = (
{
closed = 1;
nodes = (
"192 -50 OFFCURVE",
"267 -2 OFFCURVE",
"319 46 CURVE",
"345 11 OFFCURVE",
"385 -12 OFFCURVE",
"449 -12 CURVE SMOOTH",
"607 -12 OFFCURVE",
"702 171 OFFCURVE",
"702 322 CURVE SMOOTH",
"702 430 OFFCURVE",
"650 522 OFFCURVE",
"556 522 CURVE SMOOTH",
"504 522 OFFCURVE",
"446 493 OFFCURVE",
"395 434 CURVE",
"363 467 OFFCURVE",
"319 486 OFFCURVE",
"279 486 CURVE SMOOTH",
"230 486 OFFCURVE",
"174 472 OFFCURVE",
"131 442 CURVE SMOOTH",
"102 423 OFFCURVE",
"69 381 OFFCURVE",
"69 352 CURVE SMOOTH",
"69 336 OFFCURVE",
"82 323 OFFCURVE",
"98 323 CURVE SMOOTH",
"106 323 OFFCURVE",
"116 327 OFFCURVE",
"124 340 CURVE SMOOTH",
"145 372 OFFCURVE",
"175 392 OFFCURVE",
"222 392 CURVE SMOOTH",
"296 392 OFFCURVE",
"305 330 OFFCURVE",
"334 330 CURVE SMOOTH",
"343 330 OFFCURVE",
"354 337 OFFCURVE",
"369 352 CURVE SMOOTH",
"411 394 OFFCURVE",
"438 424 OFFCURVE",
"496 424 CURVE SMOOTH",
"580 424 OFFCURVE",
"621 322 OFFCURVE",
"621 258 CURVE SMOOTH",
"621 161 OFFCURVE",
"573 93 OFFCURVE",
"479 93 CURVE SMOOTH",
"437 93 OFFCURVE",
"402 112 OFFCURVE",
"387 153 CURVE SMOOTH",
"383 163 OFFCURVE",
"379 173 OFFCURVE",
"368 173 CURVE SMOOTH",
"355 173 OFFCURVE",
"346 162 OFFCURVE",
"338 152 CURVE SMOOTH",
"316 124 OFFCURVE",
"291 91 OFFCURVE",
"256 68 CURVE",
"261 88 OFFCURVE",
"263 106 OFFCURVE",
"263 123 CURVE SMOOTH",
"263 197 OFFCURVE",
"224 231 OFFCURVE",
"168 231 CURVE SMOOTH",
"75 231 OFFCURVE",
"10 135 OFFCURVE",
"10 55 CURVE SMOOTH",
"10 -1 OFFCURVE",
"42 -50 OFFCURVE",
"117 -50 CURVE SMOOTH"
);
},
{
closed = 1;
nodes = (
"107 40 OFFCURVE",
"82 73 OFFCURVE",
"82 99 CURVE SMOOTH",
"82 120 OFFCURVE",
"98 138 OFFCURVE",
"129 138 CURVE SMOOTH",
"168 138 OFFCURVE",
"213 108 OFFCURVE",
"213 50 CURVE SMOOTH",
"213 47 LINE",
"199 42 OFFCURVE",
"184 40 OFFCURVE",
"167 40 CURVE SMOOTH"
);
}
);
width = 739;
}
);
leftKerningGroup = knAI;
rightKerningGroup = knAI;
rightMetricsKey = knHA;
unicode = 0C90;
},
{
color = 4;
glyphname = knO;
lastChange = "2016-01-01 06:02:12 +0000";
layers = (
{
layerId = "59118767-2CA9-48AA-9373-694D24C960D8";
name = Regular;
paths = (
{
closed = 1;
nodes = (
"193 -50 OFFCURVE",
"257 -21 OFFCURVE",
"317 43 CURVE",
"333 4 OFFCURVE",
"370 -14 OFFCURVE",
"417 -14 CURVE SMOOTH",
"533 -14 OFFCURVE",
"650 97 OFFCURVE",
"650 232 CURVE SMOOTH",
"650 281 OFFCURVE",
"635 312 OFFCURVE",
"607 312 CURVE SMOOTH",
"564 312 OFFCURVE",
"529 235 OFFCURVE",
"529 215 CURVE SMOOTH",
"529 196 OFFCURVE",
"563 188 OFFCURVE",
"563 148 CURVE SMOOTH",
"563 108 OFFCURVE",
"519 83 OFFCURVE",
"476 83 CURVE SMOOTH",
"438 83 OFFCURVE",
"399 103 OFFCURVE",
"385 148 CURVE SMOOTH",
"380 164 OFFCURVE",
"373 173 OFFCURVE",
"362 173 CURVE SMOOTH",
"350 173 OFFCURVE",
"344 167 OFFCURVE",
"325 143 CURVE SMOOTH",
"302 112 OFFCURVE",
"257 54 OFFCURVE",
"211 54 CURVE SMOOTH",
"186 54 OFFCURVE",
"175 70 OFFCURVE",
"175 100 CURVE SMOOTH",
"175 202 OFFCURVE",
"307 290 OFFCURVE",
"307 420 CURVE SMOOTH",
"307 474 OFFCURVE",
"284 523 OFFCURVE",
"217 523 CURVE SMOOTH",
"109 523 OFFCURVE",
"40 405 OFFCURVE",
"40 315 CURVE SMOOTH",
"40 258 OFFCURVE",
"67 212 OFFCURVE",
"127 212 CURVE SMOOTH",
"138 212 OFFCURVE",
"149 213 OFFCURVE",
"159 217 CURVE",
"119 157 OFFCURVE",
"70 93 OFFCURVE",
"70 29 CURVE SMOOTH",
"70 -18 OFFCURVE",
"97 -50 OFFCURVE",
"146 -50 CURVE SMOOTH"
);
},
{
closed = 1;
nodes = (
"132 287 OFFCURVE",
"111 325 OFFCURVE",
"111 363 CURVE SMOOTH",
"111 399 OFFCURVE",
"131 435 OFFCURVE",
"168 435 CURVE SMOOTH",
"193 435 OFFCURVE",
"217 412 OFFCURVE",
"217 361 CURVE SMOOTH",
"217 336 OFFCURVE",
"211 313 OFFCURVE",
"202 292 CURVE",
"193 288 OFFCURVE",
"184 287 OFFCURVE",
"176 287 CURVE SMOOTH"
);
}
);
width = 682;
}
);
leftKerningGroup = knO;
rightKerningGroup = knPA;
rightMetricsKey = knPA;
unicode = 0C92;
},
{
color = 4;
glyphname = knOO;
lastChange = "2016-01-01 06:02:11 +0000";
layers = (
{
layerId = "59118767-2CA9-48AA-9373-694D24C960D8";
name = Regular;
paths = (
{
closed = 1;
nodes = (
"193 -50 OFFCURVE",
"257 -21 OFFCURVE",
"317 43 CURVE",
"333 4 OFFCURVE",
"370 -14 OFFCURVE",
"417 -14 CURVE SMOOTH",
"533 -14 OFFCURVE",
"650 97 OFFCURVE",
"650 232 CURVE SMOOTH",
"650 281 OFFCURVE",
"635 312 OFFCURVE",
"607 312 CURVE SMOOTH",
"564 312 OFFCURVE",
"529 235 OFFCURVE",
"529 215 CURVE SMOOTH",
"529 196 OFFCURVE",
"563 188 OFFCURVE",
"563 148 CURVE SMOOTH",
"563 108 OFFCURVE",
"519 83 OFFCURVE",
"476 83 CURVE SMOOTH",
"438 83 OFFCURVE",
"400 103 OFFCURVE",
"385 148 CURVE SMOOTH",
"380 164 OFFCURVE",
"373 173 OFFCURVE",
"362 173 CURVE SMOOTH",
"350 173 OFFCURVE",
"344 167 OFFCURVE",
"325 143 CURVE SMOOTH",
"302 112 OFFCURVE",
"257 54 OFFCURVE",
"211 54 CURVE SMOOTH",
"186 54 OFFCURVE",
"175 70 OFFCURVE",
"175 100 CURVE SMOOTH",
"175 202 OFFCURVE",
"307 290 OFFCURVE",
"307 420 CURVE SMOOTH",
"307 474 OFFCURVE",
"284 523 OFFCURVE",
"217 523 CURVE SMOOTH",
"109 523 OFFCURVE",
"40 405 OFFCURVE",
"40 315 CURVE SMOOTH",
"40 258 OFFCURVE",
"67 212 OFFCURVE",
"127 212 CURVE SMOOTH",
"138 212 OFFCURVE",
"149 213 OFFCURVE",
"159 217 CURVE",
"119 157 OFFCURVE",
"70 93 OFFCURVE",
"70 29 CURVE SMOOTH",
"70 -18 OFFCURVE",
"97 -50 OFFCURVE",
"146 -50 CURVE SMOOTH"
);
},
{
closed = 1;
nodes = (
"132 287 OFFCURVE",
"111 325 OFFCURVE",
"111 363 CURVE SMOOTH",
"111 399 OFFCURVE",
"131 435 OFFCURVE",
"168 435 CURVE SMOOTH",
"193 435 OFFCURVE",
"217 412 OFFCURVE",
"217 361 CURVE SMOOTH",
"217 336 OFFCURVE",
"211 313 OFFCURVE",
"202 292 CURVE",
"193 288 OFFCURVE",
"184 287 OFFCURVE",
"176 287 CURVE SMOOTH"
);
},
{
closed = 1;
nodes = (
"222 529 OFFCURVE",
"235 538 OFFCURVE",
"253 567 CURVE SMOOTH",
"275 604 OFFCURVE",
"294 635 OFFCURVE",
"294 667 CURVE SMOOTH",
"294 693 OFFCURVE",
"271 720 OFFCURVE",
"247 720 CURVE SMOOTH",
"226 720 OFFCURVE",
"183 698 OFFCURVE",
"183 670 CURVE SMOOTH",
"183 656 OFFCURVE",
"192 582 OFFCURVE",
"199 542 CURVE SMOOTH",
"200 535 OFFCURVE",
"205 529 OFFCURVE",
"212 529 CURVE SMOOTH"
);
}
);
width = 682;
}
);
leftKerningGroup = knO;
leftMetricsKey = knO;
rightKerningGroup = knPA;
rightMetricsKey = knPA;
unicode = 0C93;
},
{
color = 4;
glyphname = knAU;
lastChange = "2016-01-01 06:02:12 +0000";
layers = (
{
layerId = "59118767-2CA9-48AA-9373-694D24C960D8";
name = Regular;
paths = (
{
closed = 1;
nodes = (
"203 -50 OFFCURVE",
"267 -21 OFFCURVE",
"327 43 CURVE",
"343 4 OFFCURVE",
"380 -14 OFFCURVE",
"427 -14 CURVE SMOOTH",
"543 -14 OFFCURVE",
"660 97 OFFCURVE",
"660 232 CURVE SMOOTH",
"660 281 OFFCURVE",
"645 312 OFFCURVE",
"617 312 CURVE SMOOTH",
"574 312 OFFCURVE",
"539 235 OFFCURVE",
"539 215 CURVE SMOOTH",
"539 196 OFFCURVE",
"573 188 OFFCURVE",
"573 148 CURVE SMOOTH",
"573 108 OFFCURVE",
"529 83 OFFCURVE",
"486 83 CURVE SMOOTH",
"446 83 OFFCURVE",
"406 101 OFFCURVE",
"393 148 CURVE SMOOTH",
"389 163 OFFCURVE",
"385 173 OFFCURVE",
"372 173 CURVE SMOOTH",
"360 173 OFFCURVE",
"354 167 OFFCURVE",
"335 143 CURVE SMOOTH",
"312 112 OFFCURVE",
"267 54 OFFCURVE",
"221 54 CURVE SMOOTH",
"196 54 OFFCURVE",
"185 70 OFFCURVE",
"185 100 CURVE SMOOTH",
"185 203 OFFCURVE",
"317 283 OFFCURVE",
"317 430 CURVE",
"361 463 OFFCURVE",
"389 514 OFFCURVE",
"389 568 CURVE SMOOTH",
"389 578 OFFCURVE",
"388 587 OFFCURVE",
"386 596 CURVE",
"412 597 OFFCURVE",
"438 598 OFFCURVE",
"465 598 CURVE SMOOTH",
"492 598 OFFCURVE",
"520 597 OFFCURVE",
"548 596 CURVE",
"522 572 OFFCURVE",
"504 526 OFFCURVE",
"504 482 CURVE SMOOTH",
"504 419 OFFCURVE",
"539 386 OFFCURVE",
"588 386 CURVE SMOOTH",
"667 386 OFFCURVE",
"741 469 OFFCURVE",
"741 572 CURVE SMOOTH",
"741 664 OFFCURVE",
"688 678 OFFCURVE",
"644 683 CURVE SMOOTH",
"603 687 OFFCURVE",
"547 689 OFFCURVE",
"494 689 CURVE SMOOTH",
"402 689 OFFCURVE",
"228 681 OFFCURVE",
"174 672 CURVE SMOOTH",
"151 668 OFFCURVE",
"118 613 OFFCURVE",
"118 591 CURVE SMOOTH",
"118 582 OFFCURVE",
"124 579 OFFCURVE",
"133 579 CURVE SMOOTH",
"143 579 OFFCURVE",
"191 585 OFFCURVE",
"206 587 CURVE SMOOTH",
"229 590 OFFCURVE",
"247 593 OFFCURVE",
"261 593 CURVE SMOOTH",
"279 593 OFFCURVE",
"292 588 OFFCURVE",
"302 578 CURVE SMOOTH",
"312 568 OFFCURVE",
"317 553 OFFCURVE",
"317 538 CURVE SMOOTH",
"317 520 OFFCURVE",
"311 501 OFFCURVE",
"299 488 CURVE",
"285 509 OFFCURVE",
"262 523 OFFCURVE",
"227 523 CURVE SMOOTH",
"119 523 OFFCURVE",
"50 405 OFFCURVE",
"50 315 CURVE SMOOTH",
"50 258 OFFCURVE",
"77 212 OFFCURVE",
"137 212 CURVE SMOOTH",
"148 212 OFFCURVE",
"159 213 OFFCURVE",
"169 217 CURVE",
"129 157 OFFCURVE",
"80 93 OFFCURVE",
"80 29 CURVE SMOOTH",
"80 -18 OFFCURVE",
"107 -50 OFFCURVE",
"156 -50 CURVE SMOOTH"
);
},
{
closed = 1;
nodes = (
"142 287 OFFCURVE",
"121 325 OFFCURVE",
"121 363 CURVE SMOOTH",
"121 399 OFFCURVE",
"141 435 OFFCURVE",
"178 435 CURVE SMOOTH",
"203 435 OFFCURVE",
"227 412 OFFCURVE",
"227 361 CURVE SMOOTH",
"227 336 OFFCURVE",
"221 313 OFFCURVE",
"212 292 CURVE",
"203 288 OFFCURVE",
"194 287 OFFCURVE",
"186 287 CURVE SMOOTH"
);
},
{
closed = 1;
nodes = (
"586 483 OFFCURVE",
"572 502 OFFCURVE",
"572 523 CURVE SMOOTH",
"572 550 OFFCURVE",
"594 582 OFFCURVE",
"630 582 CURVE SMOOTH",
"661 582 OFFCURVE",
"676 562 OFFCURVE",
"676 538 CURVE SMOOTH",
"676 512 OFFCURVE",
"657 483 OFFCURVE",
"618 483 CURVE SMOOTH"
);
}
);
width = 721;
}
);
leftKerningGroup = knO;
rightKerningGroup = knAU;
unicode = 0C94;
},
{
color = 4;
glyphname = knmAA;
lastChange = "2016-01-01 06:02:12 +0000";
layers = (
{
layerId = "59118767-2CA9-48AA-9373-694D24C960D8";
name = Regular;
paths = (
{
closed = 1;
nodes = (
"704 -14 OFFCURVE",
"797 154 OFFCURVE",
"797 305 CURVE SMOOTH",
"797 527 OFFCURVE",
"650 619 OFFCURVE",
"479 619 CURVE SMOOTH",
"311 619 OFFCURVE",
"79 513 OFFCURVE",
"8 348 CURVE SMOOTH",
"4 338 OFFCURVE",
"0 330 OFFCURVE",
"0 323 CURVE SMOOTH",
"0 315 OFFCURVE",
"5 310 OFFCURVE",
"18 305 CURVE SMOOTH",
"23 303 OFFCURVE",
"27 302 OFFCURVE",
"30 302 CURVE SMOOTH",
"41 302 OFFCURVE",
"45 306 OFFCURVE",
"57 335 CURVE SMOOTH",
"111 464 OFFCURVE",
"285 528 OFFCURVE",
"428 528 CURVE SMOOTH",
"565 528 OFFCURVE",
"672 443 OFFCURVE",
"708 327 CURVE",
"582 284 OFFCURVE",
"481 165 OFFCURVE",
"481 80 CURVE SMOOTH",
"481 17 OFFCURVE",
"523 -14 OFFCURVE",
"574 -14 CURVE SMOOTH"
);
},
{
closed = 1;
nodes = (
"599 90 OFFCURVE",
"577 105 OFFCURVE",
"577 136 CURVE SMOOTH",
"577 196 OFFCURVE",
"649 241 OFFCURVE",
"720 239 CURVE",
"719 165 OFFCURVE",
"687 90 OFFCURVE",
"625 90 CURVE SMOOTH"
);
}
);
width = 797;
}
);
unicode = 0CBE;
},
{
color = 4;
glyphname = knmI;
lastChange = "2016-01-01 06:02:12 +0000";
layers = (
{
layerId = "59118767-2CA9-48AA-9373-694D24C960D8";
name = Regular;
paths = (
{
closed = 1;
nodes = (
"327 458 OFFCURVE",
"375 553 OFFCURVE",
"375 638 CURVE SMOOTH",
"375 726 OFFCURVE",
"322 804 OFFCURVE",
"214 804 CURVE SMOOTH",
"105 804 OFFCURVE",
"0 722 OFFCURVE",
"0 607 CURVE SMOOTH",
"0 524 OFFCURVE",
"51 493 OFFCURVE",
"114 493 CURVE SMOOTH",
"200 493 OFFCURVE",
"281 565 OFFCURVE",
"284 674 CURVE",
"297 653 OFFCURVE",
"303 630 OFFCURVE",
"303 606 CURVE SMOOTH",
"303 569 OFFCURVE",
"281 531 OFFCURVE",
"255 498 CURVE SMOOTH",
"236 474 OFFCURVE",
"202 449 OFFCURVE",
"183 440 CURVE",
"233 413 LINE"
);
},
{
closed = 1;
nodes = (
"105 567 OFFCURVE",
"76 586 OFFCURVE",
"76 629 CURVE SMOOTH",
"76 673 OFFCURVE",
"109 722 OFFCURVE",
"166 722 CURVE SMOOTH",
"212 722 OFFCURVE",
"235 695 OFFCURVE",
"235 661 CURVE SMOOTH",
"235 602 OFFCURVE",
"183 567 OFFCURVE",
"138 567 CURVE SMOOTH"
);
}
);
width = 375;
}
);
unicode = 0CBF;
},
{
color = 4;
glyphname = knmII;
lastChange = "2016-01-01 06:02:12 +0000";
layers = (
{
layerId = "59118767-2CA9-48AA-9373-694D24C960D8";
name = Regular;
paths = (
{
closed = 1;
nodes = (
"679 -50 OFFCURVE",
"792 78 OFFCURVE",
"792 107 CURVE SMOOTH",
"792 120 OFFCURVE",
"784 132 OFFCURVE",
"769 132 CURVE SMOOTH",
"765 132 OFFCURVE",
"760 131 OFFCURVE",
"752 123 CURVE SMOOTH",
"724 95 OFFCURVE",
"675 39 OFFCURVE",
"598 39 CURVE SMOOTH",
"514 39 OFFCURVE",
"475 112 OFFCURVE",
"475 192 CURVE SMOOTH",
"475 286 OFFCURVE",
"544 389 OFFCURVE",
"633 389 CURVE SMOOTH",
"680 389 OFFCURVE",
"702 357 OFFCURVE",
"702 325 CURVE SMOOTH",
"702 295 OFFCURVE",
"681 264 OFFCURVE",
"644 264 CURVE SMOOTH",
"611 264 OFFCURVE",
"596 293 OFFCURVE",
"585 297 CURVE SMOOTH",
"570 302 OFFCURVE",
"506 280 OFFCURVE",
"506 231 CURVE SMOOTH",
"506 202 OFFCURVE",
"529 177 OFFCURVE",
"581 177 CURVE SMOOTH",
"684 177 OFFCURVE",
"792 284 OFFCURVE",
"792 374 CURVE SMOOTH",
"792 444 OFFCURVE",
"743 481 OFFCURVE",
"679 481 CURVE SMOOTH",
"559 481 OFFCURVE",
"387 354 OFFCURVE",
"387 133 CURVE SMOOTH",
"387 24 OFFCURVE",
"442 -50 OFFCURVE",
"545 -50 CURVE SMOOTH"
);
},
{
closed = 1;
nodes = (
"327 458 OFFCURVE",
"375 553 OFFCURVE",
"375 638 CURVE SMOOTH",
"375 726 OFFCURVE",
"322 804 OFFCURVE",
"214 804 CURVE SMOOTH",
"105 804 OFFCURVE",
"0 722 OFFCURVE",
"0 607 CURVE SMOOTH",
"0 524 OFFCURVE",
"51 493 OFFCURVE",
"114 493 CURVE SMOOTH",
"200 493 OFFCURVE",
"281 565 OFFCURVE",
"284 674 CURVE",
"297 653 OFFCURVE",
"303 630 OFFCURVE",
"303 606 CURVE SMOOTH",
"303 569 OFFCURVE",
"281 531 OFFCURVE",
"255 498 CURVE SMOOTH",
"236 474 OFFCURVE",
"202 449 OFFCURVE",
"183 440 CURVE",
"233 413 LINE"
);
},
{
closed = 1;
nodes = (
"105 567 OFFCURVE",
"76 586 OFFCURVE",
"76 629 CURVE SMOOTH",
"76 673 OFFCURVE",
"109 722 OFFCURVE",
"166 722 CURVE SMOOTH",
"212 722 OFFCURVE",
"235 695 OFFCURVE",
"235 661 CURVE SMOOTH",
"235 602 OFFCURVE",
"183 567 OFFCURVE",
"138 567 CURVE SMOOTH"
);
}
);
width = 792;
}
);
unicode = 0CC0;
},
{
color = 4;
glyphname = knmU;
lastChange = "2016-01-01 06:02:10 +0000";
layers = (
{
layerId = "59118767-2CA9-48AA-9373-694D24C960D8";
name = Regular;
paths = (
{
closed = 1;
nodes = (
"272 -12 OFFCURVE",
"399 103 OFFCURVE",
"399 267 CURVE SMOOTH",
"399 377 OFFCURVE",
"346 464 OFFCURVE",
"289 464 CURVE SMOOTH",
"253 464 OFFCURVE",
"214 412 OFFCURVE",
"214 379 CURVE SMOOTH",
"214 365 OFFCURVE",
"221 359 OFFCURVE",
"227 355 CURVE SMOOTH",
"265 330 OFFCURVE",
"315 292 OFFCURVE",
"315 211 CURVE SMOOTH",
"315 117 OFFCURVE",
"249 85 OFFCURVE",
"183 85 CURVE SMOOTH",
"147 85 OFFCURVE",
"118 95 OFFCURVE",
"93 126 CURVE SMOOTH",
"76 147 OFFCURVE",
"74 161 OFFCURVE",
"60 161 CURVE SMOOTH",
"34 161 OFFCURVE",
"0 132 OFFCURVE",
"0 97 CURVE SMOOTH",
"0 45 OFFCURVE",
"59 -12 OFFCURVE",
"140 -12 CURVE SMOOTH"
);
}
);
width = 399;
}
);
unicode = 0CC1;
},
{
color = 4;
glyphname = knmUU;
lastChange = "2016-01-01 06:02:12 +0000";
layers = (
{
layerId = "59118767-2CA9-48AA-9373-694D24C960D8";
name = Regular;
paths = (
{
closed = 1;
nodes = (
"592 -17 OFFCURVE",
"699 120 OFFCURVE",
"699 269 CURVE SMOOTH",
"699 372 OFFCURVE",
"642 464 OFFCURVE",
"527 464 CURVE SMOOTH",
"472 464 OFFCURVE",
"424 437 OFFCURVE",
"382 396 CURVE SMOOTH",
"297 309 OFFCURVE",
"279 189 OFFCURVE",
"227 125 CURVE SMOOTH",
"208 100 OFFCURVE",
"185 88 OFFCURVE",
"162 88 CURVE SMOOTH",
"121 88 OFFCURVE",
"80 127 OFFCURVE",
"65 191 CURVE",
"39 191 OFFCURVE",
"0 123 OFFCURVE",
"0 89 CURVE SMOOTH",
"0 85 OFFCURVE",
"1 81 OFFCURVE",
"2 78 CURVE SMOOTH",
"23 21 OFFCURVE",
"75 -12 OFFCURVE",
"130 -12 CURVE SMOOTH",
"238 -12 OFFCURVE",
"283 93 OFFCURVE",
"333 206 CURVE SMOOTH",
"387 324 OFFCURVE",
"447 361 OFFCURVE",
"497 361 CURVE SMOOTH",
"576 361 OFFCURVE",
"627 285 OFFCURVE",
"627 206 CURVE SMOOTH",
"627 172 OFFCURVE",
"617 138 OFFCURVE",
"597 109 CURVE",
"600 121 OFFCURVE",
"602 134 OFFCURVE",
"602 147 CURVE SMOOTH",
"602 207 OFFCURVE",
"568 264 OFFCURVE",
"502 264 CURVE SMOOTH",
"409 264 OFFCURVE",
"344 168 OFFCURVE",
"344 88 CURVE SMOOTH",
"344 32 OFFCURVE",
"376 -17 OFFCURVE",
"451 -17 CURVE SMOOTH"
);
},
{
closed = 1;
nodes = (
"441 73 OFFCURVE",
"416 106 OFFCURVE",
"416 132 CURVE SMOOTH",
"416 153 OFFCURVE",
"432 171 OFFCURVE",
"463 171 CURVE SMOOTH",
"509 171 OFFCURVE",
"547 136 OFFCURVE",
"547 79 CURVE",
"534 75 OFFCURVE",
"518 73 OFFCURVE",
"501 73 CURVE SMOOTH"
);
}
);
width = 699;
}
);
unicode = 0CC2;
},
{
color = 4;
glyphname = knmvR;
lastChange = "2016-01-01 06:02:11 +0000";
layers = (
{
layerId = "59118767-2CA9-48AA-9373-694D24C960D8";
name = Regular;
paths = (
{
closed = 1;
nodes = (
"101 -382 OFFCURVE",
"214 -230 OFFCURVE",
"214 -53 CURVE SMOOTH",
"214 95 OFFCURVE",
"142 223 OFFCURVE",
"75 223 CURVE SMOOTH",
"57 223 OFFCURVE",
"30 206 OFFCURVE",
"15 188 CURVE SMOOTH",
"10 182 OFFCURVE",
"9 178 OFFCURVE",
"9 174 CURVE SMOOTH",
"9 163 OFFCURVE",
"21 154 OFFCURVE",
"30 144 CURVE SMOOTH",
"67 106 OFFCURVE",
"134 26 OFFCURVE",
"134 -102 CURVE SMOOTH",
"134 -204 OFFCURVE",
"76 -299 OFFCURVE",
"-17 -299 CURVE SMOOTH",
"-65 -299 OFFCURVE",
"-111 -276 OFFCURVE",
"-124 -231 CURVE",
"-105 -240 OFFCURVE",
"-85 -244 OFFCURVE",
"-64 -244 CURVE SMOOTH",
"11 -244 OFFCURVE",
"88 -190 OFFCURVE",
"88 -106 CURVE SMOOTH",
"88 -56 OFFCURVE",
"55 5 OFFCURVE",
"-22 5 CURVE SMOOTH",
"-137 5 OFFCURVE",
"-215 -101 OFFCURVE",
"-215 -215 CURVE SMOOTH",
"-215 -302 OFFCURVE",
"-151 -382 OFFCURVE",
"-49 -382 CURVE SMOOTH"
);
},
{
closed = 1;
nodes = (
"-94 -183 OFFCURVE",
"-127 -172 OFFCURVE",
"-127 -137 CURVE SMOOTH",
"-127 -95 OFFCURVE",
"-90 -72 OFFCURVE",
"-54 -72 CURVE SMOOTH",
"-19 -72 OFFCURVE",
"17 -92 OFFCURVE",
"17 -131 CURVE SMOOTH",
"17 -157 OFFCURVE",
"-6 -183 OFFCURVE",
"-53 -183 CURVE SMOOTH"
);
}
);
width = 244;
}
);
leftKerningGroup = knmvR;
rightKerningGroup = knmvR;
unicode = 0CC3;
},
{
color = 4;
glyphname = knmE;
lastChange = "2016-01-01 06:02:11 +0000";
layers = (
{
layerId = "59118767-2CA9-48AA-9373-694D24C960D8";
name = Regular;
paths = (
{
closed = 1;
nodes = (
"305 410 OFFCURVE",
"392 413 OFFCURVE",
"430 421 CURVE SMOOTH",
"549 443 OFFCURVE",
"644 501 OFFCURVE",
"644 613 CURVE SMOOTH",
"644 669 OFFCURVE",
"605 717 OFFCURVE",
"533 717 CURVE SMOOTH",
"445 717 OFFCURVE",
"383 636 OFFCURVE",
"383 552 CURVE SMOOTH",
"383 533 OFFCURVE",
"386 513 OFFCURVE",
"393 494 CURVE",
"370 491 OFFCURVE",
"343 490 OFFCURVE",
"314 490 CURVE SMOOTH",
"211 490 OFFCURVE",
"88 506 OFFCURVE",
"51 519 CURVE SMOOTH",
"45 521 OFFCURVE",
"41 523 OFFCURVE",
"37 523 CURVE SMOOTH",
"28 523 OFFCURVE",
"22 515 OFFCURVE",
"8 487 CURVE SMOOTH",
"3 477 OFFCURVE",
"0 467 OFFCURVE",
"0 458 CURVE SMOOTH",
"0 436 OFFCURVE",
"16 420 OFFCURVE",
"50 416 CURVE SMOOTH",
"85 412 OFFCURVE",
"152 410 OFFCURVE",
"221 410 CURVE SMOOTH"
);
},
{
closed = 1;
nodes = (
"462 512 OFFCURVE",
"442 540 OFFCURVE",
"442 570 CURVE SMOOTH",
"442 610 OFFCURVE",
"466 637 OFFCURVE",
"513 637 CURVE SMOOTH",
"550 637 OFFCURVE",
"574 612 OFFCURVE",
"574 576 CURVE SMOOTH",
"574 533 OFFCURVE",
"539 512 OFFCURVE",
"504 512 CURVE SMOOTH"
);
}
);
width = 644;
}
);
unicode = 0CC6;
},
{
color = 4;
glyphname = knmEE;
lastChange = "2016-01-01 06:02:12 +0000";
layers = (
{
layerId = "59118767-2CA9-48AA-9373-694D24C960D8";
name = Regular;
paths = (
{
closed = 1;
nodes = (
"868 -50 OFFCURVE",
"981 78 OFFCURVE",
"981 107 CURVE SMOOTH",
"981 120 OFFCURVE",
"973 132 OFFCURVE",
"958 132 CURVE SMOOTH",
"954 132 OFFCURVE",
"949 131 OFFCURVE",
"941 123 CURVE SMOOTH",
"913 95 OFFCURVE",
"864 39 OFFCURVE",
"787 39 CURVE SMOOTH",
"703 39 OFFCURVE",
"664 112 OFFCURVE",
"664 192 CURVE SMOOTH",
"664 286 OFFCURVE",
"733 389 OFFCURVE",
"822 389 CURVE SMOOTH",
"869 389 OFFCURVE",
"891 357 OFFCURVE",
"891 325 CURVE SMOOTH",
"891 295 OFFCURVE",
"870 264 OFFCURVE",
"833 264 CURVE SMOOTH",
"800 264 OFFCURVE",
"785 293 OFFCURVE",
"774 297 CURVE SMOOTH",
"759 302 OFFCURVE",
"695 280 OFFCURVE",
"695 231 CURVE SMOOTH",
"695 202 OFFCURVE",
"718 177 OFFCURVE",
"770 177 CURVE SMOOTH",
"873 177 OFFCURVE",
"981 284 OFFCURVE",
"981 374 CURVE SMOOTH",
"981 444 OFFCURVE",
"932 481 OFFCURVE",
"868 481 CURVE SMOOTH",
"748 481 OFFCURVE",
"576 354 OFFCURVE",
"576 133 CURVE SMOOTH",
"576 24 OFFCURVE",
"631 -50 OFFCURVE",
"734 -50 CURVE SMOOTH"
);
},
{
closed = 1;
nodes = (
"302 410 OFFCURVE",
"389 413 OFFCURVE",
"430 421 CURVE SMOOTH",
"549 443 OFFCURVE",
"644 501 OFFCURVE",
"644 613 CURVE SMOOTH",
"644 669 OFFCURVE",
"605 717 OFFCURVE",
"533 717 CURVE SMOOTH",
"445 717 OFFCURVE",
"383 636 OFFCURVE",
"383 552 CURVE SMOOTH",
"383 533 OFFCURVE",
"386 513 OFFCURVE",
"393 494 CURVE",
"370 491 OFFCURVE",
"343 490 OFFCURVE",
"314 490 CURVE SMOOTH",
"211 490 OFFCURVE",
"88 506 OFFCURVE",
"51 519 CURVE SMOOTH",
"45 521 OFFCURVE",
"41 523 OFFCURVE",
"37 523 CURVE SMOOTH",
"28 523 OFFCURVE",
"22 515 OFFCURVE",
"8 487 CURVE SMOOTH",
"3 477 OFFCURVE",
"0 467 OFFCURVE",
"0 458 CURVE SMOOTH",
"0 436 OFFCURVE",
"16 420 OFFCURVE",
"50 416 CURVE SMOOTH",
"87 412 OFFCURVE",
"152 410 OFFCURVE",
"219 410 CURVE SMOOTH"
);
},
{
closed = 1;
nodes = (
"462 512 OFFCURVE",
"442 540 OFFCURVE",
"442 570 CURVE SMOOTH",
"442 610 OFFCURVE",
"466 637 OFFCURVE",
"513 637 CURVE SMOOTH",
"550 637 OFFCURVE",
"574 612 OFFCURVE",
"574 576 CURVE SMOOTH",
"574 533 OFFCURVE",
"539 512 OFFCURVE",
"504 512 CURVE SMOOTH"
);
}
);
width = 981;
}
);
unicode = 0CC7;
},
{
color = 4;
glyphname = knmAI;
lastChange = "2016-01-01 06:02:12 +0000";
layers = (
{
layerId = "59118767-2CA9-48AA-9373-694D24C960D8";
name = Regular;
paths = (
{
closed = 1;
nodes = (
"521 -428 OFFCURVE",
"677 -273 OFFCURVE",
"677 -129 CURVE SMOOTH",
"677 -67 OFFCURVE",
"637 -35 OFFCURVE",
"578 -25 CURVE",
"628 7 OFFCURVE",
"671 66 OFFCURVE",
"671 108 CURVE SMOOTH",
"671 134 OFFCURVE",
"660 153 OFFCURVE",
"636 153 CURVE SMOOTH",
"613 153 OFFCURVE",
"562 120 OFFCURVE",
"562 103 CURVE SMOOTH",
"562 68 OFFCURVE",
"555 32 OFFCURVE",
"533 3 CURVE SMOOTH",
"510 -31 OFFCURVE",
"464 -44 OFFCURVE",
"449 -56 CURVE SMOOTH",
"436 -67 OFFCURVE",
"428 -80 OFFCURVE",
"428 -93 CURVE SMOOTH",
"428 -101 OFFCURVE",
"434 -105 OFFCURVE",
"443 -105 CURVE SMOOTH",
"451 -105 OFFCURVE",
"461 -100 OFFCURVE",
"484 -100 CURVE SMOOTH",
"551 -100 OFFCURVE",
"583 -123 OFFCURVE",
"583 -190 CURVE SMOOTH",
"583 -237 OFFCURVE",
"560 -280 OFFCURVE",
"512 -310 CURVE",
"517 -290 OFFCURVE",
"519 -272 OFFCURVE",
"519 -255 CURVE SMOOTH",
"519 -181 OFFCURVE",
"480 -147 OFFCURVE",
"424 -147 CURVE SMOOTH",
"331 -147 OFFCURVE",
"266 -243 OFFCURVE",
"266 -323 CURVE SMOOTH",
"266 -379 OFFCURVE",
"298 -428 OFFCURVE",
"373 -428 CURVE SMOOTH"
);
},
{
closed = 1;
nodes = (
"363 -338 OFFCURVE",
"338 -305 OFFCURVE",
"338 -279 CURVE SMOOTH",
"338 -258 OFFCURVE",
"354 -240 OFFCURVE",
"385 -240 CURVE SMOOTH",
"431 -240 OFFCURVE",
"469 -275 OFFCURVE",
"469 -331 CURVE",
"455 -336 OFFCURVE",
"440 -338 OFFCURVE",
"423 -338 CURVE SMOOTH"
);
},
{
closed = 1;
nodes = (
"302 410 OFFCURVE",
"389 413 OFFCURVE",
"430 421 CURVE SMOOTH",
"551 443 OFFCURVE",
"644 501 OFFCURVE",
"644 613 CURVE SMOOTH",
"644 669 OFFCURVE",
"605 717 OFFCURVE",
"533 717 CURVE SMOOTH",
"445 717 OFFCURVE",
"383 636 OFFCURVE",
"383 552 CURVE SMOOTH",
"383 533 OFFCURVE",
"386 513 OFFCURVE",
"393 494 CURVE",
"370 491 OFFCURVE",
"343 490 OFFCURVE",
"314 490 CURVE SMOOTH",
"211 490 OFFCURVE",
"88 506 OFFCURVE",
"51 519 CURVE SMOOTH",
"45 521 OFFCURVE",
"41 523 OFFCURVE",
"37 523 CURVE SMOOTH",
"28 523 OFFCURVE",
"22 515 OFFCURVE",
"8 487 CURVE SMOOTH",
"3 477 OFFCURVE",
"0 467 OFFCURVE",
"0 458 CURVE SMOOTH",
"0 436 OFFCURVE",
"16 420 OFFCURVE",
"50 416 CURVE SMOOTH",
"87 412 OFFCURVE",
"152 410 OFFCURVE",
"219 410 CURVE SMOOTH"
);
},
{
closed = 1;
nodes = (
"462 512 OFFCURVE",
"442 540 OFFCURVE",
"442 570 CURVE SMOOTH",
"442 610 OFFCURVE",
"466 637 OFFCURVE",
"513 637 CURVE SMOOTH",
"550 637 OFFCURVE",
"574 612 OFFCURVE",
"574 576 CURVE SMOOTH",
"574 533 OFFCURVE",
"539 512 OFFCURVE",
"504 512 CURVE SMOOTH"
);
}
);
width = 677;
}
);
unicode = 0CC8;
},
{
color = 4;
glyphname = knmO;
lastChange = "2016-01-01 06:02:12 +0000";
layers = (
{
layerId = "59118767-2CA9-48AA-9373-694D24C960D8";
name = Regular;
paths = (
{
closed = 1;
nodes = (
"1023 -17 OFFCURVE",
"1130 120 OFFCURVE",
"1130 269 CURVE SMOOTH",
"1130 372 OFFCURVE",
"1073 464 OFFCURVE",
"958 464 CURVE SMOOTH",
"903 464 OFFCURVE",
"855 437 OFFCURVE",
"813 396 CURVE SMOOTH",
"763 345 OFFCURVE",
"737 283 OFFCURVE",
"713 228 CURVE SMOOTH",
"683 161 OFFCURVE",
"653 88 OFFCURVE",
"593 88 CURVE SMOOTH",
"552 88 OFFCURVE",
"511 127 OFFCURVE",
"496 191 CURVE",
"470 191 OFFCURVE",
"431 123 OFFCURVE",
"431 89 CURVE SMOOTH",
"431 85 OFFCURVE",
"432 81 OFFCURVE",
"433 78 CURVE SMOOTH",
"454 21 OFFCURVE",
"506 -12 OFFCURVE",
"561 -12 CURVE SMOOTH",
"669 -12 OFFCURVE",
"714 93 OFFCURVE",
"764 206 CURVE SMOOTH",
"818 324 OFFCURVE",
"878 361 OFFCURVE",
"928 361 CURVE SMOOTH",
"1007 361 OFFCURVE",
"1058 285 OFFCURVE",
"1058 206 CURVE SMOOTH",
"1058 172 OFFCURVE",
"1048 138 OFFCURVE",
"1028 109 CURVE",
"1031 121 OFFCURVE",
"1033 134 OFFCURVE",
"1033 147 CURVE SMOOTH",
"1033 207 OFFCURVE",
"999 264 OFFCURVE",
"933 264 CURVE SMOOTH",
"840 264 OFFCURVE",
"775 168 OFFCURVE",
"775 88 CURVE SMOOTH",
"775 32 OFFCURVE",
"807 -17 OFFCURVE",
"882 -17 CURVE SMOOTH"
);
},
{
closed = 1;
nodes = (
"302 410 OFFCURVE",
"389 413 OFFCURVE",
"430 421 CURVE SMOOTH",
"549 443 OFFCURVE",
"644 501 OFFCURVE",
"644 613 CURVE SMOOTH",
"644 669 OFFCURVE",
"605 717 OFFCURVE",
"533 717 CURVE SMOOTH",
"445 717 OFFCURVE",
"383 636 OFFCURVE",
"383 552 CURVE SMOOTH",
"383 533 OFFCURVE",
"386 513 OFFCURVE",
"393 494 CURVE",
"370 491 OFFCURVE",
"343 490 OFFCURVE",
"314 490 CURVE SMOOTH",
"211 490 OFFCURVE",
"88 506 OFFCURVE",
"51 519 CURVE SMOOTH",
"45 521 OFFCURVE",
"41 523 OFFCURVE",
"37 523 CURVE SMOOTH",
"28 523 OFFCURVE",
"22 515 OFFCURVE",
"8 487 CURVE SMOOTH",
"3 477 OFFCURVE",
"0 467 OFFCURVE",
"0 458 CURVE SMOOTH",
"0 436 OFFCURVE",
"16 420 OFFCURVE",
"50 416 CURVE SMOOTH",
"87 412 OFFCURVE",
"152 410 OFFCURVE",
"219 410 CURVE SMOOTH"
);
},
{
closed = 1;
nodes = (
"872 73 OFFCURVE",
"847 106 OFFCURVE",
"847 132 CURVE SMOOTH",
"847 153 OFFCURVE",
"863 171 OFFCURVE",
"894 171 CURVE SMOOTH",
"940 171 OFFCURVE",
"978 136 OFFCURVE",
"978 79 CURVE",
"965 75 OFFCURVE",
"949 73 OFFCURVE",
"932 73 CURVE SMOOTH"
);
},
{
closed = 1;
nodes = (
"462 512 OFFCURVE",
"442 540 OFFCURVE",
"442 570 CURVE SMOOTH",
"442 610 OFFCURVE",
"466 637 OFFCURVE",
"513 637 CURVE SMOOTH",
"550 637 OFFCURVE",
"574 612 OFFCURVE",
"574 576 CURVE SMOOTH",
"574 533 OFFCURVE",
"539 512 OFFCURVE",
"504 512 CURVE SMOOTH"
);
}
);
width = 1130;
}
);
unicode = 0CCA;
},
{
color = 4;
glyphname = knmOO;
lastChange = "2016-01-01 06:02:12 +0000";
layers = (
{
layerId = "59118767-2CA9-48AA-9373-694D24C960D8";
name = Regular;
paths = (
{
closed = 1;
nodes = (
"1023 -17 OFFCURVE",
"1130 120 OFFCURVE",
"1130 269 CURVE SMOOTH",
"1130 372 OFFCURVE",
"1073 464 OFFCURVE",
"958 464 CURVE SMOOTH",
"903 464 OFFCURVE",
"855 437 OFFCURVE",
"813 396 CURVE SMOOTH",
"728 309 OFFCURVE",
"710 189 OFFCURVE",
"658 125 CURVE SMOOTH",
"639 100 OFFCURVE",
"616 88 OFFCURVE",
"593 88 CURVE SMOOTH",
"552 88 OFFCURVE",
"511 127 OFFCURVE",
"496 191 CURVE",
"470 191 OFFCURVE",
"431 123 OFFCURVE",
"431 89 CURVE SMOOTH",
"431 85 OFFCURVE",
"432 81 OFFCURVE",
"433 78 CURVE SMOOTH",
"454 21 OFFCURVE",
"506 -12 OFFCURVE",
"561 -12 CURVE SMOOTH",
"669 -12 OFFCURVE",
"714 93 OFFCURVE",
"764 206 CURVE SMOOTH",
"818 324 OFFCURVE",
"878 361 OFFCURVE",
"928 361 CURVE SMOOTH",
"1007 361 OFFCURVE",
"1058 285 OFFCURVE",
"1058 206 CURVE SMOOTH",
"1058 172 OFFCURVE",
"1048 138 OFFCURVE",
"1028 109 CURVE",
"1031 121 OFFCURVE",
"1033 134 OFFCURVE",
"1033 147 CURVE SMOOTH",
"1033 207 OFFCURVE",
"999 264 OFFCURVE",
"933 264 CURVE SMOOTH",
"840 264 OFFCURVE",
"775 168 OFFCURVE",
"775 88 CURVE SMOOTH",
"775 32 OFFCURVE",
"807 -17 OFFCURVE",
"882 -17 CURVE SMOOTH"
);
},
{
closed = 1;
nodes = (
"302 410 OFFCURVE",
"389 413 OFFCURVE",
"430 421 CURVE SMOOTH",
"549 443 OFFCURVE",
"644 501 OFFCURVE",
"644 613 CURVE SMOOTH",
"644 669 OFFCURVE",
"605 717 OFFCURVE",
"533 717 CURVE SMOOTH",
"445 717 OFFCURVE",
"383 636 OFFCURVE",
"383 552 CURVE SMOOTH",
"383 533 OFFCURVE",
"386 513 OFFCURVE",
"393 494 CURVE",
"370 491 OFFCURVE",
"343 490 OFFCURVE",
"314 490 CURVE SMOOTH",
"211 490 OFFCURVE",
"88 506 OFFCURVE",
"51 519 CURVE SMOOTH",
"45 521 OFFCURVE",
"41 523 OFFCURVE",
"37 523 CURVE SMOOTH",
"28 523 OFFCURVE",
"22 515 OFFCURVE",
"8 487 CURVE SMOOTH",
"3 477 OFFCURVE",
"0 467 OFFCURVE",
"0 458 CURVE SMOOTH",
"0 436 OFFCURVE",
"16 420 OFFCURVE",
"50 416 CURVE SMOOTH",
"87 412 OFFCURVE",
"152 410 OFFCURVE",
"219 410 CURVE SMOOTH"
);
},
{
closed = 1;
nodes = (
"872 73 OFFCURVE",
"847 106 OFFCURVE",
"847 132 CURVE SMOOTH",
"847 153 OFFCURVE",
"863 171 OFFCURVE",
"894 171 CURVE SMOOTH",
"940 171 OFFCURVE",
"978 136 OFFCURVE",
"978 79 CURVE",
"965 75 OFFCURVE",
"949 73 OFFCURVE",
"932 73 CURVE SMOOTH"
);
},
{
closed = 1;
nodes = (
"462 512 OFFCURVE",
"442 540 OFFCURVE",
"442 570 CURVE SMOOTH",
"442 610 OFFCURVE",
"466 637 OFFCURVE",
"513 637 CURVE SMOOTH",
"550 637 OFFCURVE",
"574 612 OFFCURVE",
"574 576 CURVE SMOOTH",
"574 533 OFFCURVE",
"539 512 OFFCURVE",
"504 512 CURVE SMOOTH"
);
},
{
closed = 1;
nodes = (
"1481 -50 OFFCURVE",
"1594 78 OFFCURVE",
"1594 107 CURVE SMOOTH",
"1594 120 OFFCURVE",
"1586 132 OFFCURVE",
"1571 132 CURVE SMOOTH",
"1567 132 OFFCURVE",
"1562 131 OFFCURVE",
"1554 123 CURVE SMOOTH",
"1526 95 OFFCURVE",
"1477 39 OFFCURVE",
"1400 39 CURVE SMOOTH",
"1316 39 OFFCURVE",
"1277 112 OFFCURVE",
"1277 192 CURVE SMOOTH",
"1277 286 OFFCURVE",
"1346 389 OFFCURVE",
"1435 389 CURVE SMOOTH",
"1482 389 OFFCURVE",
"1504 357 OFFCURVE",
"1504 325 CURVE SMOOTH",
"1504 295 OFFCURVE",
"1483 264 OFFCURVE",
"1446 264 CURVE SMOOTH",
"1413 264 OFFCURVE",
"1398 293 OFFCURVE",
"1387 297 CURVE SMOOTH",
"1372 302 OFFCURVE",
"1308 280 OFFCURVE",
"1308 231 CURVE SMOOTH",
"1308 202 OFFCURVE",
"1331 177 OFFCURVE",
"1383 177 CURVE SMOOTH",
"1486 177 OFFCURVE",
"1594 284 OFFCURVE",
"1594 374 CURVE SMOOTH",
"1594 444 OFFCURVE",
"1545 481 OFFCURVE",
"1481 481 CURVE SMOOTH",
"1361 481 OFFCURVE",
"1189 354 OFFCURVE",
"1189 133 CURVE SMOOTH",
"1189 24 OFFCURVE",
"1244 -50 OFFCURVE",
"1347 -50 CURVE SMOOTH"
);
}
);
width = 1594;
}
);
unicode = 0CCB;
},
{
color = 4;
glyphname = knmAU;
lastChange = "2016-01-01 06:02:12 +0000";
layers = (
{
layerId = "59118767-2CA9-48AA-9373-694D24C960D8";
name = Regular;
paths = (
{
closed = 1;
nodes = (
"567 86 OFFCURVE",
"657 265 OFFCURVE",
"657 410 CURVE SMOOTH",
"657 598 OFFCURVE",
"532 687 OFFCURVE",
"332 687 CURVE SMOOTH",
"251 687 OFFCURVE",
"137 679 OFFCURVE",
"84 670 CURVE SMOOTH",
"57 665 OFFCURVE",
"27 604 OFFCURVE",
"27 586 CURVE SMOOTH",
"27 583 OFFCURVE",
"29 576 OFFCURVE",
"40 576 CURVE SMOOTH",
"83 581 OFFCURVE",
"91 583 OFFCURVE",
"116 583 CURVE SMOOTH",
"163 583 OFFCURVE",
"198 570 OFFCURVE",
"198 545 CURVE SMOOTH",
"198 499 OFFCURVE",
"101 488 OFFCURVE",
"65 488 CURVE SMOOTH",
"11 488 OFFCURVE",
"-25 493 OFFCURVE",
"-79 514 CURVE",
"-85 516 OFFCURVE",
"-89 518 OFFCURVE",
"-93 518 CURVE SMOOTH",
"-99 518 OFFCURVE",
"-103 514 OFFCURVE",
"-110 504 CURVE",
"-118 490 OFFCURVE",
"-130 470 OFFCURVE",
"-130 453 CURVE SMOOTH",
"-130 410 OFFCURVE",
"-67 405 OFFCURVE",
"5 405 CURVE SMOOTH",
"147 405 OFFCURVE",
"283 455 OFFCURVE",
"283 583 CURVE SMOOTH",
"283 594 LINE",
"420 589 OFFCURVE",
"530 553 OFFCURVE",
"568 426 CURVE",
"443 383 OFFCURVE",
"341 264 OFFCURVE",
"341 179 CURVE SMOOTH",
"341 117 OFFCURVE",
"383 86 OFFCURVE",
"435 86 CURVE SMOOTH"
);
},
{
closed = 1;
nodes = (
"455 189 OFFCURVE",
"437 208 OFFCURVE",
"437 235 CURVE SMOOTH",
"437 295 OFFCURVE",
"509 340 OFFCURVE",
"580 338 CURVE",
"580 251 OFFCURVE",
"545 189 OFFCURVE",
"481 189 CURVE SMOOTH"
);
}
);
width = 657;
}
);
unicode = 0CCC;
subCategory = "Spacing Combining";
},
{
color = 4;
glyphname = knLengthmark;
lastChange = "2016-01-02 13:13:47 +0000";
layers = (
{
guideLines = (
{
angle = 90;
position = "{425, 94}";
}
);
layerId = "59118767-2CA9-48AA-9373-694D24C960D8";
name = Regular;
paths = (
{
closed = 1;
nodes = (
"312 -50 OFFCURVE",
"425 78 OFFCURVE",
"425 107 CURVE SMOOTH",
"425 120 OFFCURVE",
"417 132 OFFCURVE",
"402 132 CURVE SMOOTH",
"398 132 OFFCURVE",
"393 131 OFFCURVE",
"385 123 CURVE SMOOTH",
"357 95 OFFCURVE",
"308 39 OFFCURVE",
"231 39 CURVE SMOOTH",
"147 39 OFFCURVE",
"108 112 OFFCURVE",
"108 192 CURVE SMOOTH",
"108 286 OFFCURVE",
"177 389 OFFCURVE",
"266 389 CURVE SMOOTH",
"313 389 OFFCURVE",
"335 357 OFFCURVE",
"335 325 CURVE SMOOTH",
"335 295 OFFCURVE",
"314 264 OFFCURVE",
"277 264 CURVE SMOOTH",
"244 264 OFFCURVE",
"229 293 OFFCURVE",
"218 297 CURVE SMOOTH",
"203 302 OFFCURVE",
"139 280 OFFCURVE",
"139 231 CURVE SMOOTH",
"139 202 OFFCURVE",
"162 177 OFFCURVE",
"214 177 CURVE SMOOTH",
"317 177 OFFCURVE",
"425 284 OFFCURVE",
"425 374 CURVE SMOOTH",
"425 444 OFFCURVE",
"376 481 OFFCURVE",
"312 481 CURVE SMOOTH",
"192 481 OFFCURVE",
"20 354 OFFCURVE",
"20 133 CURVE SMOOTH",
"20 24 OFFCURVE",
"75 -50 OFFCURVE",
"178 -50 CURVE SMOOTH"
);
}
);
width = 455;
}
);
leftKerningGroup = knlengthmark;
rightKerningGroup = knlengthmark;
unicode = 0CD5;
},
{
color = 4;
glyphname = knAIlengthmark;
lastChange = "2016-01-01 06:02:12 +0000";
layers = (
{
layerId = "59118767-2CA9-48AA-9373-694D24C960D8";
name = Regular;
paths = (
{
closed = 1;
nodes = (
"-50 -428 OFFCURVE",
"106 -273 OFFCURVE",
"106 -129 CURVE SMOOTH",
"106 -67 OFFCURVE",
"66 -35 OFFCURVE",
"7 -25 CURVE",
"57 7 OFFCURVE",
"100 66 OFFCURVE",
"100 108 CURVE SMOOTH",
"100 134 OFFCURVE",
"89 153 OFFCURVE",
"65 153 CURVE SMOOTH",
"42 153 OFFCURVE",
"-9 120 OFFCURVE",
"-9 103 CURVE SMOOTH",
"-9 54 OFFCURVE",
"-22 3 OFFCURVE",
"-71 -28 CURVE SMOOTH",
"-93 -42 OFFCURVE",
"-110 -51 OFFCURVE",
"-121 -58 CURVE SMOOTH",
"-134 -66 OFFCURVE",
"-143 -80 OFFCURVE",
"-143 -93 CURVE SMOOTH",
"-143 -101 OFFCURVE",
"-137 -105 OFFCURVE",
"-128 -105 CURVE SMOOTH",
"-120 -105 OFFCURVE",
"-110 -100 OFFCURVE",
"-87 -100 CURVE SMOOTH",
"-20 -100 OFFCURVE",
"12 -123 OFFCURVE",
"12 -190 CURVE SMOOTH",
"12 -237 OFFCURVE",
"-11 -280 OFFCURVE",
"-59 -310 CURVE",
"-54 -290 OFFCURVE",
"-52 -272 OFFCURVE",
"-52 -255 CURVE SMOOTH",
"-52 -181 OFFCURVE",
"-91 -147 OFFCURVE",
"-147 -147 CURVE SMOOTH",
"-240 -147 OFFCURVE",
"-305 -243 OFFCURVE",
"-305 -323 CURVE SMOOTH",
"-305 -379 OFFCURVE",
"-273 -428 OFFCURVE",
"-198 -428 CURVE SMOOTH"
);
},
{
closed = 1;
nodes = (
"-208 -338 OFFCURVE",
"-233 -305 OFFCURVE",
"-233 -279 CURVE SMOOTH",
"-233 -258 OFFCURVE",
"-217 -240 OFFCURVE",
"-186 -240 CURVE SMOOTH",
"-140 -240 OFFCURVE",
"-102 -275 OFFCURVE",
"-102 -331 CURVE",
"-116 -336 OFFCURVE",
"-131 -338 OFFCURVE",
"-148 -338 CURVE SMOOTH"
);
}
);
width = 116;
}
);
leftKerningGroup = knAIlengthmark;
rightKerningGroup = knAIlengthmark;
unicode = 0CD6;
subCategory = "Spacing Combining";
},
{
color = 4;
glyphname = knKA;
lastChange = "2016-01-01 06:02:12 +0000";
layers = (
{
guideLines = (
{
angle = 90;
position = "{307, 55}";
}
);
layerId = "59118767-2CA9-48AA-9373-694D24C960D8";
name = Regular;
paths = (
{
closed = 1;
nodes = (
"290 -14 OFFCURVE",
"416 91 OFFCURVE",
"416 204 CURVE SMOOTH",
"416 276 OFFCURVE",
"365 309 OFFCURVE",
"293 309 CURVE SMOOTH",
"253 309 OFFCURVE",
"209 299 OFFCURVE",
"164 281 CURVE",
"209 309 OFFCURVE",
"279 339 OFFCURVE",
"346 339 CURVE SMOOTH",
"374 339 OFFCURVE",
"398 334 OFFCURVE",
"420 318 CURVE SMOOTH",
"438 305 OFFCURVE",
"437 300 OFFCURVE",
"447 300 CURVE SMOOTH",
"474 300 OFFCURVE",
"521 343 OFFCURVE",
"521 379 CURVE SMOOTH",
"521 404 OFFCURVE",
"499 429 OFFCURVE",
"443 429 CURVE SMOOTH",
"386 429 OFFCURVE",
"314 404 OFFCURVE",
"247 369 CURVE",
"274 401 OFFCURVE",
"286 424 OFFCURVE",
"286 444 CURVE SMOOTH",
"286 463 OFFCURVE",
"272 479 OFFCURVE",
"246 479 CURVE SMOOTH",
"217 479 OFFCURVE",
"163 446 OFFCURVE",
"114 411 CURVE",
"159 477 OFFCURVE",
"230 532 OFFCURVE",
"302 532 CURVE SMOOTH",
"322 532 OFFCURVE",
"342 527 OFFCURVE",
"354 519 CURVE SMOOTH",
"366 511 OFFCURVE",
"372 499 OFFCURVE",
"382 499 CURVE SMOOTH",
"416 499 OFFCURVE",
"458 542 OFFCURVE",
"458 578 CURVE SMOOTH",
"458 604 OFFCURVE",
"439 628 OFFCURVE",
"384 628 CURVE SMOOTH",
"319 628 OFFCURVE",
"200 586 OFFCURVE",
"95 465 CURVE SMOOTH",
"63 429 OFFCURVE",
"41 382 OFFCURVE",
"41 339 CURVE SMOOTH",
"41 321 OFFCURVE",
"59 315 OFFCURVE",
"68 315 CURVE SMOOTH",
"101 315 OFFCURVE",
"161 369 OFFCURVE",
"184 369 CURVE SMOOTH",
"190 369 OFFCURVE",
"193 367 OFFCURVE",
"193 361 CURVE SMOOTH",
"193 356 OFFCURVE",
"192 349 OFFCURVE",
"177 329 CURVE",
"159 318 OFFCURVE",
"125 295 OFFCURVE",
"94 269 CURVE SMOOTH",
"75 252 OFFCURVE",
"41 219 OFFCURVE",
"41 198 CURVE SMOOTH",
"41 190 OFFCURVE",
"49 184 OFFCURVE",
"56 184 CURVE SMOOTH",
"63 184 OFFCURVE",
"70 187 OFFCURVE",
"78 190 CURVE SMOOTH",
"88 194 OFFCURVE",
"103 200 OFFCURVE",
"120 205 CURVE",
"75 168 OFFCURVE",
"51 119 OFFCURVE",
"51 80 CURVE SMOOTH",
"51 25 OFFCURVE",
"98 -14 OFFCURVE",
"171 -14 CURVE SMOOTH"
);
},
{
closed = 1;
nodes = (
"162 80 OFFCURVE",
"139 106 OFFCURVE",
"139 138 CURVE SMOOTH",
"139 164 OFFCURVE",
"154 193 OFFCURVE",
"180 217 CURVE",
"194 219 OFFCURVE",
"209 220 OFFCURVE",
"225 220 CURVE SMOOTH",
"305 220 OFFCURVE",
"335 193 OFFCURVE",
"335 157 CURVE SMOOTH",
"335 107 OFFCURVE",
"279 80 OFFCURVE",
"220 80 CURVE SMOOTH"
);
}
);
width = 528;
}
);
leftKerningGroup = knKA;
rightKerningGroup = knKA;
unicode = 0C95;
},
{
color = 4;
glyphname = knKHA;
lastChange = "2016-01-01 06:02:11 +0000";
layers = (
{
layerId = "59118767-2CA9-48AA-9373-694D24C960D8";
name = Regular;
paths = (
{
closed = 1;
nodes = (
"218 -136 OFFCURVE",
"293 -76 OFFCURVE",
"345 6 CURVE",
"375 -6 OFFCURVE",
"405 -12 OFFCURVE",
"428 -12 CURVE SMOOTH",
"557 -12 OFFCURVE",
"659 115 OFFCURVE",
"659 287 CURVE SMOOTH",
"659 397 OFFCURVE",
"611 523 OFFCURVE",
"554 523 CURVE SMOOTH",
"518 523 OFFCURVE",
"479 471 OFFCURVE",
"479 438 CURVE SMOOTH",
"479 424 OFFCURVE",
"486 420 OFFCURVE",
"492 414 CURVE SMOOTH",
"555 348 OFFCURVE",
"586 279 OFFCURVE",
"586 226 CURVE SMOOTH",
"586 139 OFFCURVE",
"528 90 OFFCURVE",
"466 90 CURVE SMOOTH",
"433 90 OFFCURVE",
"410 94 OFFCURVE",
"391 99 CURVE",
"411 153 OFFCURVE",
"422 209 OFFCURVE",
"422 261 CURVE SMOOTH",
"422 373 OFFCURVE",
"370 463 OFFCURVE",
"259 463 CURVE SMOOTH",
"148 463 OFFCURVE",
"43 373 OFFCURVE",
"43 250 CURVE SMOOTH",
"43 177 OFFCURVE",
"80 151 OFFCURVE",
"124 151 CURVE SMOOTH",
"193 151 OFFCURVE",
"280 214 OFFCURVE",
"280 316 CURVE SMOOTH",
"280 329 OFFCURVE",
"279 342 OFFCURVE",
"275 356 CURVE",
"330 328 OFFCURVE",
"355 271 OFFCURVE",
"355 208 CURVE SMOOTH",
"355 180 OFFCURVE",
"350 151 OFFCURVE",
"341 124 CURVE",
"311 131 OFFCURVE",
"271 136 OFFCURVE",
"246 136 CURVE SMOOTH",
"136 136 OFFCURVE",
"27 46 OFFCURVE",
"27 -55 CURVE SMOOTH",
"27 -102 OFFCURVE",
"60 -136 OFFCURVE",
"131 -136 CURVE SMOOTH"
);
},
{
closed = 1;
nodes = (
"121 -37 OFFCURVE",
"108 -25 OFFCURVE",
"108 -10 CURVE SMOOTH",
"108 31 OFFCURVE",
"156 51 OFFCURVE",
"210 51 CURVE SMOOTH",
"238 51 OFFCURVE",
"267 45 OFFCURVE",
"292 34 CURVE",
"257 -8 OFFCURVE",
"210 -37 OFFCURVE",
"156 -37 CURVE SMOOTH"
);
},
{
closed = 1;
nodes = (
"141 225 OFFCURVE",
"110 252 OFFCURVE",
"110 300 CURVE SMOOTH",
"111 348 OFFCURVE",
"138 373 OFFCURVE",
"165 373 CURVE SMOOTH",
"193 373 OFFCURVE",
"221 346 OFFCURVE",
"221 295 CURVE SMOOTH",
"221 247 OFFCURVE",
"196 225 OFFCURVE",
"170 225 CURVE SMOOTH"
);
}
);
width = 694;
}
);
leftKerningGroup = knKHA;
rightKerningGroup = knLA;
unicode = 0C96;
},
{
color = 4;
glyphname = knGA;
lastChange = "2016-01-01 06:02:10 +0000";
layers = (
{
layerId = "59118767-2CA9-48AA-9373-694D24C960D8";
name = Regular;
paths = (
{
closed = 1;
nodes = (
"90 0 OFFCURVE",
"152 56 OFFCURVE",
"152 100 CURVE SMOOTH",
"152 131 OFFCURVE",
"155 171 OFFCURVE",
"169 212 CURVE SMOOTH",
"194 280 OFFCURVE",
"236 349 OFFCURVE",
"290 375 CURVE",
"359 360 OFFCURVE",
"404 299 OFFCURVE",
"404 188 CURVE SMOOTH",
"404 87 OFFCURVE",
"384 42 OFFCURVE",
"384 22 CURVE SMOOTH",
"384 13 OFFCURVE",
"388 8 OFFCURVE",
"395 8 CURVE SMOOTH",
"420 8 OFFCURVE",
"481 61 OFFCURVE",
"485 77 CURVE SMOOTH",
"493 112 OFFCURVE",
"498 151 OFFCURVE",
"498 211 CURVE SMOOTH",
"498 298 OFFCURVE",
"477 376 OFFCURVE",
"430 425 CURVE SMOOTH",
"397 460 OFFCURVE",
"351 480 OFFCURVE",
"290 480 CURVE SMOOTH",
"239 480 OFFCURVE",
"169 461 OFFCURVE",
"110 425 CURVE",
"155 492 OFFCURVE",
"227 550 OFFCURVE",
"301 550 CURVE SMOOTH",
"321 550 OFFCURVE",
"341 544 OFFCURVE",
"353 537 CURVE SMOOTH",
"366 530 OFFCURVE",
"371 517 OFFCURVE",
"381 517 CURVE SMOOTH",
"415 517 OFFCURVE",
"457 560 OFFCURVE",
"457 596 CURVE SMOOTH",
"457 622 OFFCURVE",
"438 646 OFFCURVE",
"383 646 CURVE SMOOTH",
"318 646 OFFCURVE",
"199 604 OFFCURVE",
"94 483 CURVE SMOOTH",
"62 446 OFFCURVE",
"40 400 OFFCURVE",
"40 356 CURVE SMOOTH",
"40 336 OFFCURVE",
"51 326 OFFCURVE",
"58 326 CURVE SMOOTH",
"64 326 OFFCURVE",
"82 332 OFFCURVE",
"96 337 CURVE SMOOTH",
"125 348 OFFCURVE",
"162 363 OFFCURVE",
"203 372 CURVE",
"123 327 OFFCURVE",
"52 188 OFFCURVE",
"51 17 CURVE SMOOTH",
"51 5 OFFCURVE",
"56 0 OFFCURVE",
"64 0 CURVE SMOOTH"
);
}
);
width = 558;
}
);
leftKerningGroup = knGA;
rightKerningGroup = knGA;
unicode = 0C97;
},
{
color = 4;
glyphname = knGHA;
lastChange = "2016-01-01 06:02:12 +0000";
layers = (
{
layerId = "59118767-2CA9-48AA-9373-694D24C960D8";
name = Regular;
paths = (
{
closed = 1;
nodes = (
"177 -50 OFFCURVE",
"247 -9 OFFCURVE",
"294 32 CURVE",
"318 7 OFFCURVE",
"354 -13 OFFCURVE",
"406 -13 CURVE SMOOTH",
"525 -13 OFFCURVE",
"646 93 OFFCURVE",
"647 205 CURVE",
"728 231 OFFCURVE",
"791 299 OFFCURVE",
"791 402 CURVE SMOOTH",
"791 451 OFFCURVE",
"776 462 OFFCURVE",
"748 462 CURVE SMOOTH",
"705 462 OFFCURVE",
"670 405 OFFCURVE",
"670 385 CURVE SMOOTH",
"670 366 OFFCURVE",
"704 358 OFFCURVE",
"704 318 CURVE SMOOTH",
"704 290 OFFCURVE",
"669 276 OFFCURVE",
"642 276 CURVE SMOOTH",
"620 276 OFFCURVE",
"610 282 OFFCURVE",
"593 282 CURVE SMOOTH",
"544 282 OFFCURVE",
"522 218 OFFCURVE",
"527 203 CURVE SMOOTH",
"531 192 OFFCURVE",
"560 177 OFFCURVE",
"560 144 CURVE SMOOTH",
"560 105 OFFCURVE",
"518 81 OFFCURVE",
"455 81 CURVE SMOOTH",
"416 81 OFFCURVE",
"382 90 OFFCURVE",
"356 127 CURVE SMOOTH",
"347 140 OFFCURVE",
"341 143 OFFCURVE",
"334 143 CURVE SMOOTH",
"324 143 OFFCURVE",
"315 135 OFFCURVE",
"304 122 CURVE SMOOTH",
"286 100 OFFCURVE",
"267 82 OFFCURVE",
"247 69 CURVE",
"251 89 OFFCURVE",
"253 107 OFFCURVE",
"253 123 CURVE SMOOTH",
"253 197 OFFCURVE",
"214 231 OFFCURVE",
"158 231 CURVE SMOOTH",
"65 231 OFFCURVE",
"0 135 OFFCURVE",
"0 55 CURVE SMOOTH",
"0 -1 OFFCURVE",
"32 -50 OFFCURVE",
"108 -50 CURVE SMOOTH"
);
},
{
closed = 1;
nodes = (
"329 -192 OFFCURVE",
"348 -158 OFFCURVE",
"348 -125 CURVE SMOOTH",
"348 -98 OFFCURVE",
"335 -9 OFFCURVE",
"314 -9 CURVE SMOOTH",
"293 -9 OFFCURVE",
"243 -95 OFFCURVE",
"243 -139 CURVE SMOOTH",
"243 -158 OFFCURVE",
"253 -192 OFFCURVE",
"291 -192 CURVE SMOOTH"
);
},
{
closed = 1;
nodes = (
"97 40 OFFCURVE",
"72 73 OFFCURVE",
"72 99 CURVE SMOOTH",
"72 120 OFFCURVE",
"88 138 OFFCURVE",
"119 138 CURVE SMOOTH",
"165 138 OFFCURVE",
"203 103 OFFCURVE",
"203 47 CURVE",
"188 43 OFFCURVE",
"172 40 OFFCURVE",
"156 40 CURVE SMOOTH"
);
},
{
closed = 1;
nodes = (
"354 261 OFFCURVE",
"335 272 OFFCURVE",
"335 300 CURVE SMOOTH",
"335 334 OFFCURVE",
"364 360 OFFCURVE",
"393 360 CURVE SMOOTH",
"424 360 OFFCURVE",
"438 342 OFFCURVE",
"438 312 CURVE SMOOTH",
"438 288 OFFCURVE",
"416 261 OFFCURVE",
"379 261 CURVE SMOOTH"
);
},
{
closed = 1;
nodes = (
"433 165 OFFCURVE",
"505 272 OFFCURVE",
"505 357 CURVE SMOOTH",
"505 414 OFFCURVE",
"474 461 OFFCURVE",
"402 461 CURVE SMOOTH",
"364 461 OFFCURVE",
"319 441 OFFCURVE",
"252 409 CURVE",
"297 478 OFFCURVE",
"371 539 OFFCURVE",
"447 539 CURVE SMOOTH",
"467 539 OFFCURVE",
"487 534 OFFCURVE",
"499 526 CURVE SMOOTH",
"516 515 OFFCURVE",
"517 506 OFFCURVE",
"527 506 CURVE SMOOTH",
"561 506 OFFCURVE",
"603 549 OFFCURVE",
"603 585 CURVE SMOOTH",
"603 611 OFFCURVE",
"584 635 OFFCURVE",
"529 635 CURVE SMOOTH",
"464 635 OFFCURVE",
"345 593 OFFCURVE",
"240 472 CURVE SMOOTH",
"212 439 OFFCURVE",
"186 391 OFFCURVE",
"186 353 CURVE SMOOTH",
"187 324 OFFCURVE",
"195 308 OFFCURVE",
"222 308 CURVE SMOOTH",
"239 308 OFFCURVE",
"281 331 OFFCURVE",
"307 338 CURVE",
"277 302 OFFCURVE",
"269 268 OFFCURVE",
"269 243 CURVE SMOOTH",
"269 197 OFFCURVE",
"298 165 OFFCURVE",
"339 165 CURVE SMOOTH"
);
}
);
width = 801;
}
);
leftKerningGroup = knPA;
leftMetricsKey = knPA;
rightKerningGroup = knGHA;
unicode = 0C98;
},
{
color = 4;
glyphname = knNGA;
lastChange = "2016-01-01 06:02:12 +0000";
layers = (
{
guideLines = (
{
position = "{470, 502}";
}
);
layerId = "59118767-2CA9-48AA-9373-694D24C960D8";
name = Regular;
paths = (
{
closed = 1;
nodes = (
"193 -50 OFFCURVE",
"257 -21 OFFCURVE",
"317 43 CURVE",
"333 4 OFFCURVE",
"370 -14 OFFCURVE",
"417 -14 CURVE SMOOTH",
"533 -14 OFFCURVE",
"650 97 OFFCURVE",
"650 232 CURVE SMOOTH",
"650 281 OFFCURVE",
"635 312 OFFCURVE",
"607 312 CURVE SMOOTH",
"564 312 OFFCURVE",
"529 235 OFFCURVE",
"529 215 CURVE SMOOTH",
"529 196 OFFCURVE",
"563 188 OFFCURVE",
"563 148 CURVE SMOOTH",
"563 108 OFFCURVE",
"519 83 OFFCURVE",
"476 83 CURVE SMOOTH",
"430 83 OFFCURVE",
"394 112 OFFCURVE",
"381 152 CURVE SMOOTH",
"377 164 OFFCURVE",
"374 173 OFFCURVE",
"362 173 CURVE SMOOTH",
"350 173 OFFCURVE",
"344 167 OFFCURVE",
"325 143 CURVE SMOOTH",
"302 112 OFFCURVE",
"257 54 OFFCURVE",
"211 54 CURVE SMOOTH",
"186 54 OFFCURVE",
"175 70 OFFCURVE",
"175 100 CURVE SMOOTH",
"175 202 OFFCURVE",
"307 290 OFFCURVE",
"307 420 CURVE SMOOTH",
"307 428 OFFCURVE",
"307 436 OFFCURVE",
"305 443 CURVE",
"329 495 OFFCURVE",
"370 521 OFFCURVE",
"405 521 CURVE SMOOTH",
"443 521 OFFCURVE",
"475 492 OFFCURVE",
"475 435 CURVE SMOOTH",
"475 421 OFFCURVE",
"473 405 OFFCURVE",
"469 388 CURVE SMOOTH",
"464 367 OFFCURVE",
"458 337 OFFCURVE",
"478 337 CURVE SMOOTH",
"489 337 OFFCURVE",
"504 347 OFFCURVE",
"518 362 CURVE SMOOTH",
"546 394 OFFCURVE",
"566 449 OFFCURVE",
"566 501 CURVE SMOOTH",
"566 567 OFFCURVE",
"525 614 OFFCURVE",
"459 614 CURVE SMOOTH",
"399 614 OFFCURVE",
"327 571 OFFCURVE",
"277 503 CURVE",
"263 515 OFFCURVE",
"243 523 OFFCURVE",
"217 523 CURVE SMOOTH",
"109 523 OFFCURVE",
"40 405 OFFCURVE",
"40 315 CURVE SMOOTH",
"40 258 OFFCURVE",
"67 212 OFFCURVE",
"127 212 CURVE SMOOTH",
"138 212 OFFCURVE",
"149 213 OFFCURVE",
"159 217 CURVE",
"119 157 OFFCURVE",
"70 93 OFFCURVE",
"70 29 CURVE SMOOTH",
"70 -18 OFFCURVE",
"97 -50 OFFCURVE",
"146 -50 CURVE SMOOTH"
);
},
{
closed = 1;
nodes = (
"132 287 OFFCURVE",
"111 325 OFFCURVE",
"111 363 CURVE SMOOTH",
"111 399 OFFCURVE",
"131 435 OFFCURVE",
"168 435 CURVE SMOOTH",
"193 435 OFFCURVE",
"217 412 OFFCURVE",
"217 361 CURVE SMOOTH",
"217 336 OFFCURVE",
"211 313 OFFCURVE",
"202 292 CURVE",
"193 288 OFFCURVE",
"184 287 OFFCURVE",
"176 287 CURVE SMOOTH"
);
},
{
closed = 1;
nodes = (
"416 269 OFFCURVE",
"438 292 OFFCURVE",
"438 324 CURVE SMOOTH",
"438 353 OFFCURVE",
"418 373 OFFCURVE",
"388 373 CURVE SMOOTH",
"357 373 OFFCURVE",
"334 351 OFFCURVE",
"334 320 CURVE SMOOTH",
"334 290 OFFCURVE",
"355 269 OFFCURVE",
"385 269 CURVE SMOOTH"
);
}
);
width = 682;
}
);
leftKerningGroup = knO;
leftMetricsKey = knO;
rightKerningGroup = knPA;
rightMetricsKey = knPA;
unicode = 0C99;
},
{
color = 4;
glyphname = knCA;
lastChange = "2016-01-01 06:02:12 +0000";
layers = (
{
layerId = "59118767-2CA9-48AA-9373-694D24C960D8";
name = Regular;
paths = (
{
closed = 1;
nodes = (
"194 -50 OFFCURVE",
"260 -19 OFFCURVE",
"321 47 CURVE",
"338 15 OFFCURVE",
"379 -14 OFFCURVE",
"440 -14 CURVE SMOOTH",
"555 -14 OFFCURVE",
"710 88 OFFCURVE",
"710 204 CURVE SMOOTH",
"710 263 OFFCURVE",
"669 310 OFFCURVE",
"581 310 CURVE SMOOTH",
"555 310 OFFCURVE",
"531 306 OFFCURVE",
"511 300 CURVE",
"546 318 OFFCURVE",
"591 335 OFFCURVE",
"637 335 CURVE SMOOTH",
"669 335 OFFCURVE",
"693 327 OFFCURVE",
"712 314 CURVE SMOOTH",
"730 301 OFFCURVE",
"731 295 OFFCURVE",
"741 295 CURVE SMOOTH",
"768 295 OFFCURVE",
"815 338 OFFCURVE",
"815 375 CURVE SMOOTH",
"815 399 OFFCURVE",
"794 424 OFFCURVE",
"735 424 CURVE SMOOTH",
"681 424 OFFCURVE",
"622 404 OFFCURVE",
"568 375 CURVE",
"592 404 OFFCURVE",
"602 426 OFFCURVE",
"602 444 CURVE SMOOTH",
"602 463 OFFCURVE",
"588 479 OFFCURVE",
"562 479 CURVE SMOOTH",
"533 479 OFFCURVE",
"479 446 OFFCURVE",
"430 411 CURVE",
"475 477 OFFCURVE",
"545 532 OFFCURVE",
"620 532 CURVE SMOOTH",
"637 532 OFFCURVE",
"656 529 OFFCURVE",
"670 519 CURVE SMOOTH",
"685 508 OFFCURVE",
"687 499 OFFCURVE",
"700 499 CURVE SMOOTH",
"729 499 OFFCURVE",
"774 540 OFFCURVE",
"774 578 CURVE SMOOTH",
"774 604 OFFCURVE",
"753 628 OFFCURVE",
"703 628 CURVE SMOOTH",
"632 628 OFFCURVE",
"503 577 OFFCURVE",
"411 465 CURVE SMOOTH",
"383 431 OFFCURVE",
"357 378 OFFCURVE",
"357 345 CURVE SMOOTH",
"357 327 OFFCURVE",
"365 315 OFFCURVE",
"384 315 CURVE SMOOTH",
"417 315 OFFCURVE",
"477 369 OFFCURVE",
"500 369 CURVE SMOOTH",
"506 369 OFFCURVE",
"509 367 OFFCURVE",
"509 361 CURVE SMOOTH",
"509 337 OFFCURVE",
"477 315 OFFCURVE",
"460 300 CURVE SMOOTH",
"424 268 OFFCURVE",
"402 236 OFFCURVE",
"402 215 CURVE SMOOTH",
"402 207 OFFCURVE",
"407 204 OFFCURVE",
"415 204 CURVE SMOOTH",
"423 204 OFFCURVE",
"435 207 OFFCURVE",
"448 211 CURVE SMOOTH",
"464 216 OFFCURVE",
"487 220 OFFCURVE",
"518 220 CURVE SMOOTH",
"596 220 OFFCURVE",
"624 191 OFFCURVE",
"624 158 CURVE SMOOTH",
"624 108 OFFCURVE",
"560 84 OFFCURVE",
"501 84 CURVE SMOOTH",
"447 84 OFFCURVE",
"400 106 OFFCURVE",
"380 159 CURVE SMOOTH",
"377 167 OFFCURVE",
"371 173 OFFCURVE",
"362 173 CURVE SMOOTH",
"350 173 OFFCURVE",
"344 167 OFFCURVE",
"325 143 CURVE SMOOTH",
"302 112 OFFCURVE",
"257 54 OFFCURVE",
"211 54 CURVE SMOOTH",
"186 54 OFFCURVE",
"175 70 OFFCURVE",
"175 100 CURVE SMOOTH",
"175 202 OFFCURVE",
"307 290 OFFCURVE",
"307 420 CURVE SMOOTH",
"307 474 OFFCURVE",
"284 523 OFFCURVE",
"217 523 CURVE SMOOTH",
"109 523 OFFCURVE",
"40 405 OFFCURVE",
"40 315 CURVE SMOOTH",
"40 258 OFFCURVE",
"67 212 OFFCURVE",
"127 212 CURVE SMOOTH",
"138 212 OFFCURVE",
"149 213 OFFCURVE",
"159 217 CURVE",
"119 157 OFFCURVE",
"70 93 OFFCURVE",
"70 29 CURVE SMOOTH",
"70 -18 OFFCURVE",
"97 -50 OFFCURVE",
"146 -50 CURVE SMOOTH"
);
},
{
closed = 1;
nodes = (
"132 287 OFFCURVE",
"111 325 OFFCURVE",
"111 363 CURVE SMOOTH",
"111 399 OFFCURVE",
"131 435 OFFCURVE",
"168 435 CURVE SMOOTH",
"193 435 OFFCURVE",
"217 412 OFFCURVE",
"217 361 CURVE SMOOTH",
"217 336 OFFCURVE",
"211 313 OFFCURVE",
"202 292 CURVE",
"193 288 OFFCURVE",
"184 287 OFFCURVE",
"176 287 CURVE SMOOTH"
);
}
);
width = 822;
}
);
leftKerningGroup = knO;
leftMetricsKey = knO;
rightKerningGroup = knKA;
rightMetricsKey = knKA;
unicode = 0C9A;
},
{
color = 4;
glyphname = knCHA;
lastChange = "2016-01-01 06:02:11 +0000";
layers = (
{
layerId = "59118767-2CA9-48AA-9373-694D24C960D8";
name = Regular;
paths = (
{
closed = 1;
nodes = (
"260 -14 OFFCURVE",
"322 6 OFFCURVE",
"377 45 CURVE",
"399 5 OFFCURVE",
"440 -13 OFFCURVE",
"485 -13 CURVE SMOOTH",
"638 -13 OFFCURVE",
"757 152 OFFCURVE",
"757 302 CURVE SMOOTH",
"757 385 OFFCURVE",
"720 462 OFFCURVE",
"619 462 CURVE SMOOTH",
"592 462 OFFCURVE",
"561 457 OFFCURVE",
"528 448 CURVE",
"572 497 OFFCURVE",
"629 533 OFFCURVE",
"690 533 CURVE SMOOTH",
"707 533 OFFCURVE",
"726 530 OFFCURVE",
"740 520 CURVE SMOOTH",
"755 509 OFFCURVE",
"757 500 OFFCURVE",
"770 500 CURVE SMOOTH",
"799 500 OFFCURVE",
"844 541 OFFCURVE",
"844 579 CURVE SMOOTH",
"844 605 OFFCURVE",
"824 629 OFFCURVE",
"772 629 CURVE SMOOTH",
"677 629 OFFCURVE",
"548 550 OFFCURVE",
"481 466 CURVE SMOOTH",
"452 429 OFFCURVE",
"443 402 OFFCURVE",
"443 382 CURVE SMOOTH",
"443 366 OFFCURVE",
"446 348 OFFCURVE",
"462 348 CURVE SMOOTH",
"473 348 OFFCURVE",
"519 358 OFFCURVE",
"553 358 CURVE SMOOTH",
"628 358 OFFCURVE",
"660 308 OFFCURVE",
"660 236 CURVE SMOOTH",
"660 163 OFFCURVE",
"614 83 OFFCURVE",
"536 83 CURVE SMOOTH",
"499 83 OFFCURVE",
"453 106 OFFCURVE",
"440 152 CURVE",
"439 169 OFFCURVE",
"431 173 OFFCURVE",
"423 173 CURVE SMOOTH",
"411 173 OFFCURVE",
"403 166 OFFCURVE",
"392 152 CURVE",
"352 106 OFFCURVE",
"309 80 OFFCURVE",
"254 80 CURVE SMOOTH",
"183 80 OFFCURVE",
"126 128 OFFCURVE",
"126 207 CURVE SMOOTH",
"126 257 OFFCURVE",
"147 312 OFFCURVE",
"182 346 CURVE SMOOTH",
"202 366 OFFCURVE",
"227 381 OFFCURVE",
"255 381 CURVE SMOOTH",
"290 381 OFFCURVE",
"309 356 OFFCURVE",
"309 331 CURVE SMOOTH",
"309 303 OFFCURVE",
"285 268 OFFCURVE",
"235 251 CURVE SMOOTH",
"221 246 OFFCURVE",
"207 235 OFFCURVE",
"207 221 CURVE SMOOTH",
"207 216 OFFCURVE",
"209 210 OFFCURVE",
"214 204 CURVE SMOOTH",
"221 195 OFFCURVE",
"233 190 OFFCURVE",
"248 190 CURVE SMOOTH",
"309 190 OFFCURVE",
"416 263 OFFCURVE",
"416 354 CURVE SMOOTH",
"416 416 OFFCURVE",
"372 460 OFFCURVE",
"301 460 CURVE SMOOTH",
"151 460 OFFCURVE",
"29 304 OFFCURVE",
"29 154 CURVE SMOOTH",
"29 41 OFFCURVE",
"108 -14 OFFCURVE",
"203 -14 CURVE SMOOTH"
);
},
{
closed = 1;
nodes = (
"394 -192 OFFCURVE",
"413 -158 OFFCURVE",
"413 -125 CURVE SMOOTH",
"413 -98 OFFCURVE",
"400 -9 OFFCURVE",
"379 -9 CURVE SMOOTH",
"358 -9 OFFCURVE",
"308 -95 OFFCURVE",
"308 -139 CURVE SMOOTH",
"308 -158 OFFCURVE",
"318 -192 OFFCURVE",
"356 -192 CURVE SMOOTH"
);
}
);
width = 806;
}
);
leftKerningGroup = knLA;
leftMetricsKey = knLA;
rightKerningGroup = knBHA;
rightMetricsKey = knBHA;
unicode = 0C9B;
},
{
color = 4;
glyphname = knJA;
lastChange = "2016-01-01 06:02:12 +0000";
layers = (
{
layerId = "59118767-2CA9-48AA-9373-694D24C960D8";
name = Regular;
paths = (
{
closed = 1;
nodes = (
"193 -50 OFFCURVE",
"257 -21 OFFCURVE",
"317 43 CURVE",
"333 4 OFFCURVE",
"370 -14 OFFCURVE",
"417 -14 CURVE SMOOTH",
"533 -14 OFFCURVE",
"650 97 OFFCURVE",
"650 232 CURVE SMOOTH",
"650 281 OFFCURVE",
"635 312 OFFCURVE",
"607 312 CURVE SMOOTH",
"564 312 OFFCURVE",
"529 235 OFFCURVE",
"529 215 CURVE SMOOTH",
"529 196 OFFCURVE",
"563 188 OFFCURVE",
"563 148 CURVE SMOOTH",
"563 108 OFFCURVE",
"519 83 OFFCURVE",
"476 83 CURVE SMOOTH",
"435 83 OFFCURVE",
"398 105 OFFCURVE",
"382 153 CURVE SMOOTH",
"378 163 OFFCURVE",
"376 173 OFFCURVE",
"362 173 CURVE SMOOTH",
"350 173 OFFCURVE",
"344 167 OFFCURVE",
"325 143 CURVE SMOOTH",
"302 112 OFFCURVE",
"257 54 OFFCURVE",
"211 54 CURVE SMOOTH",
"186 54 OFFCURVE",
"175 70 OFFCURVE",
"175 100 CURVE SMOOTH",
"175 169 OFFCURVE",
"236 232 OFFCURVE",
"275 306 CURVE",
"290 299 OFFCURVE",
"308 296 OFFCURVE",
"328 296 CURVE SMOOTH",
"444 296 OFFCURVE",
"551 417 OFFCURVE",
"551 552 CURVE SMOOTH",
"551 601 OFFCURVE",
"536 612 OFFCURVE",
"508 612 CURVE SMOOTH",
"465 612 OFFCURVE",
"430 555 OFFCURVE",
"430 535 CURVE SMOOTH",
"430 516 OFFCURVE",
"464 508 OFFCURVE",
"464 468 CURVE SMOOTH",
"464 428 OFFCURVE",
"420 383 OFFCURVE",
"377 383 CURVE SMOOTH",
"348 383 OFFCURVE",
"324 394 OFFCURVE",
"307 412 CURVE",
"307 486 OFFCURVE",
"277 523 OFFCURVE",
"217 523 CURVE SMOOTH",
"109 523 OFFCURVE",
"40 405 OFFCURVE",
"40 315 CURVE SMOOTH",
"40 258 OFFCURVE",
"67 212 OFFCURVE",
"127 212 CURVE SMOOTH",
"138 212 OFFCURVE",
"149 213 OFFCURVE",
"159 217 CURVE",
"119 157 OFFCURVE",
"70 93 OFFCURVE",
"70 29 CURVE SMOOTH",
"70 -18 OFFCURVE",
"97 -50 OFFCURVE",
"146 -50 CURVE SMOOTH"
);
},
{
closed = 1;
nodes = (
"132 287 OFFCURVE",
"111 325 OFFCURVE",
"111 363 CURVE SMOOTH",
"111 399 OFFCURVE",
"131 435 OFFCURVE",
"168 435 CURVE SMOOTH",
"193 435 OFFCURVE",
"217 412 OFFCURVE",
"217 361 CURVE SMOOTH",
"217 336 OFFCURVE",
"211 313 OFFCURVE",
"202 292 CURVE",
"193 288 OFFCURVE",
"184 287 OFFCURVE",
"176 287 CURVE SMOOTH"
);
}
);
width = 682;
}
);
leftKerningGroup = knO;
leftMetricsKey = knO;
rightKerningGroup = knPA;
rightMetricsKey = knPA;
unicode = 0C9C;
},
{
color = 4;
glyphname = knJHA;
lastChange = "2016-01-01 06:02:11 +0000";
layers = (
{
guideLines = (
{
position = "{676, 49}";
}
);
layerId = "59118767-2CA9-48AA-9373-694D24C960D8";
name = Regular;
paths = (
{
closed = 1;
nodes = (
"523 -12 OFFCURVE",
"575 7 OFFCURVE",
"619 39 CURVE",
"653 -1 OFFCURVE",
"708 -12 OFFCURVE",
"748 -12 CURVE SMOOTH",
"880 -12 OFFCURVE",
"1007 103 OFFCURVE",
"1007 267 CURVE SMOOTH",
"1007 377 OFFCURVE",
"954 464 OFFCURVE",
"897 464 CURVE SMOOTH",
"861 464 OFFCURVE",
"822 412 OFFCURVE",
"822 379 CURVE SMOOTH",
"822 365 OFFCURVE",
"829 360 OFFCURVE",
"835 355 CURVE SMOOTH",
"870 326 OFFCURVE",
"923 292 OFFCURVE",
"923 211 CURVE SMOOTH",
"923 117 OFFCURVE",
"857 85 OFFCURVE",
"791 85 CURVE SMOOTH",
"755 85 OFFCURVE",
"717 95 OFFCURVE",
"693 125 CURVE",
"716 166 OFFCURVE",
"729 214 OFFCURVE",
"729 267 CURVE SMOOTH",
"729 377 OFFCURVE",
"676 464 OFFCURVE",
"619 464 CURVE SMOOTH",
"583 464 OFFCURVE",
"544 412 OFFCURVE",
"544 379 CURVE SMOOTH",
"544 365 OFFCURVE",
"551 360 OFFCURVE",
"557 355 CURVE SMOOTH",
"592 326 OFFCURVE",
"645 292 OFFCURVE",
"645 211 CURVE SMOOTH",
"645 117 OFFCURVE",
"579 85 OFFCURVE",
"513 85 CURVE SMOOTH",
"478 85 OFFCURVE",
"440 95 OFFCURVE",
"417 124 CURVE",
"333 48 LINE",
"368 0 OFFCURVE",
"428 -12 OFFCURVE",
"470 -12 CURVE SMOOTH"
);
},
{
closed = 1;
nodes = (
"168 90 OFFCURVE",
"136 129 OFFCURVE",
"136 183 CURVE SMOOTH",
"136 240 OFFCURVE",
"172 304 OFFCURVE",
"237 356 CURVE",
"244 357 OFFCURVE",
"252 357 OFFCURVE",
"259 357 CURVE SMOOTH",
"342 357 OFFCURVE",
"410 326 OFFCURVE",
"410 239 CURVE SMOOTH",
"410 131 OFFCURVE",
"304 90 OFFCURVE",
"235 90 CURVE SMOOTH"
);
},
{
closed = 1;
nodes = (
"653 -192 OFFCURVE",
"672 -158 OFFCURVE",
"672 -125 CURVE SMOOTH",
"672 -98 OFFCURVE",
"659 -9 OFFCURVE",
"638 -9 CURVE SMOOTH",
"617 -9 OFFCURVE",
"567 -95 OFFCURVE",
"567 -139 CURVE SMOOTH",
"567 -158 OFFCURVE",
"577 -192 OFFCURVE",
"615 -192 CURVE SMOOTH"
);
},
{
closed = 1;
nodes = (
"363 -13 OFFCURVE",
"496 153 OFFCURVE",
"496 300 CURVE SMOOTH",
"496 416 OFFCURVE",
"412 462 OFFCURVE",
"317 462 CURVE SMOOTH",
"247 462 OFFCURVE",
"167 437 OFFCURVE",
"113 408 CURVE",
"158 478 OFFCURVE",
"232 539 OFFCURVE",
"308 539 CURVE SMOOTH",
"328 539 OFFCURVE",
"348 534 OFFCURVE",
"360 526 CURVE SMOOTH",
"377 515 OFFCURVE",
"378 506 OFFCURVE",
"388 506 CURVE SMOOTH",
"422 506 OFFCURVE",
"464 549 OFFCURVE",
"464 585 CURVE SMOOTH",
"464 611 OFFCURVE",
"445 635 OFFCURVE",
"390 635 CURVE SMOOTH",
"325 635 OFFCURVE",
"206 593 OFFCURVE",
"101 472 CURVE SMOOTH",
"70 436 OFFCURVE",
"47 389 OFFCURVE",
"47 348 CURVE SMOOTH",
"47 331 OFFCURVE",
"54 310 OFFCURVE",
"67 310 CURVE SMOOTH",
"79 310 OFFCURVE",
"106 325 OFFCURVE",
"146 338 CURVE",
"85 286 OFFCURVE",
"48 207 OFFCURVE",
"48 131 CURVE SMOOTH",
"48 52 OFFCURVE",
"88 -13 OFFCURVE",
"194 -13 CURVE SMOOTH"
);
}
);
width = 1037;
}
);
leftKerningGroup = knRA;
leftMetricsKey = knRA;
rightKerningGroup = knJHA;
unicode = 0C9D;
},
{
color = 4;
glyphname = knNYA;
lastChange = "2016-01-01 06:02:12 +0000";
layers = (
{
background = {
paths = (
{
closed = 1;
nodes = (
"526 -13 OFFCURVE",
"550 -1 OFFCURVE",
"566 13 CURVE SMOOTH",
"586 31 OFFCURVE",
"595 52 OFFCURVE",
"595 78 CURVE SMOOTH",
"595 182 OFFCURVE",
"446 251 OFFCURVE",
"307 251 CURVE SMOOTH",
"148 251 OFFCURVE",
"42 161 OFFCURVE",
"42 79 CURVE SMOOTH",
"42 20 OFFCURVE",
"96 -11 OFFCURVE",
"169 -11 CURVE SMOOTH",
"260 -11 OFFCURVE",
"384 37 OFFCURVE",
"455 118 CURVE",
"409 156 LINE",
"358 110 OFFCURVE",
"268 78 OFFCURVE",
"207 78 CURVE SMOOTH",
"165 78 OFFCURVE",
"137 93 OFFCURVE",
"137 119 CURVE SMOOTH",
"137 157 OFFCURVE",
"194 188 OFFCURVE",
"264 188 CURVE SMOOTH",
"342 188 OFFCURVE",
"460 148 OFFCURVE",
"497 -2 CURVE SMOOTH",
"498 -7 OFFCURVE",
"500 -13 OFFCURVE",
"511 -13 CURVE SMOOTH"
);
},
{
closed = 1;
nodes = (
"711 254 OFFCURVE",
"711 247 CURVE SMOOTH",
"711 229 OFFCURVE",
"719 224 OFFCURVE",
"730 226 CURVE SMOOTH",
"774 235 OFFCURVE",
"813 323 OFFCURVE",
"813 390 CURVE SMOOTH",
"813 456 OFFCURVE",
"772 503 OFFCURVE",
"706 503 CURVE SMOOTH",
"628 503 OFFCURVE",
"530 430 OFFCURVE",
"485 325 CURVE",
"540 295 LINE",
"558 372 OFFCURVE",
"609 410 OFFCURVE",
"652 410 CURVE SMOOTH",
"690 410 OFFCURVE",
"722 381 OFFCURVE",
"722 324 CURVE SMOOTH",
"722 310 OFFCURVE",
"720 294 OFFCURVE",
"716 277 CURVE SMOOTH",
"713 264 OFFCURVE"
);
},
{
closed = 1;
nodes = (
"470 178 LINE",
"526 247 OFFCURVE",
"562 324 OFFCURVE",
"562 390 CURVE SMOOTH",
"562 464 OFFCURVE",
"518 501 OFFCURVE",
"463 501 CURVE SMOOTH",
"402 501 OFFCURVE",
"321 456 OFFCURVE",
"275 369 CURVE",
"328 368 LINE",
"307 436 OFFCURVE",
"253 466 OFFCURVE",
"201 466 CURVE SMOOTH",
"105 466 OFFCURVE",
"22 365 OFFCURVE",
"22 326 CURVE SMOOTH",
"22 308 OFFCURVE",
"40 297 OFFCURVE",
"54 297 CURVE SMOOTH",
"62 297 OFFCURVE",
"68 300 OFFCURVE",
"71 304 CURVE SMOOTH",
"102 346 OFFCURVE",
"116 368 OFFCURVE",
"160 368 CURVE SMOOTH",
"239 368 OFFCURVE",
"224 297 OFFCURVE",
"244 286 CURVE SMOOTH",
"247 284 OFFCURVE",
"257 282 OFFCURVE",
"262 282 CURVE SMOOTH",
"271 282 OFFCURVE",
"278 287 OFFCURVE",
"289 300 CURVE SMOOTH",
"317 334 OFFCURVE",
"351 398 OFFCURVE",
"410 398 CURVE SMOOTH",
"444 398 OFFCURVE",
"471 377 OFFCURVE",
"471 337 CURVE SMOOTH",
"471 302 OFFCURVE",
"450 250 OFFCURVE",
"416 206 CURVE"
);
}
);
};
guideLines = (
{
position = "{1200, 309}";
},
{
position = "{606, 502}";
}
);
layerId = "59118767-2CA9-48AA-9373-694D24C960D8";
name = Regular;
paths = (
{
closed = 1;
nodes = (
"526 -13 OFFCURVE",
"550 -1 OFFCURVE",
"566 13 CURVE SMOOTH",
"586 31 OFFCURVE",
"595 52 OFFCURVE",
"595 78 CURVE SMOOTH",
"595 133 OFFCURVE",
"553 178 OFFCURVE",
"493 209 CURVE",
"523 252 OFFCURVE",
"545 296 OFFCURVE",
"555 339 CURVE",
"579 386 OFFCURVE",
"618 410 OFFCURVE",
"652 410 CURVE SMOOTH",
"690 410 OFFCURVE",
"722 381 OFFCURVE",
"722 324 CURVE SMOOTH",
"722 296 OFFCURVE",
"711 263 OFFCURVE",
"711 247 CURVE SMOOTH",
"711 231 OFFCURVE",
"717 226 OFFCURVE",
"726 226 CURVE SMOOTH",
"763 224 OFFCURVE",
"813 316 OFFCURVE",
"813 390 CURVE SMOOTH",
"813 456 OFFCURVE",
"772 503 OFFCURVE",
"706 503 CURVE SMOOTH",
"658 503 OFFCURVE",
"603 476 OFFCURVE",
"557 430 CURVE",
"544 477 OFFCURVE",
"507 501 OFFCURVE",
"463 501 CURVE SMOOTH",
"414 501 OFFCURVE",
"351 472 OFFCURVE",
"305 414 CURVE",
"278 450 OFFCURVE",
"239 466 OFFCURVE",
"201 466 CURVE SMOOTH",
"105 466 OFFCURVE",
"22 365 OFFCURVE",
"22 326 CURVE SMOOTH",
"22 308 OFFCURVE",
"40 297 OFFCURVE",
"54 297 CURVE SMOOTH",
"68 297 OFFCURVE",
"70 303 OFFCURVE",
"80 316 CURVE SMOOTH",
"103 347 OFFCURVE",
"121 368 OFFCURVE",
"163 368 CURVE SMOOTH",
"182 368 OFFCURVE",
"199 363 OFFCURVE",
"211 351 CURVE SMOOTH",
"239 323 OFFCURVE",
"225 283 OFFCURVE",
"259 283 CURVE SMOOTH",
"268 283 OFFCURVE",
"278 287 OFFCURVE",
"289 300 CURVE SMOOTH",
"317 334 OFFCURVE",
"351 398 OFFCURVE",
"410 398 CURVE SMOOTH",
"444 398 OFFCURVE",
"471 377 OFFCURVE",
"471 337 CURVE SMOOTH",
"471 309 OFFCURVE",
"457 269 OFFCURVE",
"434 232 CURVE",
"394 244 OFFCURVE",
"350 251 OFFCURVE",
"307 251 CURVE SMOOTH",
"148 251 OFFCURVE",
"42 161 OFFCURVE",
"42 79 CURVE SMOOTH",
"42 20 OFFCURVE",
"96 -11 OFFCURVE",
"169 -11 CURVE SMOOTH",
"256 -11 OFFCURVE",
"372 32 OFFCURVE",
"444 106 CURVE",
"467 79 OFFCURVE",
"486 44 OFFCURVE",
"497 -2 CURVE",
"498 -7 OFFCURVE",
"500 -13 OFFCURVE",
"511 -13 CURVE SMOOTH"
);
},
{
closed = 1;
nodes = (
"165 78 OFFCURVE",
"137 93 OFFCURVE",
"137 119 CURVE SMOOTH",
"137 157 OFFCURVE",
"194 188 OFFCURVE",
"264 188 CURVE SMOOTH",
"304 188 OFFCURVE",
"354 178 OFFCURVE",
"399 147 CURVE",
"347 106 OFFCURVE",
"264 78 OFFCURVE",
"207 78 CURVE SMOOTH"
);
}
);
width = 813;
}
);
leftKerningGroup = knI;
leftMetricsKey = knI;
rightKerningGroup = knNYA;
unicode = 0C9E;
},
{
color = 4;
glyphname = knTTA;
lastChange = "2016-01-01 06:02:12 +0000";
layers = (
{
anchors = (
{
name = bottom;
position = "{402, -90}";
}
);
layerId = "59118767-2CA9-48AA-9373-694D24C960D8";
name = Regular;
paths = (
{
closed = 1;
nodes = (
"179 -45 OFFCURVE",
"254 -12 OFFCURVE",
"329 61 CURVE",
"349 12 OFFCURVE",
"418 -13 OFFCURVE",
"470 -13 CURVE SMOOTH",
"608 -13 OFFCURVE",
"716 125 OFFCURVE",
"716 208 CURVE SMOOTH",
"716 258 OFFCURVE",
"693 322 OFFCURVE",
"616 334 CURVE",
"664 368 OFFCURVE",
"685 409 OFFCURVE",
"685 444 CURVE SMOOTH",
"685 488 OFFCURVE",
"650 523 OFFCURVE",
"591 523 CURVE SMOOTH",
"563 523 OFFCURVE",
"537 511 OFFCURVE",
"523 493 CURVE SMOOTH",
"514 481 OFFCURVE",
"510 473 OFFCURVE",
"510 467 CURVE SMOOTH",
"510 452 OFFCURVE",
"533 450 OFFCURVE",
"550 441 CURVE SMOOTH",
"565 433 OFFCURVE",
"577 418 OFFCURVE",
"577 399 CURVE SMOOTH",
"577 376 OFFCURVE",
"560 349 OFFCURVE",
"513 325 CURVE",
"453 304 OFFCURVE",
"438 260 OFFCURVE",
"438 246 CURVE SMOOTH",
"438 237 OFFCURVE",
"447 234 OFFCURVE",
"454 234 CURVE SMOOTH",
"468 234 OFFCURVE",
"476 240 OFFCURVE",
"534 240 CURVE SMOOTH",
"593 240 OFFCURVE",
"631 201 OFFCURVE",
"631 161 CURVE SMOOTH",
"631 109 OFFCURVE",
"568 81 OFFCURVE",
"512 81 CURVE SMOOTH",
"461 81 OFFCURVE",
"413 104 OFFCURVE",
"406 158 CURVE SMOOTH",
"405 166 OFFCURVE",
"399 170 OFFCURVE",
"391 170 CURVE SMOOTH",
"382 170 OFFCURVE",
"371 164 OFFCURVE",
"360 152 CURVE SMOOTH",
"340 129 OFFCURVE",
"257 55 OFFCURVE",
"184 55 CURVE SMOOTH",
"161 55 OFFCURVE",
"147 63 OFFCURVE",
"147 85 CURVE SMOOTH",
"147 97 OFFCURVE",
"151 113 OFFCURVE",
"159 135 CURVE",
"164 134 OFFCURVE",
"169 134 OFFCURVE",
"174 134 CURVE SMOOTH",
"279 134 OFFCURVE",
"384 210 OFFCURVE",
"384 286 CURVE SMOOTH",
"384 323 OFFCURVE",
"362 352 OFFCURVE",
"319 352 CURVE SMOOTH",
"270 352 OFFCURVE",
"204 315 OFFCURVE",
"163 256 CURVE",
"158 273 OFFCURVE",
"156 293 OFFCURVE",
"156 314 CURVE SMOOTH",
"156 366 OFFCURVE",
"169 427 OFFCURVE",
"190 479 CURVE SMOOTH",
"193 487 OFFCURVE",
"195 494 OFFCURVE",
"195 499 CURVE SMOOTH",
"195 510 OFFCURVE",
"188 515 OFFCURVE",
"178 515 CURVE SMOOTH",
"152 515 OFFCURVE",
"119 496 OFFCURVE",
"100 468 CURVE SMOOTH",
"88 449 OFFCURVE",
"79 427 OFFCURVE",
"74 402 CURVE SMOOTH",
"66 364 OFFCURVE",
"61 325 OFFCURVE",
"61 289 CURVE SMOOTH",
"61 239 OFFCURVE",
"70 195 OFFCURVE",
"95 167 CURVE",
"63 117 OFFCURVE",
"49 73 OFFCURVE",
"49 38 CURVE SMOOTH",
"49 -13 OFFCURVE",
"79 -45 OFFCURVE",
"126 -45 CURVE SMOOTH"
);
},
{
closed = 1;
nodes = (
"218 198 OFFCURVE",
"206 201 OFFCURVE",
"197 207 CURVE",
"217 245 OFFCURVE",
"256 274 OFFCURVE",
"282 274 CURVE SMOOTH",
"298 274 OFFCURVE",
"308 262 OFFCURVE",
"308 248 CURVE SMOOTH",
"308 222 OFFCURVE",
"267 198 OFFCURVE",
"231 198 CURVE SMOOTH"
);
}
);
width = 746;
}
);
leftKerningGroup = knTTA;
rightKerningGroup = knTTA;
unicode = 0C9F;
},
{
color = 4;
glyphname = knTTHA;
lastChange = "2016-01-01 06:02:12 +0000";
layers = (
{
layerId = "59118767-2CA9-48AA-9373-694D24C960D8";
name = Regular;
paths = (
{
closed = 1;
nodes = (
"363 -13 OFFCURVE",
"496 153 OFFCURVE",
"496 300 CURVE SMOOTH",
"496 416 OFFCURVE",
"412 462 OFFCURVE",
"317 462 CURVE SMOOTH",
"247 462 OFFCURVE",
"167 437 OFFCURVE",
"113 408 CURVE",
"158 478 OFFCURVE",
"232 539 OFFCURVE",
"308 539 CURVE SMOOTH",
"328 539 OFFCURVE",
"348 534 OFFCURVE",
"360 526 CURVE SMOOTH",
"377 515 OFFCURVE",
"378 506 OFFCURVE",
"388 506 CURVE SMOOTH",
"422 506 OFFCURVE",
"464 549 OFFCURVE",
"464 585 CURVE SMOOTH",
"464 611 OFFCURVE",
"445 635 OFFCURVE",
"390 635 CURVE SMOOTH",
"325 635 OFFCURVE",
"206 593 OFFCURVE",
"101 472 CURVE SMOOTH",
"70 436 OFFCURVE",
"47 389 OFFCURVE",
"47 348 CURVE SMOOTH",
"47 331 OFFCURVE",
"54 310 OFFCURVE",
"67 310 CURVE SMOOTH",
"79 310 OFFCURVE",
"106 325 OFFCURVE",
"146 338 CURVE",
"85 286 OFFCURVE",
"48 207 OFFCURVE",
"48 131 CURVE SMOOTH",
"48 52 OFFCURVE",
"88 -13 OFFCURVE",
"194 -13 CURVE SMOOTH"
);
},
{
closed = 1;
nodes = (
"168 90 OFFCURVE",
"136 129 OFFCURVE",
"136 183 CURVE SMOOTH",
"136 240 OFFCURVE",
"172 304 OFFCURVE",
"237 356 CURVE",
"244 357 OFFCURVE",
"252 357 OFFCURVE",
"259 357 CURVE SMOOTH",
"342 357 OFFCURVE",
"410 326 OFFCURVE",
"410 239 CURVE SMOOTH",
"410 131 OFFCURVE",
"304 90 OFFCURVE",
"235 90 CURVE SMOOTH"
);
},
{
closed = 1;
nodes = (
"306 169 OFFCURVE",
"328 192 OFFCURVE",
"328 224 CURVE SMOOTH",
"328 253 OFFCURVE",
"308 273 OFFCURVE",
"278 273 CURVE SMOOTH",
"247 273 OFFCURVE",
"224 251 OFFCURVE",
"224 220 CURVE SMOOTH",
"224 190 OFFCURVE",
"245 169 OFFCURVE",
"275 169 CURVE SMOOTH"
);
}
);
width = 538;
}
);
leftKerningGroup = knRA;
leftMetricsKey = knRA;
rightKerningGroup = knRA;
rightMetricsKey = knRA;
unicode = 0CA0;
},
{
color = 4;
glyphname = knDDA;
lastChange = "2016-01-01 06:02:12 +0000";
layers = (
{
layerId = "59118767-2CA9-48AA-9373-694D24C960D8";
name = Regular;
paths = (
{
closed = 1;
nodes = (
"146 -50 OFFCURVE",
"216 -20 OFFCURVE",
"278 46 CURVE",
"298 5 OFFCURVE",
"342 -14 OFFCURVE",
"391 -14 CURVE SMOOTH",
"449 -14 OFFCURVE",
"515 11 OFFCURVE",
"562 53 CURVE SMOOTH",
"615 100 OFFCURVE",
"648 162 OFFCURVE",
"648 208 CURVE SMOOTH",
"648 271 OFFCURVE",
"605 306 OFFCURVE",
"550 313 CURVE",
"555 327 OFFCURVE",
"557 340 OFFCURVE",
"557 352 CURVE SMOOTH",
"557 425 OFFCURVE",
"478 463 OFFCURVE",
"377 463 CURVE SMOOTH",
"296 463 OFFCURVE",
"200 448 OFFCURVE",
"125 417 CURVE",
"170 483 OFFCURVE",
"241 539 OFFCURVE",
"314 539 CURVE SMOOTH",
"334 539 OFFCURVE",
"355 535 OFFCURVE",
"366 526 CURVE SMOOTH",
"383 512 OFFCURVE",
"387 506 OFFCURVE",
"394 506 CURVE SMOOTH",
"428 506 OFFCURVE",
"470 549 OFFCURVE",
"470 585 CURVE SMOOTH",
"470 611 OFFCURVE",
"451 635 OFFCURVE",
"396 635 CURVE SMOOTH",
"331 635 OFFCURVE",
"212 593 OFFCURVE",
"107 472 CURVE SMOOTH",
"80 440 OFFCURVE",
"53 392 OFFCURVE",
"53 349 CURVE SMOOTH",
"54 327 OFFCURVE",
"63 310 OFFCURVE",
"74 310 CURVE SMOOTH",
"90 310 OFFCURVE",
"120 333 OFFCURVE",
"177 352 CURVE",
"95 284 OFFCURVE",
"22 145 OFFCURVE",
"22 34 CURVE SMOOTH",
"22 -19 OFFCURVE",
"47 -50 OFFCURVE",
"100 -50 CURVE SMOOTH"
);
},
{
closed = 1;
nodes = (
"134 54 OFFCURVE",
"123 76 OFFCURVE",
"123 110 CURVE SMOOTH",
"123 190 OFFCURVE",
"192 324 OFFCURVE",
"270 371 CURVE",
"292 374 OFFCURVE",
"315 375 OFFCURVE",
"338 375 CURVE SMOOTH",
"411 375 OFFCURVE",
"490 358 OFFCURVE",
"497 311 CURVE",
"437 301 OFFCURVE",
"378 264 OFFCURVE",
"378 194 CURVE SMOOTH",
"378 176 OFFCURVE",
"385 162 OFFCURVE",
"405 162 CURVE SMOOTH",
"442 162 OFFCURVE",
"493 198 OFFCURVE",
"526 240 CURVE",
"552 235 OFFCURVE",
"567 209 OFFCURVE",
"567 180 CURVE SMOOTH",
"567 118 OFFCURVE",
"515 81 OFFCURVE",
"442 81 CURVE SMOOTH",
"404 81 OFFCURVE",
"346 97 OFFCURVE",
"339 157 CURVE SMOOTH",
"338 166 OFFCURVE",
"331 173 OFFCURVE",
"322 173 CURVE SMOOTH",
"311 173 OFFCURVE",
"300 165 OFFCURVE",
"291 152 CURVE SMOOTH",
"255 99 OFFCURVE",
"199 54 OFFCURVE",
"165 54 CURVE SMOOTH"
);
}
);
width = 680;
}
);
leftKerningGroup = knDA;
leftMetricsKey = knDA;
rightKerningGroup = knDDA;
unicode = 0CA1;
},
{
color = 4;
glyphname = knDDHA;
lastChange = "2016-01-01 06:02:12 +0000";
layers = (
{
layerId = "59118767-2CA9-48AA-9373-694D24C960D8";
name = Regular;
paths = (
{
closed = 1;
nodes = (
"146 -50 OFFCURVE",
"216 -20 OFFCURVE",
"278 46 CURVE",
"298 5 OFFCURVE",
"342 -14 OFFCURVE",
"391 -14 CURVE SMOOTH",
"449 -14 OFFCURVE",
"515 11 OFFCURVE",
"562 53 CURVE SMOOTH",
"615 100 OFFCURVE",
"648 162 OFFCURVE",
"648 208 CURVE SMOOTH",
"648 271 OFFCURVE",
"605 306 OFFCURVE",
"550 313 CURVE",
"555 327 OFFCURVE",
"557 340 OFFCURVE",
"557 352 CURVE SMOOTH",
"557 425 OFFCURVE",
"478 463 OFFCURVE",
"377 463 CURVE SMOOTH",
"296 463 OFFCURVE",
"200 448 OFFCURVE",
"125 417 CURVE",
"170 483 OFFCURVE",
"241 539 OFFCURVE",
"314 539 CURVE SMOOTH",
"334 539 OFFCURVE",
"355 535 OFFCURVE",
"366 526 CURVE SMOOTH",
"383 512 OFFCURVE",
"387 506 OFFCURVE",
"394 506 CURVE SMOOTH",
"428 506 OFFCURVE",
"470 549 OFFCURVE",
"470 585 CURVE SMOOTH",
"470 611 OFFCURVE",
"451 635 OFFCURVE",
"396 635 CURVE SMOOTH",
"331 635 OFFCURVE",
"212 593 OFFCURVE",
"107 472 CURVE SMOOTH",
"80 440 OFFCURVE",
"53 392 OFFCURVE",
"53 349 CURVE SMOOTH",
"54 327 OFFCURVE",
"63 310 OFFCURVE",
"74 310 CURVE SMOOTH",
"90 310 OFFCURVE",
"120 333 OFFCURVE",
"177 352 CURVE",
"95 284 OFFCURVE",
"22 145 OFFCURVE",
"22 34 CURVE SMOOTH",
"22 -19 OFFCURVE",
"47 -50 OFFCURVE",
"100 -50 CURVE SMOOTH"
);
},
{
closed = 1;
nodes = (
"298 -192 OFFCURVE",
"317 -158 OFFCURVE",
"317 -125 CURVE SMOOTH",
"317 -98 OFFCURVE",
"304 -9 OFFCURVE",
"283 -9 CURVE SMOOTH",
"262 -9 OFFCURVE",
"212 -95 OFFCURVE",
"212 -139 CURVE SMOOTH",
"212 -158 OFFCURVE",
"222 -192 OFFCURVE",
"260 -192 CURVE SMOOTH"
);
},
{
closed = 1;
nodes = (
"134 54 OFFCURVE",
"123 76 OFFCURVE",
"123 110 CURVE SMOOTH",
"123 190 OFFCURVE",
"192 324 OFFCURVE",
"270 371 CURVE",
"292 374 OFFCURVE",
"315 375 OFFCURVE",
"338 375 CURVE SMOOTH",
"411 375 OFFCURVE",
"490 358 OFFCURVE",
"497 311 CURVE",
"437 301 OFFCURVE",
"378 264 OFFCURVE",
"378 194 CURVE SMOOTH",
"378 176 OFFCURVE",
"385 162 OFFCURVE",
"405 162 CURVE SMOOTH",
"442 162 OFFCURVE",
"493 198 OFFCURVE",
"526 240 CURVE",
"552 235 OFFCURVE",
"567 209 OFFCURVE",
"567 180 CURVE SMOOTH",
"567 118 OFFCURVE",
"515 81 OFFCURVE",
"442 81 CURVE SMOOTH",
"404 81 OFFCURVE",
"346 97 OFFCURVE",
"339 157 CURVE SMOOTH",
"338 166 OFFCURVE",
"331 173 OFFCURVE",
"322 173 CURVE SMOOTH",
"311 173 OFFCURVE",
"300 165 OFFCURVE",
"291 152 CURVE SMOOTH",
"255 99 OFFCURVE",
"199 54 OFFCURVE",
"165 54 CURVE SMOOTH"
);
}
);
width = 680;
}
);
leftKerningGroup = knDA;
leftMetricsKey = knDA;
rightKerningGroup = knDDA;
rightMetricsKey = knDDA;
unicode = 0CA2;
},
{
color = 4;
glyphname = knNNA;
lastChange = "2016-01-01 06:02:12 +0000";
layers = (
{
layerId = "59118767-2CA9-48AA-9373-694D24C960D8";
name = Regular;
paths = (
{
closed = 1;
nodes = (
"629 -14 OFFCURVE",
"729 133 OFFCURVE",
"729 280 CURVE SMOOTH",
"729 400 OFFCURVE",
"660 463 OFFCURVE",
"570 463 CURVE SMOOTH",
"528 463 OFFCURVE",
"481 450 OFFCURVE",
"434 421 CURVE",
"389 494 OFFCURVE",
"323 523 OFFCURVE",
"265 523 CURVE SMOOTH",
"157 523 OFFCURVE",
"49 447 OFFCURVE",
"49 316 CURVE SMOOTH",
"49 274 OFFCURVE",
"63 234 OFFCURVE",
"95 208 CURVE",
"65 178 OFFCURVE",
"50 140 OFFCURVE",
"50 104 CURVE SMOOTH",
"50 37 OFFCURVE",
"92 -12 OFFCURVE",
"161 -13 CURVE SMOOTH",
"186 -13 OFFCURVE",
"211 -3 OFFCURVE",
"233 19 CURVE SMOOTH",
"252 39 OFFCURVE",
"263 61 OFFCURVE",
"263 75 CURVE SMOOTH",
"263 85 OFFCURVE",
"258 89 OFFCURVE",
"248 89 CURVE SMOOTH",
"243 89 OFFCURVE",
"237 88 OFFCURVE",
"230 88 CURVE SMOOTH",
"172 88 OFFCURVE",
"126 108 OFFCURVE",
"126 155 CURVE SMOOTH",
"126 169 OFFCURVE",
"130 178 OFFCURVE",
"138 184 CURVE",
"154 179 OFFCURVE",
"173 176 OFFCURVE",
"195 176 CURVE SMOOTH",
"223 176 OFFCURVE",
"251 187 OFFCURVE",
"272 205 CURVE SMOOTH",
"290 219 OFFCURVE",
"309 247 OFFCURVE",
"309 266 CURVE SMOOTH",
"309 276 OFFCURVE",
"304 284 OFFCURVE",
"292 289 CURVE SMOOTH",
"283 293 OFFCURVE",
"273 294 OFFCURVE",
"261 294 CURVE SMOOTH",
"240 294 OFFCURVE",
"214 289 OFFCURVE",
"190 280 CURVE",
"155 298 OFFCURVE",
"137 333 OFFCURVE",
"137 367 CURVE SMOOTH",
"137 410 OFFCURVE",
"165 450 OFFCURVE",
"217 450 CURVE SMOOTH",
"268 450 OFFCURVE",
"296 417 OFFCURVE",
"347 353 CURVE SMOOTH",
"360 337 OFFCURVE",
"365 330 OFFCURVE",
"374 330 CURVE SMOOTH",
"380 330 OFFCURVE",
"388 335 OFFCURVE",
"403 343 CURVE SMOOTH",
"434 360 OFFCURVE",
"465 373 OFFCURVE",
"495 373 CURVE SMOOTH",
"577 373 OFFCURVE",
"649 312 OFFCURVE",
"649 211 CURVE SMOOTH",
"649 176 OFFCURVE",
"639 140 OFFCURVE",
"618 108 CURVE",
"621 120 OFFCURVE",
"623 133 OFFCURVE",
"623 146 CURVE SMOOTH",
"623 206 OFFCURVE",
"589 263 OFFCURVE",
"523 263 CURVE SMOOTH",
"430 263 OFFCURVE",
"365 167 OFFCURVE",
"365 87 CURVE SMOOTH",
"365 19 OFFCURVE",
"419 -14 OFFCURVE",
"483 -14 CURVE SMOOTH"
);
},
{
closed = 1;
nodes = (
"462 72 OFFCURVE",
"437 105 OFFCURVE",
"437 131 CURVE SMOOTH",
"437 152 OFFCURVE",
"453 170 OFFCURVE",
"484 170 CURVE SMOOTH",
"530 170 OFFCURVE",
"568 135 OFFCURVE",
"568 78 CURVE",
"555 74 OFFCURVE",
"539 72 OFFCURVE",
"522 72 CURVE SMOOTH"
);
}
);
width = 766;
}
);
leftKerningGroup = knTTA;
leftMetricsKey = knTTA;
rightKerningGroup = knVA;
rightMetricsKey = knVA;
unicode = 0CA3;
},
{
color = 4;
glyphname = knTA;
lastChange = "2016-01-01 06:02:12 +0000";
layers = (
{
layerId = "59118767-2CA9-48AA-9373-694D24C960D8";
name = Regular;
paths = (
{
closed = 1;
nodes = (
"417 -29 OFFCURVE",
"575 66 OFFCURVE",
"575 225 CURVE SMOOTH",
"575 321 OFFCURVE",
"492 392 OFFCURVE",
"403 392 CURVE SMOOTH",
"392 392 OFFCURVE",
"381 391 OFFCURVE",
"370 389 CURVE",
"338 426 OFFCURVE",
"297 442 OFFCURVE",
"249 442 CURVE SMOOTH",
"207 442 OFFCURVE",
"163 430 OFFCURVE",
"125 409 CURVE",
"170 475 OFFCURVE",
"242 532 OFFCURVE",
"315 532 CURVE SMOOTH",
"335 532 OFFCURVE",
"355 526 OFFCURVE",
"367 519 CURVE SMOOTH",
"379 512 OFFCURVE",
"384 499 OFFCURVE",
"395 499 CURVE SMOOTH",
"429 499 OFFCURVE",
"471 542 OFFCURVE",
"471 578 CURVE SMOOTH",
"471 604 OFFCURVE",
"452 628 OFFCURVE",
"397 628 CURVE SMOOTH",
"332 628 OFFCURVE",
"213 586 OFFCURVE",
"108 465 CURVE SMOOTH",
"75 427 OFFCURVE",
"54 379 OFFCURVE",
"54 346 CURVE SMOOTH",
"54 328 OFFCURVE",
"65 308 OFFCURVE",
"77 308 CURVE SMOOTH",
"88 308 OFFCURVE",
"110 325 OFFCURVE",
"148 338 CURVE SMOOTH",
"174 347 OFFCURVE",
"205 355 OFFCURVE",
"234 355 CURVE SMOOTH",
"252 355 OFFCURVE",
"268 353 OFFCURVE",
"284 350 CURVE",
"232 316 OFFCURVE",
"206 260 OFFCURVE",
"206 210 CURVE SMOOTH",
"206 155 OFFCURVE",
"238 107 OFFCURVE",
"300 107 CURVE SMOOTH",
"371 107 OFFCURVE",
"431 179 OFFCURVE",
"431 250 CURVE SMOOTH",
"431 276 OFFCURVE",
"424 296 OFFCURVE",
"409 310 CURVE",
"458 299 OFFCURVE",
"492 238 OFFCURVE",
"492 192 CURVE SMOOTH",
"492 95 OFFCURVE",
"391 55 OFFCURVE",
"293 55 CURVE SMOOTH",
"124 55 OFFCURVE",
"59 155 OFFCURVE",
"48 155 CURVE SMOOTH",
"26 155 OFFCURVE",
"-5 111 OFFCURVE",
"-5 85 CURVE SMOOTH",
"-5 15 OFFCURVE",
"103 -29 OFFCURVE",
"244 -29 CURVE SMOOTH"
);
},
{
closed = 1;
nodes = (
"295 173 OFFCURVE",
"268 197 OFFCURVE",
"268 241 CURVE SMOOTH",
"268 283 OFFCURVE",
"292 307 OFFCURVE",
"317 307 CURVE SMOOTH",
"343 307 OFFCURVE",
"368 283 OFFCURVE",
"368 237 CURVE SMOOTH",
"368 193 OFFCURVE",
"344 173 OFFCURVE",
"321 173 CURVE SMOOTH"
);
}
);
width = 605;
}
);
leftKerningGroup = knTA;
rightKerningGroup = knUU;
rightMetricsKey = knUU;
unicode = 0CA4;
},
{
color = 4;
glyphname = knTHA;
lastChange = "2016-01-01 06:02:12 +0000";
layers = (
{
layerId = "59118767-2CA9-48AA-9373-694D24C960D8";
name = Regular;
paths = (
{
closed = 1;
nodes = (
"146 -50 OFFCURVE",
"216 -20 OFFCURVE",
"278 47 CURVE",
"299 5 OFFCURVE",
"338 -13 OFFCURVE",
"382 -13 CURVE SMOOTH",
"502 -13 OFFCURVE",
"608 109 OFFCURVE",
"608 240 CURVE SMOOTH",
"608 390 OFFCURVE",
"509 462 OFFCURVE",
"370 462 CURVE SMOOTH",
"278 462 OFFCURVE",
"194 445 OFFCURVE",
"123 415 CURVE",
"168 482 OFFCURVE",
"240 539 OFFCURVE",
"314 539 CURVE SMOOTH",
"334 539 OFFCURVE",
"355 535 OFFCURVE",
"366 526 CURVE SMOOTH",
"383 512 OFFCURVE",
"387 506 OFFCURVE",
"394 506 CURVE SMOOTH",
"428 506 OFFCURVE",
"470 549 OFFCURVE",
"470 585 CURVE SMOOTH",
"470 611 OFFCURVE",
"451 635 OFFCURVE",
"396 635 CURVE SMOOTH",
"331 635 OFFCURVE",
"212 593 OFFCURVE",
"107 472 CURVE SMOOTH",
"77 437 OFFCURVE",
"55 394 OFFCURVE",
"53 353 CURVE SMOOTH",
"54 327 OFFCURVE",
"63 310 OFFCURVE",
"74 310 CURVE SMOOTH",
"90 310 OFFCURVE",
"114 326 OFFCURVE",
"164 340 CURVE",
"87 269 OFFCURVE",
"22 139 OFFCURVE",
"22 34 CURVE SMOOTH",
"22 -19 OFFCURVE",
"47 -50 OFFCURVE",
"100 -50 CURVE SMOOTH"
);
},
{
closed = 1;
nodes = (
"301 -192 OFFCURVE",
"320 -158 OFFCURVE",
"320 -125 CURVE SMOOTH",
"320 -98 OFFCURVE",
"307 -9 OFFCURVE",
"286 -9 CURVE SMOOTH",
"265 -9 OFFCURVE",
"215 -95 OFFCURVE",
"215 -139 CURVE SMOOTH",
"215 -158 OFFCURVE",
"225 -192 OFFCURVE",
"263 -192 CURVE SMOOTH"
);
},
{
closed = 1;
nodes = (
"134 54 OFFCURVE",
"123 76 OFFCURVE",
"123 110 CURVE SMOOTH",
"123 182 OFFCURVE",
"179 299 OFFCURVE",
"248 355 CURVE",
"270 358 OFFCURVE",
"296 359 OFFCURVE",
"324 359 CURVE SMOOTH",
"439 359 OFFCURVE",
"533 287 OFFCURVE",
"533 184 CURVE SMOOTH",
"533 129 OFFCURVE",
"488 83 OFFCURVE",
"434 83 CURVE SMOOTH",
"396 83 OFFCURVE",
"357 105 OFFCURVE",
"339 157 CURVE SMOOTH",
"336 166 OFFCURVE",
"331 173 OFFCURVE",
"322 173 CURVE SMOOTH",
"311 173 OFFCURVE",
"300 165 OFFCURVE",
"291 152 CURVE SMOOTH",
"255 99 OFFCURVE",
"199 54 OFFCURVE",
"165 54 CURVE SMOOTH"
);
},
{
closed = 1;
nodes = (
"388 199 OFFCURVE",
"410 222 OFFCURVE",
"410 254 CURVE SMOOTH",
"410 283 OFFCURVE",
"390 303 OFFCURVE",
"360 303 CURVE SMOOTH",
"329 303 OFFCURVE",
"306 281 OFFCURVE",
"306 250 CURVE SMOOTH",
"306 220 OFFCURVE",
"327 199 OFFCURVE",
"357 199 CURVE SMOOTH"
);
}
);
width = 645;
}
);
leftKerningGroup = knDA;
leftMetricsKey = knDA;
rightKerningGroup = knDA;
rightMetricsKey = knDA;
unicode = 0CA5;
},
{
color = 4;
glyphname = knDA;
lastChange = "2016-01-01 06:02:12 +0000";
layers = (
{
background = {
paths = (
{
closed = 1;
nodes = (
"278 462 OFFCURVE",
"194 445 OFFCURVE",
"123 415 CURVE",
"168 482 OFFCURVE",
"240 539 OFFCURVE",
"314 539 CURVE SMOOTH",
"334 539 OFFCURVE",
"355 535 OFFCURVE",
"366 526 CURVE SMOOTH",
"383 512 OFFCURVE",
"387 506 OFFCURVE",
"394 506 CURVE SMOOTH",
"428 506 OFFCURVE",
"470 549 OFFCURVE",
"470 585 CURVE SMOOTH",
"470 611 OFFCURVE",
"451 635 OFFCURVE",
"396 635 CURVE SMOOTH",
"331 635 OFFCURVE",
"212 593 OFFCURVE",
"107 472 CURVE SMOOTH",
"76 436 OFFCURVE",
"55 391 OFFCURVE",
"53 358 CURVE",
"53 353 LINE",
"53 348 LINE",
"54 326 OFFCURVE",
"64 310 OFFCURVE",
"74 310 CURVE SMOOTH",
"90 310 OFFCURVE",
"114 326 OFFCURVE",
"164 340 CURVE",
"87 269 OFFCURVE",
"22 139 OFFCURVE",
"22 34 CURVE SMOOTH",
"22 -19 OFFCURVE",
"47 -50 OFFCURVE",
"100 -50 CURVE SMOOTH",
"146 -50 OFFCURVE",
"216 -20 OFFCURVE",
"278 47 CURVE",
"299 5 OFFCURVE",
"338 -13 OFFCURVE",
"382 -13 CURVE SMOOTH",
"502 -13 OFFCURVE",
"608 109 OFFCURVE",
"608 240 CURVE SMOOTH",
"608 390 OFFCURVE",
"509 462 OFFCURVE",
"370 462 CURVE SMOOTH"
);
},
{
closed = 1;
nodes = (
"396 83 OFFCURVE",
"356 105 OFFCURVE",
"339 157 CURVE SMOOTH",
"339 166 OFFCURVE",
"331 173 OFFCURVE",
"322 173 CURVE SMOOTH",
"311 173 OFFCURVE",
"300 165 OFFCURVE",
"291 152 CURVE SMOOTH",
"255 99 OFFCURVE",
"199 54 OFFCURVE",
"165 54 CURVE SMOOTH",
"134 54 OFFCURVE",
"123 76 OFFCURVE",
"123 110 CURVE SMOOTH",
"123 182 OFFCURVE",
"179 299 OFFCURVE",
"248 355 CURVE",
"270 358 OFFCURVE",
"296 359 OFFCURVE",
"324 359 CURVE SMOOTH",
"439 359 OFFCURVE",
"533 287 OFFCURVE",
"533 184 CURVE SMOOTH",
"533 129 OFFCURVE",
"488 83 OFFCURVE",
"434 83 CURVE SMOOTH"
);
}
);
};
layerId = "59118767-2CA9-48AA-9373-694D24C960D8";
name = Regular;
paths = (
{
closed = 1;
nodes = (
"146 -50 OFFCURVE",
"216 -20 OFFCURVE",
"278 47 CURVE",
"299 5 OFFCURVE",
"338 -13 OFFCURVE",
"382 -13 CURVE SMOOTH",
"502 -13 OFFCURVE",
"608 109 OFFCURVE",
"608 240 CURVE SMOOTH",
"608 390 OFFCURVE",
"509 462 OFFCURVE",
"370 462 CURVE SMOOTH",
"278 462 OFFCURVE",
"194 445 OFFCURVE",
"123 415 CURVE",
"168 482 OFFCURVE",
"240 539 OFFCURVE",
"314 539 CURVE SMOOTH",
"334 539 OFFCURVE",
"355 535 OFFCURVE",
"366 526 CURVE SMOOTH",
"383 512 OFFCURVE",
"387 506 OFFCURVE",
"394 506 CURVE SMOOTH",
"428 506 OFFCURVE",
"470 549 OFFCURVE",
"470 585 CURVE SMOOTH",
"470 611 OFFCURVE",
"451 635 OFFCURVE",
"396 635 CURVE SMOOTH",
"331 635 OFFCURVE",
"212 593 OFFCURVE",
"107 472 CURVE SMOOTH",
"77 437 OFFCURVE",
"55 394 OFFCURVE",
"53 353 CURVE SMOOTH",
"54 327 OFFCURVE",
"63 310 OFFCURVE",
"74 310 CURVE SMOOTH",
"90 310 OFFCURVE",
"114 326 OFFCURVE",
"164 340 CURVE",
"87 269 OFFCURVE",
"22 139 OFFCURVE",
"22 34 CURVE SMOOTH",
"22 -19 OFFCURVE",
"47 -50 OFFCURVE",
"100 -50 CURVE SMOOTH"
);
},
{
closed = 1;
nodes = (
"134 54 OFFCURVE",
"123 76 OFFCURVE",
"123 110 CURVE SMOOTH",
"123 182 OFFCURVE",
"179 299 OFFCURVE",
"248 355 CURVE",
"270 358 OFFCURVE",
"296 359 OFFCURVE",
"324 359 CURVE SMOOTH",
"439 359 OFFCURVE",
"533 287 OFFCURVE",
"533 184 CURVE SMOOTH",
"533 129 OFFCURVE",
"488 83 OFFCURVE",
"434 83 CURVE SMOOTH",
"396 83 OFFCURVE",
"357 105 OFFCURVE",
"339 157 CURVE SMOOTH",
"336 166 OFFCURVE",
"331 173 OFFCURVE",
"322 173 CURVE SMOOTH",
"311 173 OFFCURVE",
"300 165 OFFCURVE",
"291 152 CURVE SMOOTH",
"255 99 OFFCURVE",
"199 54 OFFCURVE",
"165 54 CURVE SMOOTH"
);
}
);
width = 645;
}
);
leftKerningGroup = knDA;
rightKerningGroup = knDA;
unicode = 0CA6;
},
{
color = 4;
glyphname = knDHA;
lastChange = "2016-01-01 06:02:12 +0000";
layers = (
{
layerId = "59118767-2CA9-48AA-9373-694D24C960D8";
name = Regular;
paths = (
{
closed = 1;
nodes = (
"146 -50 OFFCURVE",
"216 -20 OFFCURVE",
"278 47 CURVE",
"299 5 OFFCURVE",
"338 -13 OFFCURVE",
"382 -13 CURVE SMOOTH",
"502 -13 OFFCURVE",
"608 109 OFFCURVE",
"608 240 CURVE SMOOTH",
"608 390 OFFCURVE",
"509 462 OFFCURVE",
"370 462 CURVE SMOOTH",
"278 462 OFFCURVE",
"194 445 OFFCURVE",
"123 415 CURVE",
"168 482 OFFCURVE",
"240 539 OFFCURVE",
"314 539 CURVE SMOOTH",
"334 539 OFFCURVE",
"355 535 OFFCURVE",
"366 526 CURVE SMOOTH",
"383 512 OFFCURVE",
"387 506 OFFCURVE",
"394 506 CURVE SMOOTH",
"428 506 OFFCURVE",
"470 549 OFFCURVE",
"470 585 CURVE SMOOTH",
"470 611 OFFCURVE",
"451 635 OFFCURVE",
"396 635 CURVE SMOOTH",
"331 635 OFFCURVE",
"212 593 OFFCURVE",
"107 472 CURVE SMOOTH",
"77 437 OFFCURVE",
"55 394 OFFCURVE",
"53 353 CURVE SMOOTH",
"54 327 OFFCURVE",
"63 310 OFFCURVE",
"74 310 CURVE SMOOTH",
"90 310 OFFCURVE",
"114 326 OFFCURVE",
"164 340 CURVE",
"87 269 OFFCURVE",
"22 139 OFFCURVE",
"22 34 CURVE SMOOTH",
"22 -19 OFFCURVE",
"47 -50 OFFCURVE",
"100 -50 CURVE SMOOTH"
);
},
{
closed = 1;
nodes = (
"301 -192 OFFCURVE",
"320 -158 OFFCURVE",
"320 -125 CURVE SMOOTH",
"320 -98 OFFCURVE",
"307 -9 OFFCURVE",
"286 -9 CURVE SMOOTH",
"265 -9 OFFCURVE",
"215 -95 OFFCURVE",
"215 -139 CURVE SMOOTH",
"215 -158 OFFCURVE",
"225 -192 OFFCURVE",
"263 -192 CURVE SMOOTH"
);
},
{
closed = 1;
nodes = (
"134 54 OFFCURVE",
"123 76 OFFCURVE",
"123 110 CURVE SMOOTH",
"123 182 OFFCURVE",
"179 299 OFFCURVE",
"248 355 CURVE",
"270 358 OFFCURVE",
"296 359 OFFCURVE",
"324 359 CURVE SMOOTH",
"439 359 OFFCURVE",
"533 287 OFFCURVE",
"533 184 CURVE SMOOTH",
"533 129 OFFCURVE",
"488 83 OFFCURVE",
"434 83 CURVE SMOOTH",
"396 83 OFFCURVE",
"357 105 OFFCURVE",
"339 157 CURVE SMOOTH",
"336 166 OFFCURVE",
"331 173 OFFCURVE",
"322 173 CURVE SMOOTH",
"311 173 OFFCURVE",
"300 165 OFFCURVE",
"291 152 CURVE SMOOTH",
"255 99 OFFCURVE",
"199 54 OFFCURVE",
"165 54 CURVE SMOOTH"
);
}
);
width = 645;
}
);
leftKerningGroup = knDA;
leftMetricsKey = knDA;
rightKerningGroup = knDA;
unicode = 0CA7;
},
{
color = 4;
glyphname = knNA;
lastChange = "2016-01-01 06:02:10 +0000";
layers = (
{
layerId = "59118767-2CA9-48AA-9373-694D24C960D8";
name = Regular;
paths = (
{
closed = 1;
nodes = (
"120 -191 OFFCURVE",
"148 -144 OFFCURVE",
"148 -115 CURVE SMOOTH",
"148 -104 OFFCURVE",
"144 -95 OFFCURVE",
"134 -94 CURVE SMOOTH",
"111 -91 OFFCURVE",
"62 -83 OFFCURVE",
"62 -39 CURVE SMOOTH",
"62 -5 OFFCURVE",
"90 5 OFFCURVE",
"115 5 CURVE SMOOTH",
"155 5 OFFCURVE",
"183 -13 OFFCURVE",
"238 -13 CURVE SMOOTH",
"285 -13 OFFCURVE",
"330 7 OFFCURVE",
"368 38 CURVE SMOOTH",
"425 85 OFFCURVE",
"463 161 OFFCURVE",
"463 240 CURVE SMOOTH",
"463 374 OFFCURVE",
"377 463 OFFCURVE",
"251 463 CURVE SMOOTH",
"206 463 OFFCURVE",
"159 444 OFFCURVE",
"118 422 CURVE",
"163 482 OFFCURVE",
"230 532 OFFCURVE",
"299 532 CURVE SMOOTH",
"319 532 OFFCURVE",
"337 528 OFFCURVE",
"351 519 CURVE SMOOTH",
"366 509 OFFCURVE",
"369 499 OFFCURVE",
"379 499 CURVE SMOOTH",
"413 499 OFFCURVE",
"455 542 OFFCURVE",
"455 578 CURVE SMOOTH",
"455 604 OFFCURVE",
"436 628 OFFCURVE",
"381 628 CURVE SMOOTH",
"316 628 OFFCURVE",
"197 586 OFFCURVE",
"92 465 CURVE SMOOTH",
"67 435 OFFCURVE",
"37 383 OFFCURVE",
"37 345 CURVE SMOOTH",
"37 323 OFFCURVE",
"46 303 OFFCURVE",
"62 303 CURVE SMOOTH",
"88 303 OFFCURVE",
"134 355 OFFCURVE",
"208 355 CURVE SMOOTH",
"297 355 OFFCURVE",
"388 283 OFFCURVE",
"388 184 CURVE SMOOTH",
"388 128 OFFCURVE",
"355 89 OFFCURVE",
"300 89 CURVE SMOOTH",
"260 89 OFFCURVE",
"212 109 OFFCURVE",
"161 109 CURVE SMOOTH",
"64 109 OFFCURVE",
"-15 10 OFFCURVE",
"-15 -77 CURVE SMOOTH",
"-15 -147 OFFCURVE",
"36 -191 OFFCURVE",
"77 -191 CURVE SMOOTH"
);
}
);
width = 500;
}
);
leftKerningGroup = knNA;
rightKerningGroup = knDA;
rightMetricsKey = knDA;
unicode = 0CA8;
},
{
color = 4;
glyphname = knPA;
lastChange = "2016-01-01 06:02:12 +0000";
layers = (
{
background = {
paths = (
{
closed = 1;
nodes = (
"239 308 OFFCURVE",
"281 331 OFFCURVE",
"307 338 CURVE",
"277 302 OFFCURVE",
"269 268 OFFCURVE",
"269 243 CURVE SMOOTH",
"269 197 OFFCURVE",
"298 165 OFFCURVE",
"339 165 CURVE SMOOTH",
"433 165 OFFCURVE",
"505 272 OFFCURVE",
"505 357 CURVE SMOOTH",
"505 414 OFFCURVE",
"474 461 OFFCURVE",
"402 461 CURVE SMOOTH",
"364 461 OFFCURVE",
"319 441 OFFCURVE",
"252 409 CURVE",
"297 478 OFFCURVE",
"371 539 OFFCURVE",
"447 539 CURVE SMOOTH",
"467 539 OFFCURVE",
"488 535 OFFCURVE",
"499 526 CURVE SMOOTH",
"516 512 OFFCURVE",
"520 506 OFFCURVE",
"527 506 CURVE SMOOTH",
"561 506 OFFCURVE",
"603 549 OFFCURVE",
"603 585 CURVE SMOOTH",
"603 611 OFFCURVE",
"584 635 OFFCURVE",
"529 635 CURVE SMOOTH",
"464 635 OFFCURVE",
"345 593 OFFCURVE",
"240 472 CURVE SMOOTH",
"215 443 OFFCURVE",
"196 408 OFFCURVE",
"189 378 CURVE SMOOTH",
"188 373 OFFCURVE",
"187 368 OFFCURVE",
"187 364 CURVE",
"186 360 OFFCURVE",
"186 356 OFFCURVE",
"186 353 CURVE SMOOTH",
"186 348 LINE",
"187 326 OFFCURVE",
"195 308 OFFCURVE",
"222 308 CURVE SMOOTH"
);
},
{
closed = 1;
nodes = (
"424 360 OFFCURVE",
"438 342 OFFCURVE",
"438 312 CURVE SMOOTH",
"438 288 OFFCURVE",
"416 261 OFFCURVE",
"379 261 CURVE SMOOTH",
"354 261 OFFCURVE",
"335 272 OFFCURVE",
"335 300 CURVE SMOOTH",
"335 334 OFFCURVE",
"364 360 OFFCURVE",
"393 360 CURVE SMOOTH"
);
},
{
closed = 1;
nodes = (
"544 282 OFFCURVE",
"522 218 OFFCURVE",
"527 203 CURVE SMOOTH",
"531 192 OFFCURVE",
"560 177 OFFCURVE",
"560 144 CURVE SMOOTH",
"560 105 OFFCURVE",
"518 81 OFFCURVE",
"455 81 CURVE SMOOTH",
"402 81 OFFCURVE",
"377 96 OFFCURVE",
"348 137 CURVE SMOOTH",
"347 138 OFFCURVE",
"342 143 OFFCURVE",
"334 143 CURVE SMOOTH",
"321 143 OFFCURVE",
"312 132 OFFCURVE",
"304 122 CURVE SMOOTH",
"286 100 OFFCURVE",
"267 82 OFFCURVE",
"247 69 CURVE",
"251 89 OFFCURVE",
"253 107 OFFCURVE",
"253 123 CURVE SMOOTH",
"253 197 OFFCURVE",
"214 231 OFFCURVE",
"158 231 CURVE SMOOTH",
"65 231 OFFCURVE",
"0 135 OFFCURVE",
"0 55 CURVE SMOOTH",
"0 -1 OFFCURVE",
"32 -50 OFFCURVE",
"108 -50 CURVE SMOOTH",
"177 -50 OFFCURVE",
"247 -9 OFFCURVE",
"294 32 CURVE",
"318 7 OFFCURVE",
"354 -13 OFFCURVE",
"406 -13 CURVE SMOOTH",
"526 -13 OFFCURVE",
"647 94 OFFCURVE",
"647 207 CURVE SMOOTH",
"647 259 OFFCURVE",
"622 282 OFFCURVE",
"593 282 CURVE SMOOTH"
);
},
{
closed = 1;
nodes = (
"72 120 OFFCURVE",
"88 138 OFFCURVE",
"119 138 CURVE SMOOTH",
"158 138 OFFCURVE",
"203 108 OFFCURVE",
"203 50 CURVE SMOOTH",
"203 47 LINE",
"188 43 OFFCURVE",
"172 40 OFFCURVE",
"156 40 CURVE SMOOTH",
"97 40 OFFCURVE",
"72 73 OFFCURVE",
"72 99 CURVE SMOOTH"
);
}
);
};
guideLines = (
{
position = "{898, 147}";
}
);
layerId = "59118767-2CA9-48AA-9373-694D24C960D8";
name = Regular;
paths = (
{
closed = 1;
nodes = (
"177 -50 OFFCURVE",
"247 -9 OFFCURVE",
"294 32 CURVE",
"318 7 OFFCURVE",
"354 -13 OFFCURVE",
"406 -13 CURVE SMOOTH",
"526 -13 OFFCURVE",
"647 94 OFFCURVE",
"647 207 CURVE SMOOTH",
"647 259 OFFCURVE",
"622 282 OFFCURVE",
"593 282 CURVE SMOOTH",
"544 282 OFFCURVE",
"522 218 OFFCURVE",
"527 203 CURVE SMOOTH",
"531 192 OFFCURVE",
"560 177 OFFCURVE",
"560 144 CURVE SMOOTH",
"560 105 OFFCURVE",
"518 81 OFFCURVE",
"455 81 CURVE SMOOTH",
"416 81 OFFCURVE",
"382 90 OFFCURVE",
"356 127 CURVE SMOOTH",
"347 140 OFFCURVE",
"341 143 OFFCURVE",
"334 143 CURVE SMOOTH",
"324 143 OFFCURVE",
"315 135 OFFCURVE",
"304 122 CURVE SMOOTH",
"286 100 OFFCURVE",
"267 82 OFFCURVE",
"247 69 CURVE",
"251 89 OFFCURVE",
"253 107 OFFCURVE",
"253 123 CURVE SMOOTH",
"253 197 OFFCURVE",
"214 231 OFFCURVE",
"158 231 CURVE SMOOTH",
"65 231 OFFCURVE",
"0 135 OFFCURVE",
"0 55 CURVE SMOOTH",
"0 -1 OFFCURVE",
"32 -50 OFFCURVE",
"108 -50 CURVE SMOOTH"
);
},
{
closed = 1;
nodes = (
"97 40 OFFCURVE",
"72 73 OFFCURVE",
"72 99 CURVE SMOOTH",
"72 120 OFFCURVE",
"88 138 OFFCURVE",
"119 138 CURVE SMOOTH",
"165 138 OFFCURVE",
"203 103 OFFCURVE",
"203 47 CURVE",
"188 43 OFFCURVE",
"172 40 OFFCURVE",
"156 40 CURVE SMOOTH"
);
},
{
closed = 1;
nodes = (
"354 261 OFFCURVE",
"335 272 OFFCURVE",
"335 300 CURVE SMOOTH",
"335 334 OFFCURVE",
"364 360 OFFCURVE",
"393 360 CURVE SMOOTH",
"424 360 OFFCURVE",
"438 342 OFFCURVE",
"438 312 CURVE SMOOTH",
"438 288 OFFCURVE",
"416 261 OFFCURVE",
"379 261 CURVE SMOOTH"
);
},
{
closed = 1;
nodes = (
"433 165 OFFCURVE",
"505 272 OFFCURVE",
"505 357 CURVE SMOOTH",
"505 414 OFFCURVE",
"474 461 OFFCURVE",
"402 461 CURVE SMOOTH",
"364 461 OFFCURVE",
"319 441 OFFCURVE",
"252 409 CURVE",
"297 478 OFFCURVE",
"371 539 OFFCURVE",
"447 539 CURVE SMOOTH",
"467 539 OFFCURVE",
"487 534 OFFCURVE",
"499 526 CURVE SMOOTH",
"516 515 OFFCURVE",
"517 506 OFFCURVE",
"527 506 CURVE SMOOTH",
"561 506 OFFCURVE",
"603 549 OFFCURVE",
"603 585 CURVE SMOOTH",
"603 611 OFFCURVE",
"584 635 OFFCURVE",
"529 635 CURVE SMOOTH",
"464 635 OFFCURVE",
"345 593 OFFCURVE",
"240 472 CURVE SMOOTH",
"212 439 OFFCURVE",
"186 391 OFFCURVE",
"186 353 CURVE SMOOTH",
"187 324 OFFCURVE",
"195 308 OFFCURVE",
"222 308 CURVE SMOOTH",
"239 308 OFFCURVE",
"281 331 OFFCURVE",
"307 338 CURVE",
"277 302 OFFCURVE",
"269 268 OFFCURVE",
"269 243 CURVE SMOOTH",
"269 197 OFFCURVE",
"298 165 OFFCURVE",
"339 165 CURVE SMOOTH"
);
}
);
width = 679;
}
);
leftKerningGroup = knPA;
rightKerningGroup = knPA;
unicode = 0CAA;
},
{
color = 4;
glyphname = knPHA;
lastChange = "2016-01-01 06:02:11 +0000";
layers = (
{
layerId = "59118767-2CA9-48AA-9373-694D24C960D8";
name = Regular;
paths = (
{
closed = 1;
nodes = (
"177 -50 OFFCURVE",
"247 -9 OFFCURVE",
"294 32 CURVE",
"318 7 OFFCURVE",
"354 -13 OFFCURVE",
"406 -13 CURVE SMOOTH",
"526 -13 OFFCURVE",
"647 94 OFFCURVE",
"647 207 CURVE SMOOTH",
"647 259 OFFCURVE",
"622 282 OFFCURVE",
"593 282 CURVE SMOOTH",
"544 282 OFFCURVE",
"522 218 OFFCURVE",
"527 203 CURVE SMOOTH",
"531 192 OFFCURVE",
"560 177 OFFCURVE",
"560 144 CURVE SMOOTH",
"560 105 OFFCURVE",
"518 81 OFFCURVE",
"455 81 CURVE SMOOTH",
"416 81 OFFCURVE",
"382 90 OFFCURVE",
"356 127 CURVE SMOOTH",
"347 140 OFFCURVE",
"341 143 OFFCURVE",
"334 143 CURVE SMOOTH",
"324 143 OFFCURVE",
"315 135 OFFCURVE",
"304 122 CURVE SMOOTH",
"286 100 OFFCURVE",
"267 82 OFFCURVE",
"247 69 CURVE",
"251 89 OFFCURVE",
"253 107 OFFCURVE",
"253 123 CURVE SMOOTH",
"253 197 OFFCURVE",
"214 231 OFFCURVE",
"158 231 CURVE SMOOTH",
"65 231 OFFCURVE",
"0 135 OFFCURVE",
"0 55 CURVE SMOOTH",
"0 -1 OFFCURVE",
"32 -50 OFFCURVE",
"108 -50 CURVE SMOOTH"
);
},
{
closed = 1;
nodes = (
"329 -192 OFFCURVE",
"348 -158 OFFCURVE",
"348 -125 CURVE SMOOTH",
"348 -98 OFFCURVE",
"335 -9 OFFCURVE",
"314 -9 CURVE SMOOTH",
"293 -9 OFFCURVE",
"243 -95 OFFCURVE",
"243 -139 CURVE SMOOTH",
"243 -158 OFFCURVE",
"253 -192 OFFCURVE",
"291 -192 CURVE SMOOTH"
);
},
{
closed = 1;
nodes = (
"97 40 OFFCURVE",
"72 73 OFFCURVE",
"72 99 CURVE SMOOTH",
"72 120 OFFCURVE",
"88 138 OFFCURVE",
"119 138 CURVE SMOOTH",
"165 138 OFFCURVE",
"203 103 OFFCURVE",
"203 47 CURVE",
"188 43 OFFCURVE",
"172 40 OFFCURVE",
"156 40 CURVE SMOOTH"
);
},
{
closed = 1;
nodes = (
"354 261 OFFCURVE",
"335 272 OFFCURVE",
"335 300 CURVE SMOOTH",
"335 334 OFFCURVE",
"364 360 OFFCURVE",
"393 360 CURVE SMOOTH",
"424 360 OFFCURVE",
"438 342 OFFCURVE",
"438 312 CURVE SMOOTH",
"438 288 OFFCURVE",
"416 261 OFFCURVE",
"379 261 CURVE SMOOTH"
);
},
{
closed = 1;
nodes = (
"433 165 OFFCURVE",
"505 272 OFFCURVE",
"505 357 CURVE SMOOTH",
"505 414 OFFCURVE",
"474 461 OFFCURVE",
"402 461 CURVE SMOOTH",
"364 461 OFFCURVE",
"319 441 OFFCURVE",
"252 409 CURVE",
"297 478 OFFCURVE",
"371 539 OFFCURVE",
"447 539 CURVE SMOOTH",
"467 539 OFFCURVE",
"487 534 OFFCURVE",
"499 526 CURVE SMOOTH",
"516 515 OFFCURVE",
"517 506 OFFCURVE",
"527 506 CURVE SMOOTH",
"561 506 OFFCURVE",
"603 549 OFFCURVE",
"603 585 CURVE SMOOTH",
"603 611 OFFCURVE",
"584 635 OFFCURVE",
"529 635 CURVE SMOOTH",
"464 635 OFFCURVE",
"345 593 OFFCURVE",
"240 472 CURVE SMOOTH",
"212 439 OFFCURVE",
"186 391 OFFCURVE",
"186 353 CURVE SMOOTH",
"187 324 OFFCURVE",
"195 308 OFFCURVE",
"222 308 CURVE SMOOTH",
"239 308 OFFCURVE",
"281 331 OFFCURVE",
"307 338 CURVE",
"277 302 OFFCURVE",
"269 268 OFFCURVE",
"269 243 CURVE SMOOTH",
"269 197 OFFCURVE",
"298 165 OFFCURVE",
"339 165 CURVE SMOOTH"
);
}
);
width = 669;
}
);
leftKerningGroup = knPA;
leftMetricsKey = knPA;
rightKerningGroup = knPA;
unicode = 0CAB;
},
{
color = 4;
glyphname = knBA;
lastChange = "2016-01-01 06:02:12 +0000";
layers = (
{
layerId = "59118767-2CA9-48AA-9373-694D24C960D8";
name = Regular;
paths = (
{
closed = 1;
nodes = (
"194 -50 OFFCURVE",
"260 -19 OFFCURVE",
"321 47 CURVE",
"353 1 OFFCURVE",
"408 -12 OFFCURVE",
"451 -12 CURVE SMOOTH",
"518 -12 OFFCURVE",
"577 20 OFFCURVE",
"620 74 CURVE SMOOTH",
"661 127 OFFCURVE",
"687 202 OFFCURVE",
"687 287 CURVE SMOOTH",
"687 397 OFFCURVE",
"639 523 OFFCURVE",
"582 523 CURVE SMOOTH",
"546 523 OFFCURVE",
"507 471 OFFCURVE",
"507 438 CURVE SMOOTH",
"507 424 OFFCURVE",
"514 420 OFFCURVE",
"520 414 CURVE SMOOTH",
"583 348 OFFCURVE",
"614 279 OFFCURVE",
"614 226 CURVE SMOOTH",
"614 139 OFFCURVE",
"554 90 OFFCURVE",
"489 90 CURVE SMOOTH",
"450 90 OFFCURVE",
"404 110 OFFCURVE",
"384 156 CURVE SMOOTH",
"379 167 OFFCURVE",
"371 173 OFFCURVE",
"362 173 CURVE SMOOTH",
"350 173 OFFCURVE",
"344 167 OFFCURVE",
"325 143 CURVE SMOOTH",
"302 112 OFFCURVE",
"257 54 OFFCURVE",
"211 54 CURVE SMOOTH",
"186 54 OFFCURVE",
"175 70 OFFCURVE",
"175 100 CURVE SMOOTH",
"175 148 OFFCURVE",
"204 193 OFFCURVE",
"235 240 CURVE SMOOTH",
"270 294 OFFCURVE",
"307 351 OFFCURVE",
"307 420 CURVE SMOOTH",
"307 474 OFFCURVE",
"284 523 OFFCURVE",
"217 523 CURVE SMOOTH",
"109 523 OFFCURVE",
"40 405 OFFCURVE",
"40 315 CURVE SMOOTH",
"40 258 OFFCURVE",
"67 212 OFFCURVE",
"127 212 CURVE SMOOTH",
"138 212 OFFCURVE",
"149 213 OFFCURVE",
"159 217 CURVE",
"119 157 OFFCURVE",
"70 93 OFFCURVE",
"70 29 CURVE SMOOTH",
"70 -18 OFFCURVE",
"97 -50 OFFCURVE",
"146 -50 CURVE SMOOTH"
);
},
{
closed = 1;
nodes = (
"132 287 OFFCURVE",
"111 325 OFFCURVE",
"111 363 CURVE SMOOTH",
"111 399 OFFCURVE",
"131 435 OFFCURVE",
"168 435 CURVE SMOOTH",
"193 435 OFFCURVE",
"217 412 OFFCURVE",
"217 361 CURVE SMOOTH",
"217 336 OFFCURVE",
"211 313 OFFCURVE",
"202 292 CURVE",
"193 288 OFFCURVE",
"184 287 OFFCURVE",
"176 287 CURVE SMOOTH"
);
}
);
width = 720;
}
);
leftKerningGroup = knO;
leftMetricsKey = knO;
rightKerningGroup = knLA;
rightMetricsKey = knLA;
unicode = 0CAC;
},
{
color = 4;
glyphname = knBHA;
lastChange = "2016-01-01 06:02:12 +0000";
layers = (
{
layerId = "59118767-2CA9-48AA-9373-694D24C960D8";
name = Regular;
paths = (
{
closed = 1;
nodes = (
"194 -50 OFFCURVE",
"259 -20 OFFCURVE",
"320 46 CURVE",
"340 5 OFFCURVE",
"375 -13 OFFCURVE",
"420 -13 CURVE SMOOTH",
"559 -13 OFFCURVE",
"692 152 OFFCURVE",
"692 302 CURVE SMOOTH",
"692 399 OFFCURVE",
"636 462 OFFCURVE",
"535 462 CURVE SMOOTH",
"510 462 OFFCURVE",
"482 458 OFFCURVE",
"452 451 CURVE",
"495 498 OFFCURVE",
"552 533 OFFCURVE",
"612 533 CURVE SMOOTH",
"629 533 OFFCURVE",
"648 530 OFFCURVE",
"662 520 CURVE SMOOTH",
"677 509 OFFCURVE",
"679 500 OFFCURVE",
"692 500 CURVE SMOOTH",
"721 500 OFFCURVE",
"766 541 OFFCURVE",
"766 579 CURVE SMOOTH",
"766 605 OFFCURVE",
"746 629 OFFCURVE",
"694 629 CURVE SMOOTH",
"599 629 OFFCURVE",
"470 550 OFFCURVE",
"403 466 CURVE SMOOTH",
"385 443 OFFCURVE",
"360 406 OFFCURVE",
"360 374 CURVE SMOOTH",
"360 359 OFFCURVE",
"366 348 OFFCURVE",
"378 348 CURVE SMOOTH",
"389 348 OFFCURVE",
"435 358 OFFCURVE",
"469 358 CURVE SMOOTH",
"544 358 OFFCURVE",
"595 308 OFFCURVE",
"595 236 CURVE SMOOTH",
"595 163 OFFCURVE",
"543 83 OFFCURVE",
"474 83 CURVE SMOOTH",
"437 83 OFFCURVE",
"390 104 OFFCURVE",
"381 153 CURVE SMOOTH",
"379 164 OFFCURVE",
"373 173 OFFCURVE",
"362 173 CURVE SMOOTH",
"350 173 OFFCURVE",
"344 167 OFFCURVE",
"325 143 CURVE SMOOTH",
"302 112 OFFCURVE",
"257 54 OFFCURVE",
"211 54 CURVE SMOOTH",
"186 54 OFFCURVE",
"175 70 OFFCURVE",
"175 100 CURVE SMOOTH",
"175 202 OFFCURVE",
"307 290 OFFCURVE",
"307 420 CURVE SMOOTH",
"307 474 OFFCURVE",
"284 523 OFFCURVE",
"217 523 CURVE SMOOTH",
"109 523 OFFCURVE",
"40 405 OFFCURVE",
"40 315 CURVE SMOOTH",
"40 258 OFFCURVE",
"67 212 OFFCURVE",
"127 212 CURVE SMOOTH",
"138 212 OFFCURVE",
"149 213 OFFCURVE",
"159 217 CURVE",
"119 157 OFFCURVE",
"70 93 OFFCURVE",
"70 29 CURVE SMOOTH",
"70 -18 OFFCURVE",
"97 -50 OFFCURVE",
"146 -50 CURVE SMOOTH"
);
},
{
closed = 1;
nodes = (
"342 -192 OFFCURVE",
"361 -158 OFFCURVE",
"361 -125 CURVE SMOOTH",
"361 -98 OFFCURVE",
"348 -9 OFFCURVE",
"327 -9 CURVE SMOOTH",
"306 -9 OFFCURVE",
"256 -95 OFFCURVE",
"256 -139 CURVE SMOOTH",
"256 -158 OFFCURVE",
"266 -192 OFFCURVE",
"304 -192 CURVE SMOOTH"
);
},
{
closed = 1;
nodes = (
"132 287 OFFCURVE",
"111 325 OFFCURVE",
"111 363 CURVE SMOOTH",
"111 399 OFFCURVE",
"131 435 OFFCURVE",
"168 435 CURVE SMOOTH",
"193 435 OFFCURVE",
"217 412 OFFCURVE",
"217 361 CURVE SMOOTH",
"217 336 OFFCURVE",
"211 313 OFFCURVE",
"202 292 CURVE",
"193 288 OFFCURVE",
"184 287 OFFCURVE",
"176 287 CURVE SMOOTH"
);
}
);
width = 728;
}
);
leftKerningGroup = knO;
leftMetricsKey = knO;
rightKerningGroup = knBHA;
unicode = 0CAD;
},
{
color = 4;
glyphname = knMA;
lastChange = "2016-01-01 06:02:11 +0000";
layers = (
{
layerId = "59118767-2CA9-48AA-9373-694D24C960D8";
name = Regular;
paths = (
{
closed = 1;
nodes = (
"184 -50 OFFCURVE",
"263 2 OFFCURVE",
"315 51 CURVE",
"335 6 OFFCURVE",
"372 -13 OFFCURVE",
"417 -13 CURVE SMOOTH",
"465 -13 OFFCURVE",
"511 8 OFFCURVE",
"549 43 CURVE",
"584 0 OFFCURVE",
"640 -12 OFFCURVE",
"682 -12 CURVE SMOOTH",
"814 -12 OFFCURVE",
"941 103 OFFCURVE",
"941 267 CURVE SMOOTH",
"941 377 OFFCURVE",
"888 464 OFFCURVE",
"831 464 CURVE SMOOTH",
"795 464 OFFCURVE",
"756 412 OFFCURVE",
"756 379 CURVE SMOOTH",
"756 365 OFFCURVE",
"764 359 OFFCURVE",
"769 355 CURVE SMOOTH",
"805 327 OFFCURVE",
"857 292 OFFCURVE",
"857 211 CURVE SMOOTH",
"857 117 OFFCURVE",
"791 85 OFFCURVE",
"725 85 CURVE SMOOTH",
"682 85 OFFCURVE",
"633 100 OFFCURVE",
"615 148 CURVE",
"624 175 OFFCURVE",
"629 205 OFFCURVE",
"629 237 CURVE SMOOTH",
"629 343 OFFCURVE",
"572 461 OFFCURVE",
"401 461 CURVE SMOOTH",
"338 461 OFFCURVE",
"266 445 OFFCURVE",
"187 410 CURVE",
"232 479 OFFCURVE",
"305 539 OFFCURVE",
"381 539 CURVE SMOOTH",
"401 539 OFFCURVE",
"421 534 OFFCURVE",
"433 526 CURVE SMOOTH",
"445 518 OFFCURVE",
"451 506 OFFCURVE",
"461 506 CURVE SMOOTH",
"495 506 OFFCURVE",
"537 549 OFFCURVE",
"537 585 CURVE SMOOTH",
"537 611 OFFCURVE",
"518 635 OFFCURVE",
"463 635 CURVE SMOOTH",
"398 635 OFFCURVE",
"279 593 OFFCURVE",
"174 472 CURVE SMOOTH",
"141 434 OFFCURVE",
"120 386 OFFCURVE",
"120 353 CURVE",
"121 329 OFFCURVE",
"139 306 OFFCURVE",
"156 306 CURVE SMOOTH",
"179 306 OFFCURVE",
"259 358 OFFCURVE",
"354 358 CURVE SMOOTH",
"482 358 OFFCURVE",
"554 264 OFFCURVE",
"554 184 CURVE SMOOTH",
"554 132 OFFCURVE",
"524 83 OFFCURVE",
"470 83 CURVE SMOOTH",
"433 83 OFFCURVE",
"393 107 OFFCURVE",
"377 157 CURVE SMOOTH",
"374 166 OFFCURVE",
"368 173 OFFCURVE",
"358 173 CURVE SMOOTH",
"345 173 OFFCURVE",
"336 162 OFFCURVE",
"328 152 CURVE SMOOTH",
"306 124 OFFCURVE",
"281 91 OFFCURVE",
"246 68 CURVE",
"251 88 OFFCURVE",
"253 106 OFFCURVE",
"253 123 CURVE SMOOTH",
"253 197 OFFCURVE",
"214 231 OFFCURVE",
"158 231 CURVE SMOOTH",
"65 231 OFFCURVE",
"0 135 OFFCURVE",
"0 55 CURVE SMOOTH",
"0 -1 OFFCURVE",
"32 -50 OFFCURVE",
"107 -50 CURVE SMOOTH"
);
},
{
closed = 1;
nodes = (
"97 40 OFFCURVE",
"72 73 OFFCURVE",
"72 99 CURVE SMOOTH",
"72 120 OFFCURVE",
"88 138 OFFCURVE",
"119 138 CURVE SMOOTH",
"165 138 OFFCURVE",
"203 103 OFFCURVE",
"203 47 CURVE",
"189 42 OFFCURVE",
"174 40 OFFCURVE",
"157 40 CURVE SMOOTH"
);
}
);
width = 971;
}
);
leftKerningGroup = knVA;
leftMetricsKey = knVA;
rightKerningGroup = knJHA;
rightMetricsKey = knJHA;
unicode = 0CAE;
},
{
color = 4;
glyphname = knYA;
lastChange = "2016-01-01 06:02:12 +0000";
layers = (
{
layerId = "59118767-2CA9-48AA-9373-694D24C960D8";
name = Regular;
paths = (
{
closed = 1;
nodes = (
"220 -16 OFFCURVE",
"280 13 OFFCURVE",
"327 55 CURVE",
"360 8 OFFCURVE",
"408 -13 OFFCURVE",
"460 -13 CURVE SMOOTH",
"516 -13 OFFCURVE",
"576 12 OFFCURVE",
"626 54 CURVE",
"659 2 OFFCURVE",
"721 -12 OFFCURVE",
"766 -12 CURVE SMOOTH",
"898 -12 OFFCURVE",
"1025 103 OFFCURVE",
"1025 267 CURVE SMOOTH",
"1025 377 OFFCURVE",
"972 464 OFFCURVE",
"915 464 CURVE SMOOTH",
"879 464 OFFCURVE",
"840 412 OFFCURVE",
"840 379 CURVE SMOOTH",
"840 365 OFFCURVE",
"847 359 OFFCURVE",
"853 355 CURVE SMOOTH",
"891 330 OFFCURVE",
"941 292 OFFCURVE",
"941 211 CURVE SMOOTH",
"941 117 OFFCURVE",
"875 85 OFFCURVE",
"809 85 CURVE SMOOTH",
"767 85 OFFCURVE",
"722 99 OFFCURVE",
"701 142 CURVE",
"728 189 OFFCURVE",
"745 243 OFFCURVE",
"745 301 CURVE SMOOTH",
"745 399 OFFCURVE",
"673 450 OFFCURVE",
"599 450 CURVE SMOOTH",
"588 450 LINE",
"632 500 OFFCURVE",
"692 539 OFFCURVE",
"752 539 CURVE SMOOTH",
"772 539 OFFCURVE",
"792 534 OFFCURVE",
"804 526 CURVE SMOOTH",
"820 515 OFFCURVE",
"820 506 OFFCURVE",
"832 506 CURVE SMOOTH",
"866 506 OFFCURVE",
"908 549 OFFCURVE",
"908 585 CURVE SMOOTH",
"908 611 OFFCURVE",
"889 635 OFFCURVE",
"834 635 CURVE SMOOTH",
"769 635 OFFCURVE",
"650 593 OFFCURVE",
"545 472 CURVE SMOOTH",
"520 443 OFFCURVE",
"496 404 OFFCURVE",
"496 374 CURVE SMOOTH",
"496 360 OFFCURVE",
"502 348 OFFCURVE",
"513 348 CURVE SMOOTH",
"521 348 OFFCURVE",
"530 350 OFFCURVE",
"540 350 CURVE SMOOTH",
"595 350 OFFCURVE",
"657 328 OFFCURVE",
"657 235 CURVE SMOOTH",
"657 141 OFFCURVE",
"576 82 OFFCURVE",
"499 82 CURVE SMOOTH",
"456 82 OFFCURVE",
"416 101 OFFCURVE",
"397 144 CURVE",
"427 196 OFFCURVE",
"443 253 OFFCURVE",
"443 302 CURVE SMOOTH",
"443 414 OFFCURVE",
"371 462 OFFCURVE",
"275 462 CURVE SMOOTH",
"243 462 OFFCURVE",
"208 457 OFFCURVE",
"172 447 CURVE SMOOTH",
"137 436 OFFCURVE",
"90 378 OFFCURVE",
"90 352 CURVE SMOOTH",
"90 344 OFFCURVE",
"94 339 OFFCURVE",
"104 339 CURVE SMOOTH",
"107 339 OFFCURVE",
"111 340 OFFCURVE",
"116 341 CURVE",
"42 277 OFFCURVE",
"10 199 OFFCURVE",
"10 125 CURVE SMOOTH",
"10 29 OFFCURVE",
"63 -16 OFFCURVE",
"150 -16 CURVE SMOOTH"
);
},
{
closed = 1;
nodes = (
"129 90 OFFCURVE",
"89 132 OFFCURVE",
"89 185 CURVE SMOOTH",
"89 236 OFFCURVE",
"134 307 OFFCURVE",
"188 352 CURVE",
"203 353 OFFCURVE",
"219 356 OFFCURVE",
"234 356 CURVE SMOOTH",
"323 356 OFFCURVE",
"357 306 OFFCURVE",
"357 239 CURVE SMOOTH",
"357 126 OFFCURVE",
"259 90 OFFCURVE",
"197 90 CURVE SMOOTH"
);
}
);
width = 1055;
}
);
leftKerningGroup = knYA;
rightKerningGroup = knJHA;
rightMetricsKey = knJHA;
unicode = 0CAF;
},
{
color = 4;
glyphname = knRA;
lastChange = "2016-01-01 06:02:12 +0000";
layers = (
{
layerId = "59118767-2CA9-48AA-9373-694D24C960D8";
name = Regular;
paths = (
{
closed = 1;
nodes = (
"363 -13 OFFCURVE",
"496 153 OFFCURVE",
"496 300 CURVE SMOOTH",
"496 416 OFFCURVE",
"412 462 OFFCURVE",
"317 462 CURVE SMOOTH",
"247 462 OFFCURVE",
"167 437 OFFCURVE",
"113 408 CURVE",
"158 478 OFFCURVE",
"232 539 OFFCURVE",
"308 539 CURVE SMOOTH",
"328 539 OFFCURVE",
"348 534 OFFCURVE",
"360 526 CURVE SMOOTH",
"377 515 OFFCURVE",
"378 506 OFFCURVE",
"388 506 CURVE SMOOTH",
"422 506 OFFCURVE",
"464 549 OFFCURVE",
"464 585 CURVE SMOOTH",
"464 611 OFFCURVE",
"445 635 OFFCURVE",
"390 635 CURVE SMOOTH",
"325 635 OFFCURVE",
"206 593 OFFCURVE",
"101 472 CURVE SMOOTH",
"70 436 OFFCURVE",
"47 389 OFFCURVE",
"47 348 CURVE SMOOTH",
"47 331 OFFCURVE",
"54 310 OFFCURVE",
"67 310 CURVE SMOOTH",
"79 310 OFFCURVE",
"106 325 OFFCURVE",
"146 338 CURVE",
"85 286 OFFCURVE",
"48 207 OFFCURVE",
"48 131 CURVE SMOOTH",
"48 52 OFFCURVE",
"88 -13 OFFCURVE",
"194 -13 CURVE SMOOTH"
);
},
{
closed = 1;
nodes = (
"168 90 OFFCURVE",
"136 129 OFFCURVE",
"136 183 CURVE SMOOTH",
"136 240 OFFCURVE",
"172 304 OFFCURVE",
"237 356 CURVE",
"244 357 OFFCURVE",
"252 357 OFFCURVE",
"259 357 CURVE SMOOTH",
"342 357 OFFCURVE",
"410 326 OFFCURVE",
"410 239 CURVE SMOOTH",
"410 131 OFFCURVE",
"304 90 OFFCURVE",
"235 90 CURVE SMOOTH"
);
}
);
width = 538;
}
);
leftKerningGroup = knRA;
rightKerningGroup = knRA;
unicode = 0CB0;
},
{
color = 4;
glyphname = knLA;
lastChange = "2016-01-01 06:02:10 +0000";
layers = (
{
layerId = "59118767-2CA9-48AA-9373-694D24C960D8";
name = Regular;
paths = (
{
closed = 1;
nodes = (
"427 -15 OFFCURVE",
"625 93 OFFCURVE",
"625 318 CURVE SMOOTH",
"625 430 OFFCURVE",
"578 536 OFFCURVE",
"519 536 CURVE SMOOTH",
"500 536 OFFCURVE",
"479 525 OFFCURVE",
"458 499 CURVE SMOOTH",
"445 482 OFFCURVE",
"439 470 OFFCURVE",
"439 460 CURVE SMOOTH",
"439 445 OFFCURVE",
"452 435 OFFCURVE",
"467 420 CURVE SMOOTH",
"524 366 OFFCURVE",
"543 304 OFFCURVE",
"543 267 CURVE SMOOTH",
"543 143 OFFCURVE",
"425 81 OFFCURVE",
"313 81 CURVE SMOOTH",
"217 81 OFFCURVE",
"126 128 OFFCURVE",
"126 222 CURVE SMOOTH",
"126 264 OFFCURVE",
"149 316 OFFCURVE",
"180 346 CURVE SMOOTH",
"200 366 OFFCURVE",
"225 381 OFFCURVE",
"253 381 CURVE SMOOTH",
"288 381 OFFCURVE",
"307 356 OFFCURVE",
"307 331 CURVE SMOOTH",
"307 303 OFFCURVE",
"283 268 OFFCURVE",
"233 251 CURVE SMOOTH",
"219 246 OFFCURVE",
"205 235 OFFCURVE",
"205 221 CURVE SMOOTH",
"205 216 OFFCURVE",
"207 210 OFFCURVE",
"212 204 CURVE SMOOTH",
"219 195 OFFCURVE",
"231 190 OFFCURVE",
"246 190 CURVE SMOOTH",
"307 190 OFFCURVE",
"414 263 OFFCURVE",
"414 354 CURVE SMOOTH",
"414 416 OFFCURVE",
"370 460 OFFCURVE",
"299 460 CURVE SMOOTH",
"159 460 OFFCURVE",
"29 312 OFFCURVE",
"29 173 CURVE SMOOTH",
"29 54 OFFCURVE",
"131 -15 OFFCURVE",
"261 -15 CURVE SMOOTH"
);
}
);
width = 658;
}
);
leftKerningGroup = knLA;
rightKerningGroup = knLA;
unicode = 0CB2;
},
{
color = 4;
glyphname = knVA;
lastChange = "2016-01-01 06:02:12 +0000";
layers = (
{
layerId = "59118767-2CA9-48AA-9373-694D24C960D8";
name = Regular;
paths = (
{
closed = 1;
nodes = (
"184 -50 OFFCURVE",
"263 2 OFFCURVE",
"315 51 CURVE",
"335 6 OFFCURVE",
"372 -13 OFFCURVE",
"417 -13 CURVE SMOOTH",
"525 -13 OFFCURVE",
"629 93 OFFCURVE",
"629 237 CURVE SMOOTH",
"629 343 OFFCURVE",
"572 461 OFFCURVE",
"401 461 CURVE SMOOTH",
"338 461 OFFCURVE",
"266 445 OFFCURVE",
"187 410 CURVE",
"232 479 OFFCURVE",
"305 539 OFFCURVE",
"381 539 CURVE SMOOTH",
"401 539 OFFCURVE",
"421 534 OFFCURVE",
"433 526 CURVE SMOOTH",
"445 518 OFFCURVE",
"451 506 OFFCURVE",
"461 506 CURVE SMOOTH",
"495 506 OFFCURVE",
"537 549 OFFCURVE",
"537 585 CURVE SMOOTH",
"537 611 OFFCURVE",
"518 635 OFFCURVE",
"463 635 CURVE SMOOTH",
"398 635 OFFCURVE",
"279 593 OFFCURVE",
"174 472 CURVE SMOOTH",
"141 434 OFFCURVE",
"120 386 OFFCURVE",
"120 353 CURVE SMOOTH",
"121 329 OFFCURVE",
"139 306 OFFCURVE",
"156 306 CURVE SMOOTH",
"179 306 OFFCURVE",
"259 358 OFFCURVE",
"354 358 CURVE SMOOTH",
"482 358 OFFCURVE",
"554 264 OFFCURVE",
"554 184 CURVE SMOOTH",
"554 132 OFFCURVE",
"524 83 OFFCURVE",
"470 83 CURVE SMOOTH",
"433 83 OFFCURVE",
"393 107 OFFCURVE",
"377 157 CURVE SMOOTH",
"374 166 OFFCURVE",
"368 173 OFFCURVE",
"358 173 CURVE SMOOTH",
"345 173 OFFCURVE",
"336 162 OFFCURVE",
"328 152 CURVE SMOOTH",
"306 124 OFFCURVE",
"281 91 OFFCURVE",
"246 68 CURVE",
"251 88 OFFCURVE",
"253 106 OFFCURVE",
"253 123 CURVE SMOOTH",
"253 197 OFFCURVE",
"214 231 OFFCURVE",
"158 231 CURVE SMOOTH",
"65 231 OFFCURVE",
"0 135 OFFCURVE",
"0 55 CURVE SMOOTH",
"0 -1 OFFCURVE",
"32 -50 OFFCURVE",
"107 -50 CURVE SMOOTH"
);
},
{
closed = 1;
nodes = (
"97 40 OFFCURVE",
"72 73 OFFCURVE",
"72 99 CURVE SMOOTH",
"72 120 OFFCURVE",
"88 138 OFFCURVE",
"119 138 CURVE SMOOTH",
"165 138 OFFCURVE",
"203 103 OFFCURVE",
"203 47 CURVE",
"189 42 OFFCURVE",
"174 40 OFFCURVE",
"157 40 CURVE SMOOTH"
);
}
);
width = 666;
}
);
leftKerningGroup = knVA;
leftMetricsKey = knPA;
rightKerningGroup = knDA;
rightMetricsKey = knDA;
unicode = 0CB5;
},
{
color = 4;
glyphname = knSHA;
lastChange = "2016-01-01 06:02:12 +0000";
layers = (
{
background = {
paths = (
{
closed = 1;
nodes = (
"380 348 OFFCURVE",
"383 369 OFFCURVE",
"383 387 CURVE SMOOTH",
"383 442 OFFCURVE",
"350 462 OFFCURVE",
"303 462 CURVE SMOOTH",
"293 462 OFFCURVE",
"282 461 OFFCURVE",
"272 459 CURVE",
"316 512 OFFCURVE",
"377 552 OFFCURVE",
"439 552 CURVE SMOOTH",
"459 552 OFFCURVE",
"480 548 OFFCURVE",
"491 539 CURVE SMOOTH",
"508 525 OFFCURVE",
"512 519 OFFCURVE",
"519 519 CURVE SMOOTH",
"553 519 OFFCURVE",
"595 562 OFFCURVE",
"595 598 CURVE SMOOTH",
"595 624 OFFCURVE",
"576 648 OFFCURVE",
"521 648 CURVE SMOOTH",
"456 648 OFFCURVE",
"337 606 OFFCURVE",
"232 485 CURVE SMOOTH",
"213 463 OFFCURVE",
"198 439 OFFCURVE",
"189 415 CURVE SMOOTH",
"186 407 OFFCURVE",
"185 403 OFFCURVE",
"185 396 CURVE SMOOTH",
"185 370 OFFCURVE",
"192 364 OFFCURVE",
"204 364 CURVE SMOOTH",
"215 364 OFFCURVE",
"230 369 OFFCURVE",
"253 369 CURVE SMOOTH",
"285 369 OFFCURVE",
"321 359 OFFCURVE",
"321 324 CURVE",
"225 319 OFFCURVE",
"130 290 OFFCURVE",
"69 235 CURVE SMOOTH",
"28 198 OFFCURVE",
"0 149 OFFCURVE",
"0 87 CURVE SMOOTH",
"0 26 OFFCURVE",
"40 -29 OFFCURVE",
"95 -29 CURVE SMOOTH",
"137 -29 OFFCURVE",
"166 18 OFFCURVE",
"166 47 CURVE SMOOTH",
"166 58 OFFCURVE",
"162 68 OFFCURVE",
"152 68 CURVE SMOOTH",
"117 68 OFFCURVE",
"77 81 OFFCURVE",
"77 121 CURVE SMOOTH",
"77 150 OFFCURVE",
"95 173 OFFCURVE",
"119 190 CURVE SMOOTH",
"155 216 OFFCURVE",
"213 231 OFFCURVE",
"288 233 CURVE",
"262 183 OFFCURVE",
"232 124 OFFCURVE",
"232 73 CURVE SMOOTH",
"232 13 OFFCURVE",
"274 -30 OFFCURVE",
"349 -30 CURVE SMOOTH",
"473 -30 OFFCURVE",
"573 77 OFFCURVE",
"573 177 CURVE SMOOTH",
"573 277 OFFCURVE",
"485 320 OFFCURVE",
"376 325 CURVE"
);
},
{
closed = 1;
nodes = (
"371 58 OFFCURVE",
"334 77 OFFCURVE",
"334 118 CURVE SMOOTH",
"334 143 OFFCURVE",
"343 183 OFFCURVE",
"354 227 CURVE",
"423 213 OFFCURVE",
"485 179 OFFCURVE",
"485 125 CURVE SMOOTH",
"485 87 OFFCURVE",
"446 58 OFFCURVE",
"405 58 CURVE SMOOTH"
);
}
);
};
layerId = "59118767-2CA9-48AA-9373-694D24C960D8";
name = Regular;
paths = (
{
closed = 1;
nodes = (
"473 -30 OFFCURVE",
"573 77 OFFCURVE",
"573 177 CURVE SMOOTH",
"573 277 OFFCURVE",
"485 320 OFFCURVE",
"376 325 CURVE",
"380 348 OFFCURVE",
"383 369 OFFCURVE",
"383 387 CURVE SMOOTH",
"383 442 OFFCURVE",
"350 462 OFFCURVE",
"303 462 CURVE SMOOTH",
"293 462 OFFCURVE",
"282 461 OFFCURVE",
"272 459 CURVE",
"316 512 OFFCURVE",
"377 552 OFFCURVE",
"439 552 CURVE SMOOTH",
"459 552 OFFCURVE",
"480 548 OFFCURVE",
"491 539 CURVE SMOOTH",
"508 525 OFFCURVE",
"512 519 OFFCURVE",
"519 519 CURVE SMOOTH",
"553 519 OFFCURVE",
"595 562 OFFCURVE",
"595 598 CURVE SMOOTH",
"595 624 OFFCURVE",
"576 648 OFFCURVE",
"521 648 CURVE SMOOTH",
"456 648 OFFCURVE",
"337 606 OFFCURVE",
"232 485 CURVE SMOOTH",
"213 463 OFFCURVE",
"185 421 OFFCURVE",
"185 396 CURVE SMOOTH",
"185 370 OFFCURVE",
"192 364 OFFCURVE",
"204 364 CURVE SMOOTH",
"215 364 OFFCURVE",
"230 369 OFFCURVE",
"253 369 CURVE SMOOTH",
"285 369 OFFCURVE",
"321 359 OFFCURVE",
"321 324 CURVE",
"225 319 OFFCURVE",
"130 290 OFFCURVE",
"69 235 CURVE SMOOTH",
"28 198 OFFCURVE",
"0 149 OFFCURVE",
"0 87 CURVE SMOOTH",
"0 26 OFFCURVE",
"40 -29 OFFCURVE",
"95 -29 CURVE SMOOTH",
"137 -29 OFFCURVE",
"166 18 OFFCURVE",
"166 47 CURVE SMOOTH",
"166 58 OFFCURVE",
"162 68 OFFCURVE",
"152 68 CURVE SMOOTH",
"117 68 OFFCURVE",
"77 81 OFFCURVE",
"77 121 CURVE SMOOTH",
"77 150 OFFCURVE",
"95 173 OFFCURVE",
"119 190 CURVE SMOOTH",
"154 216 OFFCURVE",
"214 231 OFFCURVE",
"288 233 CURVE",
"262 183 OFFCURVE",
"232 124 OFFCURVE",
"232 73 CURVE SMOOTH",
"232 13 OFFCURVE",
"274 -30 OFFCURVE",
"349 -30 CURVE SMOOTH"
);
},
{
closed = 1;
nodes = (
"371 58 OFFCURVE",
"334 77 OFFCURVE",
"334 118 CURVE SMOOTH",
"334 143 OFFCURVE",
"343 183 OFFCURVE",
"354 227 CURVE",
"423 213 OFFCURVE",
"485 179 OFFCURVE",
"485 125 CURVE SMOOTH",
"485 87 OFFCURVE",
"446 58 OFFCURVE",
"405 58 CURVE SMOOTH"
);
}
);
width = 620;
}
);
leftKerningGroup = knSHA;
rightKerningGroup = knSHA;
unicode = 0CB6;
},
{
color = 4;
glyphname = knSSA;
lastChange = "2016-01-01 06:02:11 +0000";
layers = (
{
layerId = "59118767-2CA9-48AA-9373-694D24C960D8";
name = Regular;
paths = (
{
closed = 1;
nodes = (
"177 -50 OFFCURVE",
"247 -9 OFFCURVE",
"294 32 CURVE",
"318 7 OFFCURVE",
"354 -13 OFFCURVE",
"406 -13 CURVE SMOOTH",
"440 -13 OFFCURVE",
"474 -4 OFFCURVE",
"505 10 CURVE",
"536 -26 OFFCURVE",
"570 -50 OFFCURVE",
"604 -50 CURVE SMOOTH",
"637 -50 OFFCURVE",
"656 -17 OFFCURVE",
"656 0 CURVE SMOOTH",
"656 12 OFFCURVE",
"651 14 OFFCURVE",
"630 23 CURVE SMOOTH",
"602 36 OFFCURVE",
"587 44 OFFCURVE",
"574 57 CURVE",
"618 98 OFFCURVE",
"647 152 OFFCURVE",
"647 207 CURVE SMOOTH",
"647 259 OFFCURVE",
"622 282 OFFCURVE",
"593 282 CURVE SMOOTH",
"544 282 OFFCURVE",
"522 218 OFFCURVE",
"527 203 CURVE SMOOTH",
"531 192 OFFCURVE",
"560 177 OFFCURVE",
"560 144 CURVE SMOOTH",
"560 124 OFFCURVE",
"549 108 OFFCURVE",
"529 97 CURVE",
"494 129 OFFCURVE",
"472 163 OFFCURVE",
"446 216 CURVE",
"482 255 OFFCURVE",
"505 309 OFFCURVE",
"505 357 CURVE SMOOTH",
"505 414 OFFCURVE",
"474 461 OFFCURVE",
"402 461 CURVE SMOOTH",
"364 461 OFFCURVE",
"319 441 OFFCURVE",
"252 409 CURVE",
"297 478 OFFCURVE",
"371 539 OFFCURVE",
"447 539 CURVE SMOOTH",
"467 539 OFFCURVE",
"487 534 OFFCURVE",
"499 526 CURVE SMOOTH",
"516 515 OFFCURVE",
"517 506 OFFCURVE",
"527 506 CURVE SMOOTH",
"561 506 OFFCURVE",
"603 549 OFFCURVE",
"603 585 CURVE SMOOTH",
"603 611 OFFCURVE",
"584 635 OFFCURVE",
"529 635 CURVE SMOOTH",
"464 635 OFFCURVE",
"345 593 OFFCURVE",
"240 472 CURVE SMOOTH",
"212 439 OFFCURVE",
"186 391 OFFCURVE",
"186 353 CURVE SMOOTH",
"187 324 OFFCURVE",
"195 308 OFFCURVE",
"222 308 CURVE SMOOTH",
"239 308 OFFCURVE",
"281 331 OFFCURVE",
"307 338 CURVE",
"277 302 OFFCURVE",
"269 268 OFFCURVE",
"269 243 CURVE SMOOTH",
"269 197 OFFCURVE",
"298 165 OFFCURVE",
"339 165 CURVE SMOOTH",
"363 165 OFFCURVE",
"386 172 OFFCURVE",
"406 184 CURVE",
"419 150 OFFCURVE",
"435 115 OFFCURVE",
"454 81 CURVE",
"416 81 OFFCURVE",
"382 90 OFFCURVE",
"356 127 CURVE SMOOTH",
"347 140 OFFCURVE",
"341 143 OFFCURVE",
"334 143 CURVE SMOOTH",
"324 143 OFFCURVE",
"315 135 OFFCURVE",
"304 122 CURVE SMOOTH",
"286 100 OFFCURVE",
"267 82 OFFCURVE",
"247 69 CURVE",
"251 89 OFFCURVE",
"253 107 OFFCURVE",
"253 123 CURVE SMOOTH",
"253 197 OFFCURVE",
"214 231 OFFCURVE",
"158 231 CURVE SMOOTH",
"65 231 OFFCURVE",
"0 135 OFFCURVE",
"0 55 CURVE SMOOTH",
"0 -1 OFFCURVE",
"32 -50 OFFCURVE",
"108 -50 CURVE SMOOTH"
);
},
{
closed = 1;
nodes = (
"97 40 OFFCURVE",
"72 73 OFFCURVE",
"72 99 CURVE SMOOTH",
"72 120 OFFCURVE",
"88 138 OFFCURVE",
"119 138 CURVE SMOOTH",
"165 138 OFFCURVE",
"203 103 OFFCURVE",
"203 47 CURVE",
"188 43 OFFCURVE",
"172 40 OFFCURVE",
"156 40 CURVE SMOOTH"
);
},
{
closed = 1;
nodes = (
"354 261 OFFCURVE",
"335 272 OFFCURVE",
"335 300 CURVE SMOOTH",
"335 334 OFFCURVE",
"364 360 OFFCURVE",
"393 360 CURVE SMOOTH",
"424 360 OFFCURVE",
"438 342 OFFCURVE",
"438 312 CURVE SMOOTH",
"438 288 OFFCURVE",
"416 261 OFFCURVE",
"379 261 CURVE SMOOTH"
);
}
);
width = 696;
}
);
leftKerningGroup = knPA;
leftMetricsKey = knPA;
rightKerningGroup = SSA;
unicode = 0CB7;
},
{
color = 4;
glyphname = knSA;
lastChange = "2016-01-01 06:02:12 +0000";
layers = (
{
layerId = "59118767-2CA9-48AA-9373-694D24C960D8";
name = Regular;
paths = (
{
closed = 1;
nodes = (
"135 -191 OFFCURVE",
"163 -144 OFFCURVE",
"163 -115 CURVE SMOOTH",
"163 -104 OFFCURVE",
"159 -95 OFFCURVE",
"149 -94 CURVE SMOOTH",
"126 -91 OFFCURVE",
"77 -83 OFFCURVE",
"77 -39 CURVE SMOOTH",
"77 -5 OFFCURVE",
"105 5 OFFCURVE",
"130 5 CURVE SMOOTH",
"162 5 OFFCURVE",
"216 -12 OFFCURVE",
"260 -12 CURVE SMOOTH",
"374 -12 OFFCURVE",
"493 103 OFFCURVE",
"493 209 CURVE SMOOTH",
"493 258 OFFCURVE",
"468 282 OFFCURVE",
"439 282 CURVE SMOOTH",
"391 282 OFFCURVE",
"366 220 OFFCURVE",
"371 203 CURVE SMOOTH",
"375 190 OFFCURVE",
"400 180 OFFCURVE",
"400 141 CURVE SMOOTH",
"400 100 OFFCURVE",
"372 89 OFFCURVE",
"336 89 CURVE SMOOTH",
"288 89 OFFCURVE",
"220 109 OFFCURVE",
"176 109 CURVE SMOOTH",
"79 109 OFFCURVE",
"0 10 OFFCURVE",
"0 -77 CURVE SMOOTH",
"0 -147 OFFCURVE",
"51 -191 OFFCURVE",
"92 -191 CURVE SMOOTH"
);
},
{
closed = 1;
nodes = (
"192 261 OFFCURVE",
"173 272 OFFCURVE",
"173 300 CURVE SMOOTH",
"173 334 OFFCURVE",
"202 360 OFFCURVE",
"231 360 CURVE SMOOTH",
"262 360 OFFCURVE",
"276 342 OFFCURVE",
"276 312 CURVE SMOOTH",
"276 288 OFFCURVE",
"254 261 OFFCURVE",
"217 261 CURVE SMOOTH"
);
},
{
closed = 1;
nodes = (
"271 165 OFFCURVE",
"343 272 OFFCURVE",
"343 357 CURVE SMOOTH",
"343 414 OFFCURVE",
"312 461 OFFCURVE",
"240 461 CURVE SMOOTH",
"202 461 OFFCURVE",
"157 441 OFFCURVE",
"90 409 CURVE",
"135 478 OFFCURVE",
"209 539 OFFCURVE",
"285 539 CURVE SMOOTH",
"305 539 OFFCURVE",
"325 534 OFFCURVE",
"337 526 CURVE SMOOTH",
"354 515 OFFCURVE",
"355 506 OFFCURVE",
"365 506 CURVE SMOOTH",
"399 506 OFFCURVE",
"441 549 OFFCURVE",
"441 585 CURVE SMOOTH",
"441 611 OFFCURVE",
"422 635 OFFCURVE",
"367 635 CURVE SMOOTH",
"302 635 OFFCURVE",
"183 593 OFFCURVE",
"78 472 CURVE SMOOTH",
"50 439 OFFCURVE",
"24 391 OFFCURVE",
"24 353 CURVE SMOOTH",
"25 324 OFFCURVE",
"33 308 OFFCURVE",
"60 308 CURVE SMOOTH",
"77 308 OFFCURVE",
"119 331 OFFCURVE",
"145 338 CURVE",
"115 302 OFFCURVE",
"107 268 OFFCURVE",
"107 243 CURVE SMOOTH",
"107 197 OFFCURVE",
"136 165 OFFCURVE",
"177 165 CURVE SMOOTH"
);
}
);
width = 525;
}
);
leftKerningGroup = knSA;
rightKerningGroup = knPA;
rightMetricsKey = knPA;
unicode = 0CB8;
},
{
color = 4;
glyphname = knHA;
lastChange = "2016-01-01 06:02:11 +0000";
layers = (
{
layerId = "59118767-2CA9-48AA-9373-694D24C960D8";
name = Regular;
paths = (
{
closed = 1;
nodes = (
"190 -51 OFFCURVE",
"289 38 OFFCURVE",
"364 146 CURVE",
"403 57 OFFCURVE",
"441 -14 OFFCURVE",
"521 -14 CURVE SMOOTH",
"655 -14 OFFCURVE",
"745 163 OFFCURVE",
"745 301 CURVE SMOOTH",
"745 389 OFFCURVE",
"708 461 OFFCURVE",
"623 461 CURVE SMOOTH",
"543 461 OFFCURVE",
"465 381 OFFCURVE",
"387 279 CURVE",
"342 368 OFFCURVE",
"293 434 OFFCURVE",
"203 434 CURVE SMOOTH",
"181 434 OFFCURVE",
"157 429 OFFCURVE",
"131 419 CURVE",
"176 481 OFFCURVE",
"244 532 OFFCURVE",
"314 532 CURVE SMOOTH",
"334 532 OFFCURVE",
"354 527 OFFCURVE",
"366 519 CURVE SMOOTH",
"383 508 OFFCURVE",
"383 499 OFFCURVE",
"394 499 CURVE SMOOTH",
"428 499 OFFCURVE",
"470 542 OFFCURVE",
"470 578 CURVE SMOOTH",
"470 604 OFFCURVE",
"451 628 OFFCURVE",
"396 628 CURVE SMOOTH",
"331 628 OFFCURVE",
"212 586 OFFCURVE",
"107 465 CURVE SMOOTH",
"82 437 OFFCURVE",
"53 387 OFFCURVE",
"53 346 CURVE SMOOTH",
"53 327 OFFCURVE",
"64 310 OFFCURVE",
"75 310 CURVE SMOOTH",
"98 310 OFFCURVE",
"130 337 OFFCURVE",
"167 344 CURVE",
"67 235 OFFCURVE",
"22 110 OFFCURVE",
"22 36 CURVE SMOOTH",
"22 -25 OFFCURVE",
"57 -51 OFFCURVE",
"106 -51 CURVE SMOOTH"
);
},
{
closed = 1;
nodes = (
"144 54 OFFCURVE",
"125 69 OFFCURVE",
"125 102 CURVE SMOOTH",
"125 202 OFFCURVE",
"177 283 OFFCURVE",
"227 333 CURVE",
"260 314 OFFCURVE",
"298 275 OFFCURVE",
"334 208 CURVE",
"269 120 OFFCURVE",
"221 54 OFFCURVE",
"161 54 CURVE SMOOTH"
);
},
{
closed = 1;
nodes = (
"498 85 OFFCURVE",
"459 148 OFFCURVE",
"419 219 CURVE",
"470 284 OFFCURVE",
"517 357 OFFCURVE",
"580 357 CURVE SMOOTH",
"630 357 OFFCURVE",
"660 288 OFFCURVE",
"660 231 CURVE SMOOTH",
"660 162 OFFCURVE",
"621 85 OFFCURVE",
"558 85 CURVE SMOOTH"
);
}
);
width = 782;
}
);
leftKerningGroup = knDA;
leftMetricsKey = knDA;
rightKerningGroup = knHA;
unicode = 0CB9;
},
{
color = 4;
glyphname = knRRA;
lastChange = "2016-01-01 06:02:12 +0000";
layers = (
{
layerId = "59118767-2CA9-48AA-9373-694D24C960D8";
name = Regular;
paths = (
{
closed = 1;
nodes = (
"271 -16 OFFCURVE",
"325 9 OFFCURVE",
"372 47 CURVE",
"414 5 OFFCURVE",
"462 -12 OFFCURVE",
"513 -12 CURVE SMOOTH",
"662 -12 OFFCURVE",
"819 132 OFFCURVE",
"819 314 CURVE SMOOTH",
"819 438 OFFCURVE",
"747 489 OFFCURVE",
"672 489 CURVE SMOOTH",
"592 489 OFFCURVE",
"494 430 OFFCURVE",
"494 326 CURVE SMOOTH",
"494 315 OFFCURVE",
"495 308 OFFCURVE",
"497 301 CURVE",
"472 302 OFFCURVE",
"448 302 OFFCURVE",
"430 302 CURVE SMOOTH",
"406 302 OFFCURVE",
"379 302 OFFCURVE",
"353 301 CURVE",
"378 329 OFFCURVE",
"391 364 OFFCURVE",
"391 396 CURVE SMOOTH",
"391 444 OFFCURVE",
"361 484 OFFCURVE",
"295 484 CURVE SMOOTH",
"152 484 OFFCURVE",
"29 295 OFFCURVE",
"29 156 CURVE SMOOTH",
"29 52 OFFCURVE",
"98 -16 OFFCURVE",
"206 -16 CURVE SMOOTH"
);
},
{
closed = 1;
nodes = (
"175 80 OFFCURVE",
"120 124 OFFCURVE",
"120 207 CURVE SMOOTH",
"120 307 OFFCURVE",
"198 403 OFFCURVE",
"260 403 CURVE SMOOTH",
"285 403 OFFCURVE",
"297 387 OFFCURVE",
"297 361 CURVE SMOOTH",
"297 319 OFFCURVE",
"265 308 OFFCURVE",
"222 295 CURVE SMOOTH",
"181 282 OFFCURVE",
"162 228 OFFCURVE",
"162 217 CURVE SMOOTH",
"162 215 OFFCURVE",
"163 208 OFFCURVE",
"174 208 CURVE SMOOTH",
"187 208 OFFCURVE",
"261 217 OFFCURVE",
"393 217 CURVE SMOOTH",
"525 217 OFFCURVE",
"599 208 OFFCURVE",
"614 208 CURVE SMOOTH",
"650 208 OFFCURVE",
"689 262 OFFCURVE",
"689 278 CURVE SMOOTH",
"689 285 OFFCURVE",
"682 289 OFFCURVE",
"677 289 CURVE SMOOTH",
"625 289 OFFCURVE",
"570 292 OFFCURVE",
"570 343 CURVE SMOOTH",
"570 376 OFFCURVE",
"593 392 OFFCURVE",
"623 392 CURVE SMOOTH",
"668 392 OFFCURVE",
"730 354 OFFCURVE",
"730 262 CURVE SMOOTH",
"730 146 OFFCURVE",
"652 85 OFFCURVE",
"553 85 CURVE SMOOTH",
"504 85 OFFCURVE",
"458 108 OFFCURVE",
"430 163 CURVE SMOOTH",
"426 171 OFFCURVE",
"421 173 OFFCURVE",
"415 173 CURVE SMOOTH",
"403 173 OFFCURVE",
"396 166 OFFCURVE",
"384 152 CURVE SMOOTH",
"345 106 OFFCURVE",
"301 80 OFFCURVE",
"246 80 CURVE SMOOTH"
);
}
);
width = 843;
}
);
leftKerningGroup = knLA;
leftMetricsKey = knLA;
rightKerningGroup = knA;
rightMetricsKey = knA;
unicode = 0CB1;
},
{
color = 4;
glyphname = knLLA;
lastChange = "2016-01-01 06:02:12 +0000";
layers = (
{
layerId = "59118767-2CA9-48AA-9373-694D24C960D8";
name = Regular;
paths = (
{
closed = 1;
nodes = (
"625 -31 OFFCURVE",
"718 68 OFFCURVE",
"718 161 CURVE SMOOTH",
"718 253 OFFCURVE",
"657 295 OFFCURVE",
"529 295 CURVE",
"565 366 LINE SMOOTH",
"571 377 OFFCURVE",
"574 390 OFFCURVE",
"574 402 CURVE SMOOTH",
"574 435 OFFCURVE",
"550 467 OFFCURVE",
"500 480 CURVE",
"542 522 OFFCURVE",
"595 552 OFFCURVE",
"648 552 CURVE SMOOTH",
"668 552 OFFCURVE",
"688 547 OFFCURVE",
"700 539 CURVE SMOOTH",
"717 527 OFFCURVE",
"719 519 OFFCURVE",
"728 519 CURVE SMOOTH",
"762 519 OFFCURVE",
"804 562 OFFCURVE",
"804 598 CURVE SMOOTH",
"804 624 OFFCURVE",
"785 648 OFFCURVE",
"730 648 CURVE SMOOTH",
"665 648 OFFCURVE",
"546 606 OFFCURVE",
"441 485 CURVE SMOOTH",
"414 451 OFFCURVE",
"404 432 OFFCURVE",
"404 414 CURVE SMOOTH",
"404 399 OFFCURVE",
"414 386 OFFCURVE",
"440 380 CURVE SMOOTH",
"465 374 OFFCURVE",
"479 362 OFFCURVE",
"479 343 CURVE SMOOTH",
"479 335 OFFCURVE",
"476 326 OFFCURVE",
"471 315 CURVE",
"467 308 OFFCURVE",
"463 300 OFFCURVE",
"459 290 CURVE",
"419 288 OFFCURVE",
"373 285 OFFCURVE",
"318 285 CURVE SMOOTH",
"302 285 OFFCURVE",
"287 285 OFFCURVE",
"272 286 CURVE",
"302 330 OFFCURVE",
"319 377 OFFCURVE",
"319 419 CURVE SMOOTH",
"319 503 OFFCURVE",
"259 544 OFFCURVE",
"193 544 CURVE SMOOTH",
"89 544 OFFCURVE",
"22 448 OFFCURVE",
"22 353 CURVE SMOOTH",
"22 251 OFFCURVE",
"94 200 OFFCURVE",
"207 200 CURVE SMOOTH",
"265 200 OFFCURVE",
"337 204 OFFCURVE",
"420 205 CURVE",
"402 162 OFFCURVE",
"387 116 OFFCURVE",
"387 85 CURVE SMOOTH",
"387 6 OFFCURVE",
"452 -31 OFFCURVE",
"516 -31 CURVE SMOOTH"
);
},
{
closed = 1;
nodes = (
"148 306 OFFCURVE",
"99 334 OFFCURVE",
"99 394 CURVE SMOOTH",
"99 427 OFFCURVE",
"122 452 OFFCURVE",
"153 452 CURVE SMOOTH",
"190 452 OFFCURVE",
"229 411 OFFCURVE",
"229 355 CURVE SMOOTH",
"229 336 OFFCURVE",
"224 316 OFFCURVE",
"212 293 CURVE"
);
},
{
closed = 1;
nodes = (
"521 59 OFFCURVE",
"476 85 OFFCURVE",
"476 137 CURVE SMOOTH",
"476 157 OFFCURVE",
"481 180 OFFCURVE",
"490 206 CURVE",
"553 205 OFFCURVE",
"632 187 OFFCURVE",
"632 116 CURVE SMOOTH",
"632 78 OFFCURVE",
"599 59 OFFCURVE",
"563 59 CURVE SMOOTH"
);
}
);
width = 784;
}
);
leftKerningGroup = knLLA;
rightKerningGroup = knLLA;
unicode = 0CB3;
},
{
color = 4;
glyphname = knLLLA;
lastChange = "2016-01-01 06:02:10 +0000";
layers = (
{
layerId = "59118767-2CA9-48AA-9373-694D24C960D8";
name = Regular;
paths = (
{
closed = 1;
nodes = (
"261 -14 OFFCURVE",
"325 6 OFFCURVE",
"380 47 CURVE",
"422 5 OFFCURVE",
"470 -12 OFFCURVE",
"521 -12 CURVE SMOOTH",
"667 -12 OFFCURVE",
"827 130 OFFCURVE",
"827 314 CURVE SMOOTH",
"827 438 OFFCURVE",
"754 489 OFFCURVE",
"683 489 CURVE SMOOTH",
"593 489 OFFCURVE",
"492 408 OFFCURVE",
"492 294 CURVE SMOOTH",
"492 211 OFFCURVE",
"545 172 OFFCURVE",
"584 172 CURVE SMOOTH",
"626 172 OFFCURVE",
"655 219 OFFCURVE",
"655 248 CURVE SMOOTH",
"655 259 OFFCURVE",
"651 269 OFFCURVE",
"641 269 CURVE SMOOTH",
"608 269 OFFCURVE",
"569 281 OFFCURVE",
"569 329 CURVE SMOOTH",
"569 368 OFFCURVE",
"595 392 OFFCURVE",
"631 392 CURVE SMOOTH",
"676 392 OFFCURVE",
"738 354 OFFCURVE",
"738 262 CURVE SMOOTH",
"738 146 OFFCURVE",
"660 85 OFFCURVE",
"561 85 CURVE SMOOTH",
"513 85 OFFCURVE",
"467 108 OFFCURVE",
"439 161 CURVE SMOOTH",
"434 170 OFFCURVE",
"430 173 OFFCURVE",
"423 173 CURVE SMOOTH",
"411 173 OFFCURVE",
"403 166 OFFCURVE",
"392 152 CURVE SMOOTH",
"354 104 OFFCURVE",
"309 80 OFFCURVE",
"254 80 CURVE SMOOTH",
"183 80 OFFCURVE",
"126 128 OFFCURVE",
"126 207 CURVE SMOOTH",
"126 257 OFFCURVE",
"147 312 OFFCURVE",
"182 346 CURVE SMOOTH",
"202 366 OFFCURVE",
"227 381 OFFCURVE",
"255 381 CURVE SMOOTH",
"290 381 OFFCURVE",
"309 356 OFFCURVE",
"309 331 CURVE SMOOTH",
"309 303 OFFCURVE",
"285 268 OFFCURVE",
"235 251 CURVE SMOOTH",
"221 246 OFFCURVE",
"207 235 OFFCURVE",
"207 221 CURVE SMOOTH",
"207 216 OFFCURVE",
"209 210 OFFCURVE",
"214 204 CURVE SMOOTH",
"221 195 OFFCURVE",
"233 190 OFFCURVE",
"248 190 CURVE SMOOTH",
"309 190 OFFCURVE",
"416 263 OFFCURVE",
"416 354 CURVE SMOOTH",
"416 416 OFFCURVE",
"372 460 OFFCURVE",
"301 460 CURVE SMOOTH",
"151 460 OFFCURVE",
"29 304 OFFCURVE",
"29 154 CURVE SMOOTH",
"29 41 OFFCURVE",
"108 -14 OFFCURVE",
"203 -14 CURVE SMOOTH"
);
}
);
width = 851;
}
);
leftKerningGroup = knLA;
leftMetricsKey = knLA;
rightKerningGroup = knA;
rightMetricsKey = knA;
unicode = 0CDE;
},
{
color = 4;
glyphname = knAnusvara;
lastChange = "2016-01-01 06:02:12 +0000";
layers = (
{
layerId = "59118767-2CA9-48AA-9373-694D24C960D8";
name = Regular;
paths = (
{
closed = 1;
nodes = (
"274 59 OFFCURVE",
"373 177 OFFCURVE",
"373 294 CURVE SMOOTH",
"373 353 OFFCURVE",
"347 420 OFFCURVE",
"243 420 CURVE SMOOTH",
"83 420 OFFCURVE",
"10 260 OFFCURVE",
"10 175 CURVE SMOOTH",
"10 161 OFFCURVE",
"12 146 OFFCURVE",
"28 146 CURVE SMOOTH",
"41 146 OFFCURVE",
"47 154 OFFCURVE",
"55 171 CURVE",
"55 100 OFFCURVE",
"94 59 OFFCURVE",
"160 59 CURVE SMOOTH"
);
},
{
closed = 1;
nodes = (
"134 164 OFFCURVE",
"95 197 OFFCURVE",
"95 252 CURVE",
"120 288 OFFCURVE",
"158 318 OFFCURVE",
"221 318 CURVE SMOOTH",
"288 318 OFFCURVE",
"304 284 OFFCURVE",
"304 255 CURVE SMOOTH",
"304 192 OFFCURVE",
"227 164 OFFCURVE",
"183 164 CURVE SMOOTH"
);
}
);
width = 403;
}
);
leftKerningGroup = Anusvara;
rightKerningGroup = Anuswara;
unicode = 0C82;
},
{
color = 4;
glyphname = knVisarga;
lastChange = "2016-01-01 06:02:12 +0000";
layers = (
{
layerId = "59118767-2CA9-48AA-9373-694D24C960D8";
name = Regular;
paths = (
{
closed = 1;
nodes = (
"197 20 OFFCURVE",
"267 100 OFFCURVE",
"267 180 CURVE SMOOTH",
"267 220 OFFCURVE",
"248 266 OFFCURVE",
"175 266 CURVE SMOOTH",
"62 266 OFFCURVE",
"10 157 OFFCURVE",
"10 99 CURVE SMOOTH",
"10 90 OFFCURVE",
"12 79 OFFCURVE",
"23 79 CURVE SMOOTH",
"32 79 OFFCURVE",
"36 85 OFFCURVE",
"42 96 CURVE",
"42 48 OFFCURVE",
"69 20 OFFCURVE",
"116 20 CURVE SMOOTH"
);
},
{
closed = 1;
nodes = (
"104 99 OFFCURVE",
"81 117 OFFCURVE",
"81 154 CURVE",
"99 174 OFFCURVE",
"122 189 OFFCURVE",
"157 189 CURVE SMOOTH",
"198 189 OFFCURVE",
"207 169 OFFCURVE",
"207 153 CURVE SMOOTH",
"207 116 OFFCURVE",
"161 99 OFFCURVE",
"134 99 CURVE SMOOTH"
);
},
{
closed = 1;
nodes = (
"201 310 OFFCURVE",
"262 382 OFFCURVE",
"262 458 CURVE SMOOTH",
"262 507 OFFCURVE",
"237 548 OFFCURVE",
"186 548 CURVE SMOOTH",
"102 548 OFFCURVE",
"40 471 OFFCURVE",
"40 388 CURVE SMOOTH",
"40 368 OFFCURVE",
"43 348 OFFCURVE",
"55 348 CURVE SMOOTH",
"65 348 OFFCURVE",
"68 355 OFFCURVE",
"71 365 CURVE",
"79 335 OFFCURVE",
"98 310 OFFCURVE",
"134 310 CURVE SMOOTH"
);
},
{
closed = 1;
nodes = (
"118 386 OFFCURVE",
"99 401 OFFCURVE",
"95 426 CURVE",
"110 452 OFFCURVE",
"131 473 OFFCURVE",
"172 473 CURVE SMOOTH",
"198 473 OFFCURVE",
"211 459 OFFCURVE",
"211 440 CURVE SMOOTH",
"211 411 OFFCURVE",
"173 386 OFFCURVE",
"142 386 CURVE SMOOTH"
);
}
);
width = 312;
}
);
leftKerningGroup = Visarga;
rightKerningGroup = Visarga;
unicode = 0C83;
},
{
color = 4;
glyphname = knVirama;
lastChange = "2016-01-01 06:02:12 +0000";
layers = (
{
layerId = "59118767-2CA9-48AA-9373-694D24C960D8";
name = Regular;
paths = (
{
closed = 1;
nodes = (
"99 299 OFFCURVE",
"104 300 OFFCURVE",
"108 306 CURVE",
"127 339 OFFCURVE",
"136 353 OFFCURVE",
"159 385 CURVE",
"162 381 OFFCURVE",
"166 381 OFFCURVE",
"171 383 CURVE",
"205 403 LINE",
"209 406 OFFCURVE",
"211 409 OFFCURVE",
"211 412 CURVE SMOOTH",
"211 413 OFFCURVE",
"210 415 OFFCURVE",
"209 417 CURVE",
"199 433 LINE",
"279 520 OFFCURVE",
"389 605 OFFCURVE",
"482 642 CURVE",
"464 611 OFFCURVE",
"456 582 OFFCURVE",
"456 554 CURVE SMOOTH",
"456 493 OFFCURVE",
"496 449 OFFCURVE",
"564 449 CURVE SMOOTH",
"656 449 OFFCURVE",
"764 542 OFFCURVE",
"764 634 CURVE SMOOTH",
"764 706 OFFCURVE",
"688 738 OFFCURVE",
"597 739 CURVE",
"616 762 OFFCURVE",
"637 776 OFFCURVE",
"662 792 CURVE SMOOTH",
"678 802 OFFCURVE",
"685 815 OFFCURVE",
"685 827 CURVE SMOOTH",
"685 848 OFFCURVE",
"668 859 OFFCURVE",
"651 859 CURVE SMOOTH",
"634 859 OFFCURVE",
"618 848 OFFCURVE",
"599 830 CURVE SMOOTH",
"571 804 OFFCURVE",
"539 764 OFFCURVE",
"516 726 CURVE",
"330 673 OFFCURVE",
"158 473 OFFCURVE",
"90 367 CURVE",
"67 329 LINE",
"64 324 OFFCURVE",
"66 319 OFFCURVE",
"71 315 CURVE",
"94 302 LINE SMOOTH"
);
},
{
closed = 1;
nodes = (
"97 85 OFFCURVE",
"99 86 OFFCURVE",
"101 87 CURVE",
"124 100 LINE",
"127 102 OFFCURVE",
"129 105 OFFCURVE",
"129 109 CURVE SMOOTH",
"129 110 OFFCURVE",
"129 112 OFFCURVE",
"128 114 CURVE",
"108 148 LINE",
"106 152 OFFCURVE",
"103 154 OFFCURVE",
"100 154 CURVE SMOOTH",
"98 154 OFFCURVE",
"96 153 OFFCURVE",
"94 152 CURVE",
"71 138 LINE",
"67 136 OFFCURVE",
"65 133 OFFCURVE",
"65 130 CURVE SMOOTH",
"65 129 OFFCURVE",
"66 127 OFFCURVE",
"67 125 CURVE",
"87 90 LINE",
"89 87 OFFCURVE",
"92 85 OFFCURVE",
"95 85 CURVE SMOOTH"
);
},
{
closed = 1;
nodes = (
"187 7 OFFCURVE",
"192 9 OFFCURVE",
"196 14 CURVE",
"209 37 LINE SMOOTH",
"212 42 OFFCURVE",
"211 47 OFFCURVE",
"205 51 CURVE",
"171 71 LINE",
"165 74 OFFCURVE",
"160 72 OFFCURVE",
"157 67 CURVE",
"144 43 LINE",
"140 38 OFFCURVE",
"142 33 OFFCURVE",
"147 30 CURVE SMOOTH",
"182 10 LINE SMOOTH"
);
},
{
closed = 1;
nodes = (
"82 197 LINE SMOOTH",
"88 197 OFFCURVE",
"92 201 OFFCURVE",
"92 207 CURVE SMOOTH",
"92 247 LINE SMOOTH",
"92 253 OFFCURVE",
"88 257 OFFCURVE",
"82 257 CURVE SMOOTH",
"55 257 LINE SMOOTH",
"49 257 OFFCURVE",
"45 253 OFFCURVE",
"45 247 CURVE SMOOTH",
"45 207 LINE SMOOTH",
"45 201 OFFCURVE",
"49 197 OFFCURVE",
"55 197 CURVE SMOOTH"
);
},
{
closed = 1;
nodes = (
"304 -12 LINE SMOOTH",
"310 -12 OFFCURVE",
"314 -8 OFFCURVE",
"314 -2 CURVE SMOOTH",
"314 25 LINE SMOOTH",
"314 31 OFFCURVE",
"310 35 OFFCURVE",
"304 35 CURVE SMOOTH",
"264 35 LINE SMOOTH",
"258 35 OFFCURVE",
"254 31 OFFCURVE",
"254 25 CURVE SMOOTH",
"254 -2 LINE SMOOTH",
"254 -8 OFFCURVE",
"258 -12 OFFCURVE",
"264 -12 CURVE SMOOTH"
);
},
{
closed = 1;
nodes = (
"382 8 OFFCURVE",
"384 9 OFFCURVE",
"386 10 CURVE",
"421 30 LINE",
"424 32 OFFCURVE",
"426 35 OFFCURVE",
"426 38 CURVE SMOOTH",
"426 40 OFFCURVE",
"425 42 OFFCURVE",
"424 44 CURVE",
"411 67 LINE",
"409 70 OFFCURVE",
"406 72 OFFCURVE",
"402 72 CURVE SMOOTH",
"401 72 OFFCURVE",
"399 72 OFFCURVE",
"397 71 CURVE",
"363 51 LINE",
"359 48 OFFCURVE",
"357 45 OFFCURVE",
"357 42 CURVE SMOOTH",
"357 41 OFFCURVE",
"358 39 OFFCURVE",
"359 37 CURVE",
"373 14 LINE",
"375 10 OFFCURVE",
"378 8 OFFCURVE",
"381 8 CURVE SMOOTH"
);
},
{
closed = 1;
nodes = (
"473 83 OFFCURVE",
"478 85 OFFCURVE",
"481 90 CURVE SMOOTH",
"501 125 LINE SMOOTH",
"504 130 OFFCURVE",
"502 135 OFFCURVE",
"497 139 CURVE",
"474 152 LINE SMOOTH",
"469 155 OFFCURVE",
"464 154 OFFCURVE",
"460 148 CURVE",
"440 114 LINE",
"437 108 OFFCURVE",
"439 103 OFFCURVE",
"444 100 CURVE",
"468 87 LINE"
);
},
{
closed = 1;
nodes = (
"304 419 LINE SMOOTH",
"310 419 OFFCURVE",
"314 423 OFFCURVE",
"314 429 CURVE SMOOTH",
"314 456 LINE SMOOTH",
"314 462 OFFCURVE",
"310 466 OFFCURVE",
"304 466 CURVE SMOOTH",
"264 466 LINE SMOOTH",
"258 466 OFFCURVE",
"254 462 OFFCURVE",
"254 456 CURVE SMOOTH",
"254 429 LINE SMOOTH",
"254 423 OFFCURVE",
"258 419 OFFCURVE",
"264 419 CURVE SMOOTH"
);
},
{
closed = 1;
nodes = (
"513 197 LINE SMOOTH",
"519 197 OFFCURVE",
"523 201 OFFCURVE",
"523 207 CURVE SMOOTH",
"523 247 LINE SMOOTH",
"523 253 OFFCURVE",
"519 257 OFFCURVE",
"513 257 CURVE SMOOTH",
"486 257 LINE SMOOTH",
"480 257 OFFCURVE",
"476 253 OFFCURVE",
"476 247 CURVE SMOOTH",
"476 207 LINE SMOOTH",
"476 201 OFFCURVE",
"480 197 OFFCURVE",
"486 197 CURVE SMOOTH"
);
},
{
closed = 1;
nodes = (
"403 380 OFFCURVE",
"408 382 OFFCURVE",
"411 387 CURVE",
"424 411 LINE",
"428 416 OFFCURVE",
"426 421 OFFCURVE",
"421 424 CURVE SMOOTH",
"386 444 LINE SMOOTH",
"381 447 OFFCURVE",
"376 445 OFFCURVE",
"372 440 CURVE",
"359 417 LINE SMOOTH",
"356 412 OFFCURVE",
"357 407 OFFCURVE",
"363 403 CURVE",
"397 383 LINE"
);
},
{
closed = 1;
nodes = (
"470 300 OFFCURVE",
"472 301 OFFCURVE",
"474 302 CURVE",
"497 316 LINE",
"501 318 OFFCURVE",
"503 321 OFFCURVE",
"503 324 CURVE SMOOTH",
"503 325 OFFCURVE",
"502 327 OFFCURVE",
"501 329 CURVE",
"481 364 LINE",
"479 367 OFFCURVE",
"476 369 OFFCURVE",
"473 369 CURVE SMOOTH",
"471 369 OFFCURVE",
"469 368 OFFCURVE",
"467 367 CURVE",
"444 354 LINE",
"441 352 OFFCURVE",
"439 349 OFFCURVE",
"439 345 CURVE SMOOTH",
"439 344 OFFCURVE",
"439 342 OFFCURVE",
"440 340 CURVE",
"460 306 LINE",
"462 302 OFFCURVE",
"465 300 OFFCURVE",
"468 300 CURVE SMOOTH"
);
},
{
closed = 1;
nodes = (
"568 533 OFFCURVE",
"526 555 OFFCURVE",
"526 600 CURVE SMOOTH",
"526 649 OFFCURVE",
"554 659 OFFCURVE",
"587 659 CURVE SMOOTH",
"622 659 OFFCURVE",
"672 638 OFFCURVE",
"672 592 CURVE SMOOTH",
"672 553 OFFCURVE",
"638 533 OFFCURVE",
"604 533 CURVE SMOOTH"
);
}
);
width = 555;
}
);
unicode = 0CCD;
},
{
color = 4;
glyphname = knNukta;
lastChange = "2016-01-01 06:02:11 +0000";
layers = (
{
layerId = "59118767-2CA9-48AA-9373-694D24C960D8";
name = Regular;
paths = (
{
closed = 1;
nodes = (
"-100 -232 OFFCURVE",
"-50 -196 OFFCURVE",
"-50 -156 CURVE SMOOTH",
"-50 -125 OFFCURVE",
"-79 -84 OFFCURVE",
"-106 -84 CURVE SMOOTH",
"-134 -84 OFFCURVE",
"-189 -124 OFFCURVE",
"-189 -165 CURVE SMOOTH",
"-189 -194 OFFCURVE",
"-157 -232 OFFCURVE",
"-128 -232 CURVE SMOOTH"
);
},
{
closed = 1;
nodes = (
"-310 -232 OFFCURVE",
"-260 -196 OFFCURVE",
"-260 -156 CURVE SMOOTH",
"-260 -125 OFFCURVE",
"-289 -84 OFFCURVE",
"-316 -84 CURVE SMOOTH",
"-344 -84 OFFCURVE",
"-399 -124 OFFCURVE",
"-399 -165 CURVE SMOOTH",
"-399 -194 OFFCURVE",
"-367 -232 OFFCURVE",
"-338 -232 CURVE SMOOTH"
);
}
);
width = 0;
}
);
unicode = 0CBC;
},
{
color = 4;
glyphname = knAvagraha;
lastChange = "2016-01-01 06:02:10 +0000";
layers = (
{
layerId = "59118767-2CA9-48AA-9373-694D24C960D8";
name = Regular;
paths = (
{
closed = 1;
nodes = (
"215 -11 OFFCURVE",
"298 13 OFFCURVE",
"358 55 CURVE SMOOTH",
"406 88 OFFCURVE",
"436 133 OFFCURVE",
"436 173 CURVE SMOOTH",
"436 241 OFFCURVE",
"367 259 OFFCURVE",
"265 299 CURVE SMOOTH",
"198 327 OFFCURVE",
"124 352 OFFCURVE",
"124 389 CURVE SMOOTH",
"124 423 OFFCURVE",
"157 429 OFFCURVE",
"265 429 CURVE SMOOTH",
"308 429 OFFCURVE",
"530 431 OFFCURVE",
"603 431 CURVE",
"638 433 OFFCURVE",
"674 499 OFFCURVE",
"674 516 CURVE SMOOTH",
"674 520 OFFCURVE",
"674 528 OFFCURVE",
"662 528 CURVE SMOOTH",
"604 528 LINE SMOOTH",
"421 528 OFFCURVE",
"206 526 OFFCURVE",
"143 493 CURVE SMOOTH",
"84 461 OFFCURVE",
"34 408 OFFCURVE",
"34 341 CURVE SMOOTH",
"34 278 OFFCURVE",
"108 249 OFFCURVE",
"218 204 CURVE SMOOTH",
"281 179 OFFCURVE",
"336 157 OFFCURVE",
"336 130 CURVE SMOOTH",
"336 123 OFFCURVE",
"332 115 OFFCURVE",
"322 107 CURVE SMOOTH",
"296 85 OFFCURVE",
"255 72 OFFCURVE",
"217 72 CURVE SMOOTH",
"145 72 OFFCURVE",
"93 120 OFFCURVE",
"75 120 CURVE SMOOTH",
"57 120 OFFCURVE",
"20 84 OFFCURVE",
"20 50 CURVE SMOOTH",
"20 14 OFFCURVE",
"62 -11 OFFCURVE",
"137 -11 CURVE SMOOTH"
);
}
);
width = 634;
}
);
leftKerningGroup = Avagraha;
rightKerningGroup = Avagraha;
unicode = 0CBD;
},
{
color = 4;
glyphname = knZero;
lastChange = "2016-01-01 06:02:11 +0000";
layers = (
{
layerId = "59118767-2CA9-48AA-9373-694D24C960D8";
name = Regular;
paths = (
{
closed = 1;
nodes = (
"356 -16 OFFCURVE",
"443 141 OFFCURVE",
"443 268 CURVE SMOOTH",
"443 387 OFFCURVE",
"371 462 OFFCURVE",
"251 462 CURVE SMOOTH",
"219 462 OFFCURVE",
"184 457 OFFCURVE",
"150 447 CURVE SMOOTH",
"117 437 OFFCURVE",
"81 382 OFFCURVE",
"81 355 CURVE SMOOTH",
"81 345 OFFCURVE",
"85 339 OFFCURVE",
"96 339 CURVE SMOOTH",
"100 339 OFFCURVE",
"104 340 OFFCURVE",
"109 341 CURVE",
"54 288 OFFCURVE",
"30 224 OFFCURVE",
"30 161 CURVE SMOOTH",
"30 57 OFFCURVE",
"83 -16 OFFCURVE",
"192 -16 CURVE SMOOTH"
);
},
{
closed = 1;
nodes = (
"152 90 OFFCURVE",
"102 139 OFFCURVE",
"102 198 CURVE SMOOTH",
"102 247 OFFCURVE",
"131 312 OFFCURVE",
"175 352 CURVE",
"191 354 OFFCURVE",
"207 356 OFFCURVE",
"224 356 CURVE SMOOTH",
"314 356 OFFCURVE",
"366 300 OFFCURVE",
"366 214 CURVE SMOOTH",
"366 121 OFFCURVE",
"282 90 OFFCURVE",
"225 90 CURVE SMOOTH"
);
}
);
width = 473;
}
);
unicode = 0CE6;
script = kannada;
category = Number;
subCategory = Other;
},
{
color = 4;
glyphname = knOne;
lastChange = "2016-01-01 06:02:10 +0000";
layers = (
{
layerId = "59118767-2CA9-48AA-9373-694D24C960D8";
name = Regular;
paths = (
{
closed = 1;
nodes = (
"118 -12 OFFCURVE",
"133 -6 OFFCURVE",
"149 5 CURVE SMOOTH",
"161 13 OFFCURVE",
"167 19 OFFCURVE",
"167 30 CURVE SMOOTH",
"167 37 OFFCURVE",
"164 47 OFFCURVE",
"158 62 CURVE SMOOTH",
"141 106 OFFCURVE",
"132 154 OFFCURVE",
"132 199 CURVE SMOOTH",
"132 292 OFFCURVE",
"169 371 OFFCURVE",
"255 371 CURVE SMOOTH",
"366 371 OFFCURVE",
"394 255 OFFCURVE",
"394 145 CURVE SMOOTH",
"394 106 OFFCURVE",
"389 60 OFFCURVE",
"381 2 CURVE",
"381 -6 OFFCURVE",
"386 -10 OFFCURVE",
"392 -10 CURVE SMOOTH",
"417 -10 OFFCURVE",
"477 43 OFFCURVE",
"481 59 CURVE SMOOTH",
"489 94 OFFCURVE",
"494 133 OFFCURVE",
"494 193 CURVE SMOOTH",
"494 400 OFFCURVE",
"406 463 OFFCURVE",
"303 463 CURVE SMOOTH",
"164 463 OFFCURVE",
"30 322 OFFCURVE",
"30 147 CURVE SMOOTH",
"30 60 OFFCURVE",
"57 -12 OFFCURVE",
"104 -12 CURVE SMOOTH"
);
}
);
width = 534;
}
);
unicode = 0CE7;
script = kannada;
category = Number;
subCategory = Other;
},
{
color = 4;
glyphname = knTwo;
lastChange = "2016-01-01 06:02:12 +0000";
layers = (
{
layerId = "59118767-2CA9-48AA-9373-694D24C960D8";
name = Regular;
paths = (
{
closed = 1;
nodes = (
"414 -12 OFFCURVE",
"550 17 OFFCURVE",
"630 97 CURVE SMOOTH",
"672 139 OFFCURVE",
"701 202 OFFCURVE",
"701 267 CURVE SMOOTH",
"701 356 OFFCURVE",
"640 430 OFFCURVE",
"531 430 CURVE SMOOTH",
"413 430 OFFCURVE",
"327 344 OFFCURVE",
"327 233 CURVE SMOOTH",
"327 153 OFFCURVE",
"380 118 OFFCURVE",
"430 118 CURVE SMOOTH",
"516 118 OFFCURVE",
"567 198 OFFCURVE",
"567 280 CURVE SMOOTH",
"567 296 OFFCURVE",
"565 312 OFFCURVE",
"561 327 CURVE",
"593 306 OFFCURVE",
"613 269 OFFCURVE",
"613 229 CURVE SMOOTH",
"613 203 OFFCURVE",
"604 177 OFFCURVE",
"585 153 CURVE SMOOTH",
"535 90 OFFCURVE",
"439 79 OFFCURVE",
"347 79 CURVE SMOOTH",
"245 79 OFFCURVE",
"139 113 OFFCURVE",
"79 168 CURVE",
"70 175 OFFCURVE",
"65 180 OFFCURVE",
"63 180 CURVE SMOOTH",
"40 180 OFFCURVE",
"10 137 OFFCURVE",
"10 101 CURVE SMOOTH",
"10 29 OFFCURVE",
"138 -12 OFFCURVE",
"275 -12 CURVE SMOOTH"
);
},
{
closed = 1;
nodes = (
"424 192 OFFCURVE",
"394 218 OFFCURVE",
"394 267 CURVE SMOOTH",
"394 313 OFFCURVE",
"421 340 OFFCURVE",
"449 340 CURVE SMOOTH",
"477 340 OFFCURVE",
"505 313 OFFCURVE",
"505 263 CURVE SMOOTH",
"505 214 OFFCURVE",
"479 192 OFFCURVE",
"453 192 CURVE SMOOTH"
);
}
);
width = 731;
}
);
unicode = 0CE8;
script = kannada;
category = Number;
subCategory = Other;
},
{
color = 4;
glyphname = knThree;
lastChange = "2016-01-01 06:02:12 +0000";
layers = (
{
layerId = "59118767-2CA9-48AA-9373-694D24C960D8";
name = Regular;
paths = (
{
closed = 1;
nodes = (
"224 -136 OFFCURVE",
"302 -71 OFFCURVE",
"354 16 CURVE",
"387 -1 OFFCURVE",
"436 -14 OFFCURVE",
"475 -14 CURVE SMOOTH",
"500 -14 OFFCURVE",
"520 6 OFFCURVE",
"533 31 CURVE SMOOTH",
"540 44 OFFCURVE",
"545 57 OFFCURVE",
"545 67 CURVE SMOOTH",
"545 87 OFFCURVE",
"530 86 OFFCURVE",
"510 86 CURVE SMOOTH",
"468 86 OFFCURVE",
"437 86 OFFCURVE",
"395 101 CURVE",
"414 154 OFFCURVE",
"425 210 OFFCURVE",
"425 261 CURVE SMOOTH",
"425 373 OFFCURVE",
"373 463 OFFCURVE",
"262 463 CURVE SMOOTH",
"151 463 OFFCURVE",
"46 373 OFFCURVE",
"46 250 CURVE SMOOTH",
"46 177 OFFCURVE",
"83 151 OFFCURVE",
"127 151 CURVE SMOOTH",
"196 151 OFFCURVE",
"283 214 OFFCURVE",
"283 316 CURVE SMOOTH",
"283 329 OFFCURVE",
"282 342 OFFCURVE",
"278 356 CURVE",
"333 328 OFFCURVE",
"358 271 OFFCURVE",
"358 208 CURVE SMOOTH",
"358 180 OFFCURVE",
"353 151 OFFCURVE",
"344 124 CURVE",
"314 131 OFFCURVE",
"274 136 OFFCURVE",
"249 136 CURVE SMOOTH",
"139 136 OFFCURVE",
"30 46 OFFCURVE",
"30 -55 CURVE SMOOTH",
"30 -102 OFFCURVE",
"63 -136 OFFCURVE",
"134 -136 CURVE SMOOTH"
);
},
{
closed = 1;
nodes = (
"124 -37 OFFCURVE",
"111 -25 OFFCURVE",
"111 -10 CURVE SMOOTH",
"111 29 OFFCURVE",
"158 50 OFFCURVE",
"210 50 CURVE SMOOTH",
"240 50 OFFCURVE",
"272 45 OFFCURVE",
"297 37 CURVE",
"263 -7 OFFCURVE",
"215 -37 OFFCURVE",
"159 -37 CURVE SMOOTH"
);
},
{
closed = 1;
nodes = (
"144 225 OFFCURVE",
"113 252 OFFCURVE",
"113 300 CURVE SMOOTH",
"114 348 OFFCURVE",
"141 373 OFFCURVE",
"168 373 CURVE SMOOTH",
"196 373 OFFCURVE",
"224 346 OFFCURVE",
"224 295 CURVE SMOOTH",
"224 247 OFFCURVE",
"199 225 OFFCURVE",
"173 225 CURVE SMOOTH"
);
}
);
width = 575;
}
);
unicode = 0CE9;
script = kannada;
category = Number;
subCategory = Other;
},
{
color = 4;
glyphname = knFour;
lastChange = "2016-01-01 06:02:12 +0000";
layers = (
{
layerId = "59118767-2CA9-48AA-9373-694D24C960D8";
name = Regular;
paths = (
{
closed = 1;
nodes = (
"593 -141 OFFCURVE",
"686 -42 OFFCURVE",
"686 51 CURVE SMOOTH",
"686 154 OFFCURVE",
"604 186 OFFCURVE",
"497 184 CURVE",
"521 233 OFFCURVE",
"547 286 OFFCURVE",
"547 327 CURVE SMOOTH",
"547 397 OFFCURVE",
"503 463 OFFCURVE",
"440 463 CURVE SMOOTH",
"396 463 OFFCURVE",
"374 420 OFFCURVE",
"374 389 CURVE SMOOTH",
"374 376 OFFCURVE",
"376 372 OFFCURVE",
"399 362 CURVE SMOOTH",
"439 345 OFFCURVE",
"457 317 OFFCURVE",
"457 276 CURVE SMOOTH",
"457 244 OFFCURVE",
"446 219 OFFCURVE",
"428 184 CURVE",
"403 185 OFFCURVE",
"291 197 OFFCURVE",
"266 201 CURVE",
"298 246 OFFCURVE",
"317 296 OFFCURVE",
"317 339 CURVE SMOOTH",
"317 423 OFFCURVE",
"257 464 OFFCURVE",
"191 464 CURVE SMOOTH",
"87 464 OFFCURVE",
"20 368 OFFCURVE",
"20 273 CURVE SMOOTH",
"20 138 OFFCURVE",
"141 119 OFFCURVE",
"286 106 CURVE SMOOTH",
"327 103 OFFCURVE",
"359 100 OFFCURVE",
"389 98 CURVE",
"370 53 OFFCURVE",
"355 7 OFFCURVE",
"355 -25 CURVE SMOOTH",
"355 -104 OFFCURVE",
"420 -141 OFFCURVE",
"484 -141 CURVE SMOOTH"
);
},
{
closed = 1;
nodes = (
"143 228 OFFCURVE",
"97 256 OFFCURVE",
"97 314 CURVE SMOOTH",
"97 347 OFFCURVE",
"120 372 OFFCURVE",
"151 372 CURVE SMOOTH",
"188 372 OFFCURVE",
"227 331 OFFCURVE",
"227 275 CURVE SMOOTH",
"227 256 OFFCURVE",
"222 235 OFFCURVE",
"209 212 CURVE"
);
},
{
closed = 1;
nodes = (
"489 -51 OFFCURVE",
"444 -25 OFFCURVE",
"444 27 CURVE SMOOTH",
"444 47 OFFCURVE",
"449 70 OFFCURVE",
"458 96 CURVE",
"521 95 OFFCURVE",
"600 77 OFFCURVE",
"600 6 CURVE SMOOTH",
"600 -32 OFFCURVE",
"567 -51 OFFCURVE",
"531 -51 CURVE SMOOTH"
);
}
);
width = 716;
}
);
unicode = 0CEA;
script = kannada;
category = Number;
subCategory = Other;
},
{
color = 4;
glyphname = knFive;
lastChange = "2016-01-01 06:02:12 +0000";
layers = (
{
layerId = "59118767-2CA9-48AA-9373-694D24C960D8";
name = Regular;
paths = (
{
closed = 1;
nodes = (
"250 -136 OFFCURVE",
"344 -29 OFFCURVE",
"391 93 CURVE",
"428 102 OFFCURVE",
"462 113 OFFCURVE",
"493 126 CURVE",
"516 50 OFFCURVE",
"564 -13 OFFCURVE",
"636 -13 CURVE SMOOTH",
"669 -13 OFFCURVE",
"705 18 OFFCURVE",
"705 47 CURVE SMOOTH",
"705 61 OFFCURVE",
"704 65 OFFCURVE",
"674 77 CURVE SMOOTH",
"631 94 OFFCURVE",
"598 129 OFFCURVE",
"577 172 CURVE",
"701 253 OFFCURVE",
"760 367 OFFCURVE",
"760 440 CURVE SMOOTH",
"760 500 OFFCURVE",
"714 524 OFFCURVE",
"669 524 CURVE SMOOTH",
"559 524 OFFCURVE",
"477 364 OFFCURVE",
"477 235 CURVE SMOOTH",
"477 225 OFFCURVE",
"477 215 OFFCURVE",
"478 205 CURVE",
"460 198 OFFCURVE",
"440 192 OFFCURVE",
"418 186 CURVE",
"423 211 OFFCURVE",
"425 237 OFFCURVE",
"425 261 CURVE SMOOTH",
"425 373 OFFCURVE",
"373 463 OFFCURVE",
"262 463 CURVE SMOOTH",
"151 463 OFFCURVE",
"46 373 OFFCURVE",
"46 250 CURVE SMOOTH",
"46 177 OFFCURVE",
"83 151 OFFCURVE",
"127 151 CURVE SMOOTH",
"196 151 OFFCURVE",
"283 214 OFFCURVE",
"283 316 CURVE SMOOTH",
"283 329 OFFCURVE",
"282 342 OFFCURVE",
"278 356 CURVE",
"333 328 OFFCURVE",
"358 271 OFFCURVE",
"358 208 CURVE SMOOTH",
"358 197 OFFCURVE",
"357 185 OFFCURVE",
"356 174 CURVE",
"315 170 OFFCURVE",
"275 160 OFFCURVE",
"237 150 CURVE SMOOTH",
"121 119 OFFCURVE",
"30 46 OFFCURVE",
"30 -55 CURVE SMOOTH",
"30 -102 OFFCURVE",
"63 -136 OFFCURVE",
"134 -136 CURVE SMOOTH"
);
},
{
closed = 1;
nodes = (
"124 -37 OFFCURVE",
"111 -25 OFFCURVE",
"111 -10 CURVE SMOOTH",
"111 50 OFFCURVE",
"214 62 OFFCURVE",
"326 81 CURVE",
"291 14 OFFCURVE",
"232 -37 OFFCURVE",
"159 -37 CURVE SMOOTH"
);
},
{
closed = 1;
nodes = (
"144 225 OFFCURVE",
"113 252 OFFCURVE",
"113 300 CURVE SMOOTH",
"114 348 OFFCURVE",
"141 373 OFFCURVE",
"168 373 CURVE SMOOTH",
"196 373 OFFCURVE",
"224 346 OFFCURVE",
"224 295 CURVE SMOOTH",
"224 247 OFFCURVE",
"199 225 OFFCURVE",
"173 225 CURVE SMOOTH"
);
},
{
closed = 1;
nodes = (
"551 258 OFFCURVE",
"550 275 OFFCURVE",
"550 292 CURVE SMOOTH",
"550 349 OFFCURVE",
"569 434 OFFCURVE",
"622 434 CURVE SMOOTH",
"646 434 OFFCURVE",
"672 420 OFFCURVE",
"672 386 CURVE SMOOTH",
"672 364 OFFCURVE",
"646 298 OFFCURVE",
"554 242 CURVE"
);
}
);
width = 790;
}
);
unicode = 0CEB;
script = kannada;
category = Number;
subCategory = Other;
},
{
color = 4;
glyphname = knSix;
lastChange = "2016-01-01 06:02:11 +0000";
layers = (
{
layerId = "59118767-2CA9-48AA-9373-694D24C960D8";
name = Regular;
paths = (
{
closed = 1;
nodes = (
"418 -21 OFFCURVE",
"514 -13 OFFCURVE",
"539 -2 CURVE SMOOTH",
"563 9 OFFCURVE",
"583 43 OFFCURVE",
"583 66 CURVE SMOOTH",
"583 82 OFFCURVE",
"567 85 OFFCURVE",
"528 83 CURVE SMOOTH",
"466 80 OFFCURVE",
"397 76 OFFCURVE",
"335 76 CURVE SMOOTH",
"216 76 OFFCURVE",
"118 90 OFFCURVE",
"118 147 CURVE SMOOTH",
"118 159 OFFCURVE",
"121 172 OFFCURVE",
"128 187 CURVE",
"139 184 OFFCURVE",
"151 182 OFFCURVE",
"165 182 CURVE SMOOTH",
"270 182 OFFCURVE",
"370 280 OFFCURVE",
"370 349 CURVE SMOOTH",
"370 386 OFFCURVE",
"349 416 OFFCURVE",
"306 416 CURVE SMOOTH",
"257 416 OFFCURVE",
"196 378 OFFCURVE",
"148 317 CURVE",
"144 332 OFFCURVE",
"142 348 OFFCURVE",
"142 366 CURVE SMOOTH",
"142 414 OFFCURVE",
"155 471 OFFCURVE",
"176 523 CURVE SMOOTH",
"179 531 OFFCURVE",
"181 538 OFFCURVE",
"181 543 CURVE SMOOTH",
"181 554 OFFCURVE",
"174 559 OFFCURVE",
"164 559 CURVE SMOOTH",
"114 559 OFFCURVE",
"72 507 OFFCURVE",
"60 446 CURVE SMOOTH",
"52 410 OFFCURVE",
"48 373 OFFCURVE",
"48 339 CURVE SMOOTH",
"48 294 OFFCURVE",
"56 254 OFFCURVE",
"76 225 CURVE",
"44 180 OFFCURVE",
"30 137 OFFCURVE",
"30 100 CURVE SMOOTH",
"30 49 OFFCURVE",
"52 20 OFFCURVE",
"92 3 CURVE SMOOTH",
"133 -14 OFFCURVE",
"227 -21 OFFCURVE",
"319 -21 CURVE SMOOTH"
);
},
{
closed = 1;
nodes = (
"200 261 OFFCURVE",
"189 264 OFFCURVE",
"179 270 CURVE",
"202 309 OFFCURVE",
"241 339 OFFCURVE",
"268 339 CURVE SMOOTH",
"283 339 OFFCURVE",
"294 326 OFFCURVE",
"294 312 CURVE SMOOTH",
"294 283 OFFCURVE",
"247 261 OFFCURVE",
"214 261 CURVE SMOOTH"
);
}
);
width = 613;
}
);
unicode = 0CEC;
script = kannada;
category = Number;
subCategory = Other;
},
{
color = 4;
glyphname = knSeven;
lastChange = "2016-01-01 06:02:10 +0000";
layers = (
{
layerId = "59118767-2CA9-48AA-9373-694D24C960D8";
name = Regular;
paths = (
{
closed = 1;
nodes = (
"356 -14 OFFCURVE",
"519 -11 OFFCURVE",
"574 -10 CURVE SMOOTH",
"605 -9 OFFCURVE",
"627 -8 OFFCURVE",
"645 2 CURVE SMOOTH",
"657 9 OFFCURVE",
"666 17 OFFCURVE",
"673 33 CURVE SMOOTH",
"679 47 OFFCURVE",
"683 58 OFFCURVE",
"683 66 CURVE SMOOTH",
"683 82 OFFCURVE",
"667 85 OFFCURVE",
"628 83 CURVE SMOOTH",
"566 80 OFFCURVE",
"397 76 OFFCURVE",
"335 76 CURVE SMOOTH",
"247 76 OFFCURVE",
"117 87 OFFCURVE",
"117 141 CURVE SMOOTH",
"117 155 OFFCURVE",
"125 168 OFFCURVE",
"144 178 CURVE SMOOTH",
"230 225 OFFCURVE",
"416 257 OFFCURVE",
"416 398 CURVE SMOOTH",
"416 427 OFFCURVE",
"405 455 OFFCURVE",
"378 478 CURVE SMOOTH",
"336 515 OFFCURVE",
"263 523 OFFCURVE",
"208 523 CURVE SMOOTH",
"174 523 OFFCURVE",
"154 522 OFFCURVE",
"138 514 CURVE",
"126 507 OFFCURVE",
"113 493 OFFCURVE",
"104 478 CURVE",
"94 463 OFFCURVE",
"88 447 OFFCURVE",
"88 436 CURVE SMOOTH",
"88 432 OFFCURVE",
"89 426 OFFCURVE",
"100 426 CURVE SMOOTH",
"110 426 OFFCURVE",
"160 434 OFFCURVE",
"193 434 CURVE SMOOTH",
"248 434 OFFCURVE",
"322 421 OFFCURVE",
"322 373 CURVE SMOOTH",
"322 325 OFFCURVE",
"256 301 OFFCURVE",
"193 276 CURVE SMOOTH",
"106 243 OFFCURVE",
"30 200 OFFCURVE",
"30 100 CURVE SMOOTH",
"30 2 OFFCURVE",
"157 -14 OFFCURVE",
"295 -14 CURVE SMOOTH"
);
}
);
width = 693;
}
);
unicode = 0CED;
script = kannada;
category = Number;
subCategory = Other;
},
{
color = 4;
glyphname = knEight;
lastChange = "2016-01-01 06:02:10 +0000";
layers = (
{
layerId = "59118767-2CA9-48AA-9373-694D24C960D8";
name = Regular;
paths = (
{
closed = 1;
nodes = (
"482 -15 OFFCURVE",
"621 134 OFFCURVE",
"621 298 CURVE SMOOTH",
"621 339 OFFCURVE",
"606 392 OFFCURVE",
"589 428 CURVE",
"625 430 OFFCURVE",
"652 430 OFFCURVE",
"674 430 CURVE SMOOTH",
"706 430 OFFCURVE",
"724 429 OFFCURVE",
"732 429 CURVE SMOOTH",
"759 429 OFFCURVE",
"802 485 OFFCURVE",
"802 510 CURVE SMOOTH",
"802 519 OFFCURVE",
"794 525 OFFCURVE",
"776 524 CURVE SMOOTH",
"522 516 LINE SMOOTH",
"506 516 OFFCURVE",
"488 505 OFFCURVE",
"467 479 CURVE SMOOTH",
"454 462 OFFCURVE",
"448 450 OFFCURVE",
"448 440 CURVE SMOOTH",
"448 425 OFFCURVE",
"460 414 OFFCURVE",
"476 400 CURVE",
"533 346 OFFCURVE",
"539 284 OFFCURVE",
"539 247 CURVE SMOOTH",
"539 125 OFFCURVE",
"403 81 OFFCURVE",
"313 81 CURVE SMOOTH",
"217 81 OFFCURVE",
"127 128 OFFCURVE",
"127 221 CURVE SMOOTH",
"127 264 OFFCURVE",
"150 316 OFFCURVE",
"181 346 CURVE SMOOTH",
"201 366 OFFCURVE",
"226 381 OFFCURVE",
"254 381 CURVE SMOOTH",
"289 381 OFFCURVE",
"308 356 OFFCURVE",
"308 331 CURVE SMOOTH",
"308 303 OFFCURVE",
"284 268 OFFCURVE",
"234 251 CURVE SMOOTH",
"220 246 OFFCURVE",
"206 235 OFFCURVE",
"206 221 CURVE SMOOTH",
"206 216 OFFCURVE",
"208 210 OFFCURVE",
"213 204 CURVE SMOOTH",
"220 195 OFFCURVE",
"232 190 OFFCURVE",
"247 190 CURVE SMOOTH",
"308 190 OFFCURVE",
"415 263 OFFCURVE",
"415 354 CURVE SMOOTH",
"415 416 OFFCURVE",
"371 460 OFFCURVE",
"300 460 CURVE SMOOTH",
"160 460 OFFCURVE",
"30 312 OFFCURVE",
"30 173 CURVE SMOOTH",
"30 56 OFFCURVE",
"131 -15 OFFCURVE",
"255 -15 CURVE SMOOTH"
);
}
);
width = 813;
}
);
leftKerningGroup = knLA;
unicode = 0CEE;
script = kannada;
category = Number;
subCategory = Other;
},
{
color = 4;
glyphname = knNine;
lastChange = "2016-01-01 06:02:10 +0000";
layers = (
{
layerId = "59118767-2CA9-48AA-9373-694D24C960D8";
name = Regular;
paths = (
{
closed = 1;
nodes = (
"208 -14 OFFCURVE",
"227 -12 OFFCURVE",
"242 -5 CURVE SMOOTH",
"269 8 OFFCURVE",
"295 41 OFFCURVE",
"295 65 CURVE SMOOTH",
"295 75 OFFCURVE",
"287 80 OFFCURVE",
"269 80 CURVE SMOOTH",
"267 80 OFFCURVE",
"232 78 OFFCURVE",
"200 78 CURVE SMOOTH",
"140 78 OFFCURVE",
"107 107 OFFCURVE",
"107 155 CURVE SMOOTH",
"107 169 OFFCURVE",
"111 178 OFFCURVE",
"119 184 CURVE",
"135 179 OFFCURVE",
"154 176 OFFCURVE",
"176 176 CURVE SMOOTH",
"227 176 OFFCURVE",
"290 222 OFFCURVE",
"290 266 CURVE SMOOTH",
"290 285 OFFCURVE",
"271 294 OFFCURVE",
"242 294 CURVE SMOOTH",
"221 294 OFFCURVE",
"195 289 OFFCURVE",
"171 280 CURVE",
"136 298 OFFCURVE",
"118 333 OFFCURVE",
"118 367 CURVE SMOOTH",
"118 424 OFFCURVE",
"172 429 OFFCURVE",
"228 429 CURVE SMOOTH",
"498 428 LINE SMOOTH",
"542 428 OFFCURVE",
"575 432 OFFCURVE",
"583 436 CURVE SMOOTH",
"598 443 OFFCURVE",
"610 456 OFFCURVE",
"617 471 CURVE SMOOTH",
"623 485 OFFCURVE",
"627 496 OFFCURVE",
"627 504 CURVE SMOOTH",
"627 520 OFFCURVE",
"611 523 OFFCURVE",
"572 521 CURVE SMOOTH",
"525 519 OFFCURVE",
"379 516 OFFCURVE",
"291 514 CURVE SMOOTH",
"134 514 OFFCURVE",
"30 455 OFFCURVE",
"30 316 CURVE SMOOTH",
"30 274 OFFCURVE",
"44 234 OFFCURVE",
"76 208 CURVE",
"46 178 OFFCURVE",
"31 140 OFFCURVE",
"31 104 CURVE SMOOTH",
"31 28 OFFCURVE",
"104 -14 OFFCURVE",
"176 -14 CURVE SMOOTH"
);
}
);
width = 637;
}
);
unicode = 0CEF;
script = kannada;
category = Number;
subCategory = Other;
},
{
color = 4;
glyphname = knReph;
lastChange = "2016-01-02 13:23:31 +0000";
layers = (
{
layerId = "59118767-2CA9-48AA-9373-694D24C960D8";
name = Regular;
paths = (
{
closed = 1;
nodes = (
"228 -14 OFFCURVE",
"247 -12 OFFCURVE",
"262 -5 CURVE SMOOTH",
"289 8 OFFCURVE",
"315 41 OFFCURVE",
"315 65 CURVE SMOOTH",
"315 76 OFFCURVE",
"306 80 OFFCURVE",
"284 80 CURVE SMOOTH",
"241 80 LINE SMOOTH",
"186 80 OFFCURVE",
"124 89 OFFCURVE",
"124 144 CURVE SMOOTH",
"124 159 OFFCURVE",
"130 175 OFFCURVE",
"144 189 CURVE",
"158 184 OFFCURVE",
"175 181 OFFCURVE",
"192 181 CURVE SMOOTH",
"238 181 OFFCURVE",
"288 203 OFFCURVE",
"306 249 CURVE",
"309 255 OFFCURVE",
"310 261 OFFCURVE",
"310 266 CURVE SMOOTH",
"310 276 OFFCURVE",
"305 284 OFFCURVE",
"293 289 CURVE SMOOTH",
"284 293 OFFCURVE",
"274 294 OFFCURVE",
"262 294 CURVE SMOOTH",
"241 294 OFFCURVE",
"215 289 OFFCURVE",
"191 280 CURVE",
"154 295 OFFCURVE",
"132 337 OFFCURVE",
"132 377 CURVE SMOOTH",
"132 474 OFFCURVE",
"233 534 OFFCURVE",
"331 534 CURVE SMOOTH",
"500 534 OFFCURVE",
"565 434 OFFCURVE",
"576 434 CURVE SMOOTH",
"584 434 OFFCURVE",
"593 439 OFFCURVE",
"603 450 CURVE",
"611 458 OFFCURVE",
"629 482 OFFCURVE",
"629 504 CURVE SMOOTH",
"629 574 OFFCURVE",
"521 618 OFFCURVE",
"380 618 CURVE SMOOTH",
"207 618 OFFCURVE",
"49 503 OFFCURVE",
"49 344 CURVE SMOOTH",
"49 297 OFFCURVE",
"71 249 OFFCURVE",
"105 216 CURVE",
"69 185 OFFCURVE",
"51 144 OFFCURVE",
"51 104 CURVE SMOOTH",
"51 28 OFFCURVE",
"124 -14 OFFCURVE",
"196 -14 CURVE SMOOTH"
);
}
);
width = 639;
}
);
leftKerningGroup = knTTA;
leftMetricsKey = knTTA;
rightKerningGroup = knLLA;
},
{
color = 4;
glyphname = knKAc2;
lastChange = "2016-01-01 06:02:12 +0000";
layers = (
{
layerId = "59118767-2CA9-48AA-9373-694D24C960D8";
name = Regular;
paths = (
{
closed = 1;
nodes = (
"-171 -438 OFFCURVE",
"-77 -360 OFFCURVE",
"-77 -277 CURVE SMOOTH",
"-77 -223 OFFCURVE",
"-115 -199 OFFCURVE",
"-168 -199 CURVE SMOOTH",
"-197 -199 OFFCURVE",
"-229 -206 OFFCURVE",
"-262 -218 CURVE",
"-228 -197 OFFCURVE",
"-178 -177 OFFCURVE",
"-129 -177 CURVE SMOOTH",
"-108 -177 OFFCURVE",
"-91 -180 OFFCURVE",
"-74 -192 CURVE SMOOTH",
"-61 -201 OFFCURVE",
"-62 -205 OFFCURVE",
"-54 -205 CURVE SMOOTH",
"-34 -205 OFFCURVE",
"0 -174 OFFCURVE",
"0 -147 CURVE SMOOTH",
"0 -128 OFFCURVE",
"-16 -110 OFFCURVE",
"-57 -110 CURVE SMOOTH",
"-99 -110 OFFCURVE",
"-152 -128 OFFCURVE",
"-201 -154 CURVE",
"-185 -127 OFFCURVE",
"-174 -98 OFFCURVE",
"-174 -75 CURVE SMOOTH",
"-174 -49 OFFCURVE",
"-185 -30 OFFCURVE",
"-202 -30 CURVE SMOOTH",
"-231 -30 OFFCURVE",
"-263 -61 OFFCURVE",
"-263 -78 CURVE SMOOTH",
"-263 -91 OFFCURVE",
"-261 -103 OFFCURVE",
"-261 -116 CURVE SMOOTH",
"-261 -146 OFFCURVE",
"-265 -173 OFFCURVE",
"-271 -194 CURVE",
"-310 -221 OFFCURVE",
"-341 -249 OFFCURVE",
"-351 -268 CURVE SMOOTH",
"-352 -269 OFFCURVE",
"-355 -276 OFFCURVE",
"-355 -281 CURVE SMOOTH",
"-355 -288 OFFCURVE",
"-348 -291 OFFCURVE",
"-343 -291 CURVE SMOOTH",
"-337 -291 OFFCURVE",
"-321 -283 OFFCURVE",
"-296 -276 CURVE",
"-330 -304 OFFCURVE",
"-348 -340 OFFCURVE",
"-348 -368 CURVE SMOOTH",
"-348 -409 OFFCURVE",
"-313 -438 OFFCURVE",
"-259 -438 CURVE SMOOTH"
);
},
{
closed = 1;
nodes = (
"-265 -368 OFFCURVE",
"-282 -349 OFFCURVE",
"-282 -325 CURVE SMOOTH",
"-282 -307 OFFCURVE",
"-271 -284 OFFCURVE",
"-252 -267 CURVE",
"-242 -266 OFFCURVE",
"-231 -265 OFFCURVE",
"-219 -265 CURVE SMOOTH",
"-159 -265 OFFCURVE",
"-137 -285 OFFCURVE",
"-137 -311 CURVE SMOOTH",
"-137 -348 OFFCURVE",
"-179 -368 OFFCURVE",
"-222 -368 CURVE SMOOTH"
);
}
);
width = 0;
}
);
rightKerningGroup = knKAc2;
subCategory = Nonspacing;
},
{
color = 4;
glyphname = knKHAc2;
lastChange = "2016-01-01 06:02:12 +0000";
layers = (
{
layerId = "59118767-2CA9-48AA-9373-694D24C960D8";
name = Regular;
paths = (
{
closed = 1;
nodes = (
"-357 -418 OFFCURVE",
"-302 -396 OFFCURVE",
"-259 -360 CURVE",
"-232 -402 OFFCURVE",
"-194 -418 OFFCURVE",
"-156 -418 CURVE SMOOTH",
"-79 -418 OFFCURVE",
"0 -346 OFFCURVE",
"0 -238 CURVE SMOOTH",
"0 -142 OFFCURVE",
"-36 -75 OFFCURVE",
"-75 -75 CURVE SMOOTH",
"-100 -75 OFFCURVE",
"-126 -114 OFFCURVE",
"-126 -138 CURVE SMOOTH",
"-126 -148 OFFCURVE",
"-121 -153 OFFCURVE",
"-117 -156 CURVE SMOOTH",
"-79 -185 OFFCURVE",
"-61 -230 OFFCURVE",
"-61 -270 CURVE SMOOTH",
"-61 -314 OFFCURVE",
"-84 -355 OFFCURVE",
"-133 -355 CURVE SMOOTH",
"-162 -355 OFFCURVE",
"-195 -335 OFFCURVE",
"-215 -311 CURVE",
"-186 -270 OFFCURVE",
"-173 -226 OFFCURVE",
"-173 -187 CURVE SMOOTH",
"-173 -124 OFFCURVE",
"-210 -75 OFFCURVE",
"-290 -75 CURVE SMOOTH",
"-335 -75 OFFCURVE",
"-396 -100 OFFCURVE",
"-396 -134 CURVE SMOOTH",
"-396 -145 OFFCURVE",
"-390 -153 OFFCURVE",
"-375 -153 CURVE SMOOTH",
"-356 -153 OFFCURVE",
"-343 -142 OFFCURVE",
"-315 -142 CURVE SMOOTH",
"-266 -142 OFFCURVE",
"-234 -180 OFFCURVE",
"-234 -229 CURVE SMOOTH",
"-234 -243 OFFCURVE",
"-236 -258 OFFCURVE",
"-243 -273 CURVE",
"-268 -247 OFFCURVE",
"-298 -229 OFFCURVE",
"-337 -229 CURVE SMOOTH",
"-416 -229 OFFCURVE",
"-466 -300 OFFCURVE",
"-466 -355 CURVE SMOOTH",
"-466 -389 OFFCURVE",
"-445 -418 OFFCURVE",
"-400 -418 CURVE SMOOTH"
);
},
{
closed = 1;
nodes = (
"-396 -355 OFFCURVE",
"-409 -345 OFFCURVE",
"-409 -332 CURVE SMOOTH",
"-409 -313 OFFCURVE",
"-390 -288 OFFCURVE",
"-355 -288 CURVE SMOOTH",
"-331 -288 OFFCURVE",
"-304 -302 OFFCURVE",
"-282 -321 CURVE",
"-310 -342 OFFCURVE",
"-345 -355 OFFCURVE",
"-378 -355 CURVE SMOOTH"
);
}
);
width = 0;
}
);
rightKerningGroup = zeroc2;
subCategory = Nonspacing;
},
{
color = 4;
glyphname = knGAc2;
lastChange = "2016-01-01 06:02:10 +0000";
layers = (
{
layerId = "59118767-2CA9-48AA-9373-694D24C960D8";
name = Regular;
paths = (
{
closed = 1;
nodes = (
"-339 -418 OFFCURVE",
"-277 -371 OFFCURVE",
"-277 -333 CURVE SMOOTH",
"-277 -236 OFFCURVE",
"-250 -168 OFFCURVE",
"-177 -168 CURVE SMOOTH",
"-102 -168 OFFCURVE",
"-84 -252 OFFCURVE",
"-84 -337 CURVE SMOOTH",
"-84 -402 LINE SMOOTH",
"-84 -412 OFFCURVE",
"-79 -418 OFFCURVE",
"-71 -418 CURVE SMOOTH",
"-53 -418 OFFCURVE",
"-14 -378 OFFCURVE",
"-10 -359 CURVE SMOOTH",
"-3 -329 OFFCURVE",
"0 -299 OFFCURVE",
"0 -270 CURVE SMOOTH",
"0 -160 OFFCURVE",
"-51 -75 OFFCURVE",
"-158 -75 CURVE SMOOTH",
"-284 -75 OFFCURVE",
"-375 -257 OFFCURVE",
"-375 -399 CURVE SMOOTH",
"-375 -411 OFFCURVE",
"-370 -418 OFFCURVE",
"-361 -418 CURVE SMOOTH"
);
}
);
width = 0;
}
);
rightKerningGroup = zeroc2;
},
{
color = 4;
glyphname = knGHAc2;
lastChange = "2016-01-01 06:02:11 +0000";
layers = (
{
layerId = "59118767-2CA9-48AA-9373-694D24C960D8";
name = Regular;
paths = (
{
closed = 1;
nodes = (
"-333 -342 OFFCURVE",
"-285 -318 OFFCURVE",
"-248 -279 CURVE",
"-230 -320 OFFCURVE",
"-200 -342 OFFCURVE",
"-158 -342 CURVE SMOOTH",
"-95 -342 OFFCURVE",
"-35 -283 OFFCURVE",
"-31 -201 CURVE",
"-21 -205 OFFCURVE",
"-11 -207 OFFCURVE",
"0 -207 CURVE SMOOTH",
"56 -207 OFFCURVE",
"109 -147 OFFCURVE",
"109 -75 CURVE SMOOTH",
"109 -45 OFFCURVE",
"93 -30 OFFCURVE",
"73 -30 CURVE SMOOTH",
"43 -30 OFFCURVE",
"18 -67 OFFCURVE",
"18 -80 CURVE SMOOTH",
"18 -85 OFFCURVE",
"21 -89 OFFCURVE",
"23 -92 CURVE SMOOTH",
"31 -104 OFFCURVE",
"35 -118 OFFCURVE",
"35 -130 CURVE SMOOTH",
"35 -146 OFFCURVE",
"28 -159 OFFCURVE",
"12 -159 CURVE SMOOTH",
"-5 -159 OFFCURVE",
"-29 -142 OFFCURVE",
"-45 -106 CURVE",
"-58 -65 OFFCURVE",
"-79 -30 OFFCURVE",
"-104 -30 CURVE SMOOTH",
"-129 -30 OFFCURVE",
"-155 -69 OFFCURVE",
"-155 -93 CURVE SMOOTH",
"-155 -103 OFFCURVE",
"-150 -108 OFFCURVE",
"-146 -111 CURVE SMOOTH",
"-112 -136 OFFCURVE",
"-87 -185 OFFCURVE",
"-87 -223 CURVE SMOOTH",
"-87 -260 OFFCURVE",
"-110 -276 OFFCURVE",
"-132 -276 CURVE SMOOTH",
"-166 -276 OFFCURVE",
"-184 -242 OFFCURVE",
"-192 -201 CURVE SMOOTH",
"-194 -193 OFFCURVE",
"-198 -187 OFFCURVE",
"-205 -187 CURVE SMOOTH",
"-209 -187 OFFCURVE",
"-214 -189 OFFCURVE",
"-220 -195 CURVE SMOOTH",
"-225 -200 OFFCURVE",
"-238 -212 OFFCURVE",
"-251 -224 CURVE SMOOTH",
"-279 -249 OFFCURVE",
"-304 -258 OFFCURVE",
"-325 -259 CURVE",
"-300 -240 OFFCURVE",
"-287 -207 OFFCURVE",
"-287 -178 CURVE SMOOTH",
"-287 -145 OFFCURVE",
"-304 -115 OFFCURVE",
"-341 -115 CURVE SMOOTH",
"-390 -115 OFFCURVE",
"-455 -172 OFFCURVE",
"-455 -258 CURVE SMOOTH",
"-455 -317 OFFCURVE",
"-413 -342 OFFCURVE",
"-372 -342 CURVE SMOOTH"
);
},
{
closed = 1;
nodes = (
"-246 -452 OFFCURVE",
"-220 -431 OFFCURVE",
"-220 -411 CURVE SMOOTH",
"-220 -383 OFFCURVE",
"-239 -320 OFFCURVE",
"-255 -320 CURVE SMOOTH",
"-268 -320 OFFCURVE",
"-306 -384 OFFCURVE",
"-306 -412 CURVE SMOOTH",
"-306 -432 OFFCURVE",
"-287 -452 OFFCURVE",
"-267 -452 CURVE SMOOTH"
);
},
{
closed = 1;
nodes = (
"-386 -253 OFFCURVE",
"-404 -230 OFFCURVE",
"-404 -211 CURVE SMOOTH",
"-404 -191 OFFCURVE",
"-389 -181 OFFCURVE",
"-374 -181 CURVE SMOOTH",
"-360 -181 OFFCURVE",
"-345 -191 OFFCURVE",
"-345 -214 CURVE SMOOTH",
"-345 -227 OFFCURVE",
"-349 -243 OFFCURVE",
"-354 -259 CURVE"
);
}
);
width = 109;
}
);
rightKerningGroup = knGHAc2;
subCategory = Nonspacing;
},
{
color = 4;
glyphname = knNGAc2;
lastChange = "2016-01-01 06:02:12 +0000";
layers = (
{
layerId = "59118767-2CA9-48AA-9373-694D24C960D8";
name = Regular;
paths = (
{
closed = 1;
nodes = (
"-309 -418 OFFCURVE",
"-266 -399 OFFCURVE",
"-227 -367 CURVE",
"-208 -400 OFFCURVE",
"-180 -418 OFFCURVE",
"-142 -418 CURVE SMOOTH",
"-63 -418 OFFCURVE",
"0 -327 OFFCURVE",
"0 -274 CURVE SMOOTH",
"0 -254 OFFCURVE",
"-10 -239 OFFCURVE",
"-35 -239 CURVE SMOOTH",
"-71 -239 OFFCURVE",
"-90 -277 OFFCURVE",
"-90 -290 CURVE SMOOTH",
"-90 -295 OFFCURVE",
"-87 -298 OFFCURVE",
"-84 -301 CURVE SMOOTH",
"-76 -309 OFFCURVE",
"-72 -315 OFFCURVE",
"-72 -322 CURVE SMOOTH",
"-72 -335 OFFCURVE",
"-89 -346 OFFCURVE",
"-108 -346 CURVE SMOOTH",
"-140 -346 OFFCURVE",
"-162 -334 OFFCURVE",
"-170 -302 CURVE SMOOTH",
"-173 -290 OFFCURVE",
"-177 -282 OFFCURVE",
"-190 -282 CURVE SMOOTH",
"-200 -282 OFFCURVE",
"-207 -286 OFFCURVE",
"-222 -301 CURVE SMOOTH",
"-239 -319 OFFCURVE",
"-269 -351 OFFCURVE",
"-299 -351 CURVE SMOOTH",
"-314 -351 OFFCURVE",
"-321 -344 OFFCURVE",
"-321 -328 CURVE SMOOTH",
"-321 -275 OFFCURVE",
"-239 -227 OFFCURVE",
"-224 -161 CURVE",
"-202 -140 OFFCURVE",
"-176 -127 OFFCURVE",
"-150 -127 CURVE SMOOTH",
"-121 -127 OFFCURVE",
"-101 -139 OFFCURVE",
"-85 -177 CURVE SMOOTH",
"-77 -195 OFFCURVE",
"-72 -205 OFFCURVE",
"-63 -205 CURVE SMOOTH",
"-48 -205 OFFCURVE",
"-20 -182 OFFCURVE",
"-20 -158 CURVE SMOOTH",
"-20 -111 OFFCURVE",
"-67 -75 OFFCURVE",
"-127 -75 CURVE SMOOTH",
"-162 -75 OFFCURVE",
"-197 -87 OFFCURVE",
"-227 -114 CURVE",
"-236 -89 OFFCURVE",
"-260 -75 OFFCURVE",
"-295 -75 CURVE SMOOTH",
"-380 -75 OFFCURVE",
"-434 -149 OFFCURVE",
"-434 -202 CURVE SMOOTH",
"-434 -242 OFFCURVE",
"-406 -267 OFFCURVE",
"-363 -267 CURVE SMOOTH",
"-358 -267 OFFCURVE",
"-354 -267 OFFCURVE",
"-350 -266 CURVE",
"-379 -299 OFFCURVE",
"-412 -332 OFFCURVE",
"-412 -367 CURVE SMOOTH",
"-412 -398 OFFCURVE",
"-387 -418 OFFCURVE",
"-349 -418 CURVE SMOOTH"
);
},
{
closed = 1;
nodes = (
"-352 -214 OFFCURVE",
"-369 -199 OFFCURVE",
"-369 -174 CURVE SMOOTH",
"-369 -152 OFFCURVE",
"-354 -136 OFFCURVE",
"-332 -136 CURVE SMOOTH",
"-313 -136 OFFCURVE",
"-301 -152 OFFCURVE",
"-301 -176 CURVE SMOOTH",
"-301 -187 OFFCURVE",
"-303 -200 OFFCURVE",
"-311 -213 CURVE",
"-316 -214 OFFCURVE",
"-321 -214 OFFCURVE",
"-326 -214 CURVE SMOOTH"
);
},
{
closed = 1;
nodes = (
"-149 -249 OFFCURVE",
"-122 -230 OFFCURVE",
"-122 -208 CURVE SMOOTH",
"-122 -191 OFFCURVE",
"-138 -169 OFFCURVE",
"-152 -169 CURVE SMOOTH",
"-168 -169 OFFCURVE",
"-197 -190 OFFCURVE",
"-197 -213 CURVE SMOOTH",
"-197 -228 OFFCURVE",
"-180 -249 OFFCURVE",
"-165 -249 CURVE SMOOTH"
);
}
);
width = 0;
}
);
rightKerningGroup = zeroc2;
},
